<svg width="28" height="28" viewBox="0 0 28 28" fill="none" xmlns="http://www.w3.org/2000/svg">
<path d="M20.1249 11.6663C22.219 11.6663 23.9166 9.96875 23.9166 7.87467C23.9166 5.78059 22.219 4.08301 20.1249 4.08301C18.0308 4.08301 16.3333 5.78059 16.3333 7.87467C16.3333 9.96875 18.0308 11.6663 20.1249 11.6663Z" fill="#2B2E3A"  stroke="currentColor" stroke-width="2"/>
<path d="M20.1249 23.9163C22.219 23.9163 23.9166 22.2188 23.9166 20.1247C23.9166 18.0306 22.219 16.333 20.1249 16.333C18.0308 16.333 16.3333 18.0306 16.3333 20.1247C16.3333 22.2188 18.0308 23.9163 20.1249 23.9163Z"    fill="#2B2E3A"  stroke="currentColor" stroke-width="2"/>
<path d="M7.87492 11.6663C9.969 11.6663 11.6666 9.96875 11.6666 7.87467C11.6666 5.78059 9.969 4.08301 7.87492 4.08301C5.78084 4.08301 4.08325 5.78059 4.08325 7.87467C4.08325 9.96875 5.78084 11.6663 7.87492 11.6663Z"   fill="#2B2E3A"  stroke="currentColor" stroke-width="2"/>
<path d="M7.87492 23.9163C9.969 23.9163 11.6666 22.2188 11.6666 20.1247C11.6666 18.0306 9.969 16.333 7.87492 16.333C5.78084 16.333 4.08325 18.0306 4.08325 20.1247C4.08325 22.2188 5.78084 23.9163 7.87492 23.9163Z"      fill="#2B2E3A"  stroke="currentColor" stroke-width="2"/>
</svg>
