<svg width="28" height="28" viewBox="0 0 28 28" fill="none" xmlns="http://www.w3.org/2000/svg">
<path d="M20.1249 11.6668C22.219 11.6668 23.9166 9.96924 23.9166 7.87516C23.9166 5.78108 22.219 4.0835 20.1249 4.0835C18.0308 4.0835 16.3333 5.78108 16.3333 7.87516C16.3333 9.96924 18.0308 11.6668 20.1249 11.6668Z"    fill="currentColor" stroke="currentColor" stroke-width="2"/>
<path d="M20.1249 23.9168C22.219 23.9168 23.9166 22.2192 23.9166 20.1252C23.9166 18.0311 22.219 16.3335 20.1249 16.3335C18.0308 16.3335 16.3333 18.0311 16.3333 20.1252C16.3333 22.2192 18.0308 23.9168 20.1249 23.9168Z" fill="currentColor" stroke="currentColor" stroke-width="2"/>
<path d="M7.87492 11.6668C9.969 11.6668 11.6666 9.96924 11.6666 7.87516C11.6666 5.78108 9.969 4.0835 7.87492 4.0835C5.78084 4.0835 4.08325 5.78108 4.08325 7.87516C4.08325 9.96924 5.78084 11.6668 7.87492 11.6668Z"      fill="currentColor" stroke="currentColor" stroke-width="2"/>
<path d="M7.87492 23.9168C9.969 23.9168 11.6666 22.2192 11.6666 20.1252C11.6666 18.0311 9.969 16.3335 7.87492 16.3335C5.78084 16.3335 4.08325 18.0311 4.08325 20.1252C4.08325 22.2192 5.78084 23.9168 7.87492 23.9168Z"   fill="currentColor" stroke="currentColor" stroke-width="2"/>
</svg>
