<svg width="60" height="60" viewBox="0 0 60 60" fill="none" xmlns="http://www.w3.org/2000/svg">
  <circle opacity=".4" cx="30" cy="30" r="30" fill="transparent"/>
  <path d="M26.445 17H18.98c-1.091 0-1.98.888-1.98 1.98v7.464c0 1.092.889 1.98 1.98 1.98h7.465c1.092 0 1.98-.888 1.98-1.98V18.98c0-1.092-.888-1.98-1.98-1.98zM41.02 17h-7.464c-1.092 0-1.98.888-1.98 1.98v7.464c0 1.092.888 1.98 1.98 1.98h7.464c1.092 0 1.98-.888 1.98-1.98V18.98c0-1.092-.888-1.98-1.98-1.98zM26.444 31.576H18.98c-1.092 0-1.98.888-1.98 1.98v7.464c0 1.092.888 1.98 1.98 1.98h7.464c1.092 0 1.98-.888 1.98-1.98v-7.464c0-1.092-.888-1.98-1.98-1.98zM41.02 31.576h-7.464c-1.092 0-1.98.888-1.98 1.98v7.465c0 1.091.888 1.979 1.98 1.979h7.464c1.092 0 1.98-.888 1.98-1.98v-7.464c0-1.092-.888-1.98-1.98-1.98z" fill="#fff"/>
</svg>