<svg width="10" height="17" viewBox="0 0 10 17" fill="none" xmlns="http://www.w3.org/2000/svg">
<path d="M1.97652 16.6742C1.76125 16.885 1.48728 17 1.16438 17C0.518591 17 0 16.5017 0 15.8692C0 15.553 0.136987 15.2655 0.362036 15.0451L7.21135 8.49042L0.362036 1.9549C0.136987 1.7345 0 1.43743 0 1.13078C0 0.498309 0.518591 0 1.16438 0C1.48728 0 1.76125 0.114994 1.97652 0.325817L9.58904 7.60879C9.86301 7.85795 9.99022 8.1646 10 8.5C10 8.8354 9.86301 9.12289 9.58904 9.38162L1.97652 16.6742Z" fill="#9B9D9C"/>
</svg>
