<svg width="16" height="35" viewBox="0 0 16 35" fill="none" xmlns="http://www.w3.org/2000/svg">
<path d="M8.13799 5.89207C9.76504 5.89207 11.084 4.57308 11.084 2.94603C11.084 1.31898 9.76504 0 8.13799 0C6.51094 0 5.19196 1.31898 5.19196 2.94603C5.19196 4.57308 6.51094 5.89207 8.13799 5.89207Z" fill="#31C0B2"/>
<path d="M9.16473 7.29666C8.43067 7.14763 7.63256 7.15416 6.91157 7.32412C2.01372 7.89803 0.423368 13.5672 0.87243 17.8898C1.06722 19.7586 4.01325 19.7782 3.8165 17.8898C3.65309 16.3145 3.72303 13.9372 4.56037 12.2475C4.56037 14.3013 4.56037 16.355 4.56037 18.4082C4.56037 18.4807 4.56756 18.5487 4.57082 18.6187C4.56886 18.652 4.56102 18.6801 4.56102 18.7141C4.56102 23.6028 4.55252 28.4895 4.35054 33.3743C4.26099 35.5458 7.62798 35.5373 7.71688 33.3743C7.87506 29.5459 7.91494 25.7154 7.92409 21.8843C8.08358 21.8948 8.24307 21.8948 8.40256 21.8856C8.41237 25.7167 8.45093 29.5472 8.60781 33.3743C8.69736 35.5373 12.0644 35.5458 11.9741 33.3743C11.7722 28.4895 11.765 23.6028 11.765 18.7141C11.765 18.5624 11.7447 18.4245 11.714 18.2918C11.7094 16.1694 11.6284 14.045 11.6532 11.9239C12.6559 13.6215 12.7474 16.2106 12.5736 17.8885C12.3761 19.7756 15.3228 19.7567 15.5176 17.8885C15.9771 13.4763 14.3103 7.6601 9.16473 7.29666Z" fill="#31C0B2"/>
</svg>
