<svg width="29" height="35" viewBox="0 0 29 35" fill="none" xmlns="http://www.w3.org/2000/svg">
<path d="M21.7634 6.51851C19.9634 6.51851 18.5042 5.05929 18.5042 3.25926C18.5042 1.45922 19.9634 0 21.7634 0C23.5635 0 25.0227 1.45922 25.0227 3.25926C25.0227 5.05929 23.5635 6.51851 21.7634 6.51851Z" fill="#FF8368"/>
<path d="M1.27547 31.2407C5.15952 25.4437 9.60077 17.8927 10.3473 16.618C10.4149 16.3868 10.5042 16.1521 10.6272 15.9161C11.5144 14.1871 12.4421 12.4777 13.3888 10.7798C12.3853 10.8582 11.3792 10.936 10.3764 11.0137C9.68664 12.3729 9.00031 13.7327 8.31194 15.0912C7.20366 17.28 3.92344 15.3542 5.02902 13.1715C5.91618 11.4181 6.96767 7.47454 9.25794 7.2967C11.6949 7.10736 14.1313 6.91803 16.5676 6.72937C16.6271 6.72464 16.6778 6.73275 16.7346 6.73275C18.5766 6.23981 20.7357 7.53945 21.1265 9.41724C22.372 12.1146 24.1606 14.2209 27.1615 15.1C29.5106 15.787 28.5099 19.4567 26.1506 18.767C23.1842 17.8987 21.0535 16.1988 19.438 13.9613C18.4596 15.7058 17.5041 17.4612 16.5886 19.241C18.6016 20.6292 20.3604 22.3082 21.9014 24.2455C22.3315 24.7858 22.4052 25.3416 22.2605 25.8305C22.2659 26.0131 22.2544 26.2024 22.2023 26.408C21.6093 28.7557 21.017 31.0994 20.4233 33.4444C19.7937 35.9437 15.8373 35.2337 16.4722 32.7182C17.0369 30.4834 17.6022 28.2486 18.1668 26.0124C16.7508 24.3429 15.0813 22.8904 13.1738 21.8058C12.7248 21.5502 12.4421 21.1979 12.2853 20.8098C9.67583 24.8088 7.06571 30.3414 4.45763 33.6946C2.86587 35.7408 -0.318323 33.291 1.27547 31.2407Z" fill="#FF8368"/>
</svg>
