<svg width="130" height="130" viewBox="0 0 130 130" fill="none" xmlns="http://www.w3.org/2000/svg">
<circle cx="65.5" cy="64.5" r="62.5"/>
<path d="M65 0C29.1014 0 0 29.1014 0 65C0 100.899 29.1014 130 65 130C100.899 130 130 100.899 130 65C129.958 29.1187 100.881 0.0416734 65 0ZM65 125.806C31.4175 125.806 4.19355 98.5825 4.19355 65C4.19355 31.4175 31.4175 4.19355 65 4.19355C98.5825 4.19355 125.806 31.4175 125.806 65C125.769 98.5673 98.5673 125.769 65 125.806Z" fill="#5CCD75"/>
<path d="M92.0071 47.4957L56.17 83.3327L37.9928 65.1555C37.2912 64.4778 36.1734 64.4972 35.4957 65.1988C34.8348 65.8831 34.8348 66.9681 35.4957 67.6526L54.9215 87.0784C55.6111 87.7678 56.729 87.7678 57.4186 87.0784L94.5042 49.9928C95.1819 49.2913 95.1624 48.1734 94.4609 47.4957C93.7763 46.8348 92.6914 46.8348 92.0071 47.4957Z" fill="#5CCD75"/>
</svg>
