<svg width="25" height="25" viewBox="0 0 16 16" fill="none" xmlns="http://www.w3.org/2000/svg">
  <path d="M14.521 3.382c0-.005 0-.01-.002-.015-.02-.029-.044-.053-.065-.081a8.206 8.206 0 00-1.153-1.267c-.035-.031-.068-.063-.103-.093A8.011 8.011 0 0011.681.9c-.021-.011-.044-.02-.066-.032a7.952 7.952 0 00-.744-.331c-.057-.02-.109-.04-.163-.057a8.08 8.08 0 00-.686-.213C9.953.249 9.885.23 9.815.214a7.993 7.993 0 00-.691-.127c-.071-.01-.14-.024-.212-.032a7.516 7.516 0 00-1.813 0c-.072.008-.142.022-.213.032a7.84 7.84 0 00-.69.127c-.07.016-.139.035-.208.054a7.73 7.73 0 00-.686.213L5.14.538a7.945 7.945 0 00-.743.33C4.374.88 4.35.89 4.329.902a8.013 8.013 0 00-1.522 1.025c-.035.03-.068.062-.103.093a7.434 7.434 0 00-.679.679 7.827 7.827 0 00-.474.588c-.02.028-.045.052-.065.08a.128.128 0 00-.007.016 7.95 7.95 0 000 9.236.13.13 0 00.007.015c.02.029.044.053.065.081a8.001 8.001 0 001.153 1.267c.035.031.068.063.103.093.465.399.974.742 1.517 1.024.022.012.044.022.067.033.242.123.49.233.743.331.057.02.109.04.163.057.226.081.454.152.686.213.069.019.137.038.207.054.229.053.457.093.691.127.071.01.14.024.212.032a7.513 7.513 0 001.814 0c.071-.008.14-.022.212-.033.233-.033.464-.073.69-.126.07-.016.14-.035.208-.053.234-.062.462-.133.686-.214l.163-.057a7.94 7.94 0 00.743-.33c.023-.012.046-.022.067-.034a8.011 8.011 0 001.517-1.024c.035-.03.068-.062.103-.093a7.292 7.292 0 00.679-.679c.167-.188.325-.384.474-.588.02-.028.045-.052.065-.08a.131.131 0 00.007-.016 7.95 7.95 0 000-9.236zm-.652 1.082a6.8 6.8 0 01.964 2.964H11.41a10.67 10.67 0 00-.32-2.017c.967-.18 1.904-.5 2.78-.947zM9.457 1.299c.032.007.063.017.095.025.205.048.408.103.606.171l.09.033c.196.07.39.145.58.23l.099.047c.182.087.36.18.533.28l.114.07c.165.1.325.208.48.323.04.03.08.057.12.09.152.113.298.236.437.367.037.033.075.065.11.1.147.139.287.285.421.438l.053.057a9.589 9.589 0 01-2.438.783 14.533 14.533 0 00-1.539-3.054c.08.015.16.023.24.04zm-3.72 6.13c.045-.619.15-1.232.314-1.83a16.382 16.382 0 003.905-.003c.164.6.269 1.213.313 1.832H5.737zm4.532 1.143a9.535 9.535 0 01-.315 1.829c-.647-.077-1.299-.115-1.951-.115-.653 0-1.305.038-1.953.115a9.522 9.522 0 01-.313-1.83h4.532zM8.003 1.514c.65.922 1.185 1.92 1.593 2.972a15.134 15.134 0 01-3.185 0c.409-1.052.943-2.05 1.592-2.972zm-5.14 1.958c.135-.152.275-.299.422-.438l.11-.1c.141-.128.287-.25.438-.368.04-.03.08-.057.12-.089a6.91 6.91 0 01.48-.323l.114-.069a6.83 6.83 0 01.533-.28c.033-.016.065-.033.098-.048.19-.086.384-.162.58-.23.03-.01.058-.022.09-.032.199-.067.4-.121.606-.172.032-.007.063-.017.096-.024.078-.017.16-.025.239-.04a14.534 14.534 0 00-1.54 3.054 9.589 9.589 0 01-2.438-.783l.053-.058zm-.726.992a10.27 10.27 0 002.78.947c-.172.661-.279 1.336-.32 2.017H1.172a6.802 6.802 0 01.965-2.964zm0 7.072a6.801 6.801 0 01-.965-2.964h3.425c.041.68.149 1.356.32 2.017-.968.18-1.904.5-2.78.947zm4.412 3.165c-.032-.007-.063-.017-.095-.025a6.143 6.143 0 01-.606-.171l-.09-.033a7.662 7.662 0 01-.58-.23l-.1-.047a7.383 7.383 0 01-.532-.28l-.114-.07a6.645 6.645 0 01-.48-.323c-.04-.029-.08-.057-.12-.089a5.2 5.2 0 01-.438-.368c-.036-.033-.074-.065-.11-.1a7.1 7.1 0 01-.42-.437l-.053-.058a9.593 9.593 0 012.438-.783c.39 1.075.907 2.1 1.539 3.054-.08-.014-.161-.022-.24-.04zm1.454-.215a13.808 13.808 0 01-1.593-2.972 14.875 14.875 0 013.185 0 13.914 13.914 0 01-1.592 2.973zm5.139-1.958a6.963 6.963 0 01-.42.438l-.111.1a6.772 6.772 0 01-1.038.78l-.114.069c-.173.1-.35.194-.533.28l-.099.048c-.19.086-.383.162-.58.23-.03.01-.057.022-.09.032a7.55 7.55 0 01-.606.172c-.032.007-.062.018-.095.024-.078.018-.16.026-.239.04a14.536 14.536 0 001.539-3.054c.844.151 1.664.415 2.438.784l-.052.057zm.727-.992a10.267 10.267 0 00-2.78-.947c.171-.66.278-1.336.32-2.017h3.424a6.8 6.8 0 01-.964 2.965z" fill="#9D9D9D"/>
</svg>