<svg width="20" height="20" viewBox="0 0 20 20" fill="none" xmlns="http://www.w3.org/2000/svg">
<path d="M13.1506 7.92199C14.4766 6.71305 16.2698 5.07801 16.4332 1.17188H17.6172V0H2.38281V1.17188H3.56676C3.7302 5.07801 5.5234 6.71305 6.84941 7.92199C7.73891 8.73297 8.24219 9.22934 8.24219 10C8.24219 10.7707 7.73891 11.267 6.84941 12.078C5.5234 13.287 3.7302 14.922 3.56676 18.8281H2.38281V20H17.6172V18.8281H16.4332C16.2698 14.922 14.4766 13.287 13.1506 12.078C12.2611 11.267 11.7578 10.7707 11.7578 10C11.7578 9.22934 12.2611 8.73297 13.1506 7.92199ZM9.41406 14.3921C9.23309 14.4295 9.0543 14.4838 8.8798 14.556L5.29086 16.0411C5.87695 14.5509 6.82094 13.6898 7.63895 12.944C8.55184 12.1117 9.41406 11.3256 9.41406 10H10L9.41406 14.3921ZM12.3611 12.944C13.1791 13.6898 14.123 14.5509 14.7091 16.0411L11.1202 14.5559C10.9457 14.4837 10.7669 14.4294 10.5859 14.3921L10 10H10.5859C10.5859 11.3256 11.4482 12.1117 12.3611 12.944ZM9 9C8 7.92199 5 5.91226 4.74008 1.17188H15.2599C15 5.91226 11.7578 7.92199 11.1202 9H9Z" fill="#FFB967"/>
</svg>
