<svg width="18" height="22" viewBox="0 0 18 22" fill="none" xmlns="http://www.w3.org/2000/svg">
<path d="M14.5658 7.26464L13.8619 7.33789L11.9262 7.53927L11.3983 7.59419L4.53543 8.30822L4.22776 5.62764C3.997 3.61723 5.58363 1.92632 7.51931 1.72492C9.10303 1.56014 10.431 2.26967 11.1127 3.55504C11.3464 4.03934 11.756 4.50531 12.2839 4.45039C12.8118 4.39546 13.2821 3.83794 13.2244 3.33534C13.1859 3.00026 12.9907 2.85102 12.9907 2.85102C11.8801 0.932138 9.79059 -0.206755 7.50297 0.0312527C4.14031 0.211575 1.94594 2.81339 2.29208 5.82904L2.59976 8.50961L1.89588 8.58284C0.664082 8.71101 -0.119622 9.64024 0.0149896 10.813L1.09187 20.1951C1.22648 21.3677 2.20249 22.1138 3.43427 21.9857L16.1042 20.6675C17.336 20.5394 18.1197 19.6101 17.985 18.4374L16.9082 9.05538C16.7736 7.88264 15.7975 7.13649 14.5658 7.26464ZM9.8991 14.7012L10.1299 16.7117C10.1876 17.2142 9.87407 17.5858 9.34617 17.6408C8.81825 17.6957 8.42785 17.3973 8.37016 16.8947L8.1394 14.8843C7.39706 14.6224 6.98742 14.1564 6.9105 13.4863C6.79512 12.4811 7.57882 11.5519 8.63464 11.442C9.69047 11.3322 10.6665 12.0783 10.7819 13.0835C10.8588 13.7536 10.5645 14.2929 9.8991 14.7012Z" fill="white"/>
</svg>
