<svg width="48" height="48" viewBox="0 0 48 48" fill="none" xmlns="http://www.w3.org/2000/svg">
  <circle cx="24" cy="24" r="24" fill="currentColor"/>
  <path d="M17 19a2 2 0 1 0 0-4 2 2 0 0 0 0 4ZM24 19a2 2 0 1 0 0-4 2 2 0 0 0 0 4ZM31 19a2 2 0 1 0 0-4 2 2 0 0 0 0 4ZM17 26a2 2 0 1 0 0-4 2 2 0 0 0 0 4ZM24 26a2 2 0 1 0 0-4 2 2 0 0 0 0 4ZM31 26a2 2 0 1 0 0-4 2 2 0 0 0 0 4ZM17 33a2 2 0 1 0 0-4 2 2 0 0 0 0 4ZM24 33a2 2 0 1 0 0-4 2 2 0 0 0 0 4ZM31 33a2 2 0 1 0 0-4 2 2 0 0 0 0 4Z" fill="#07C0B0"/>
</svg>