<svg width="48" height="48" viewBox="0 0 48 48" fill="none" xmlns="http://www.w3.org/2000/svg">
    <circle cx="24" cy="24" r="24" fill="currentColor"/>
    <path d="M17 19C18.1045 19 19 18.1045 19 17C19 15.8954 18.1045 15 17 15C15.8954 15 15 15.8954 15 17C15 18.1045 15.8954 19 17 19Z" fill="#C0FFF9"/>
    <path d="M24 19C25.1046 19 26 18.1045 26 17C26 15.8954 25.1046 15 24 15C22.8955 15 22 15.8954 22 17C22 18.1045 22.8955 19 24 19Z" fill="#C0FFF9"/>
    <path d="M31 19C32.1045 19 33 18.1045 33 17C33 15.8954 32.1045 15 31 15C29.8954 15 29 15.8954 29 17C29 18.1045 29.8954 19 31 19Z" fill="#C0FFF9"/>
    <path d="M17 26C18.1045 26 19 25.1046 19 24C19 22.8955 18.1045 22 17 22C15.8954 22 15 22.8955 15 24C15 25.1046 15.8954 26 17 26Z" fill="#C0FFF9"/>
    <path d="M24 26C25.1046 26 26 25.1046 26 24C26 22.8955 25.1046 22 24 22C22.8955 22 22 22.8955 22 24C22 25.1046 22.8955 26 24 26Z" fill="#C0FFF9"/>
    <path d="M31 26C32.1045 26 33 25.1046 33 24C33 22.8955 32.1045 22 31 22C29.8954 22 29 22.8955 29 24C29 25.1046 29.8954 26 31 26Z" fill="#C0FFF9"/>
    <path d="M17 33C18.1045 33 19 32.1045 19 31C19 29.8954 18.1045 29 17 29C15.8954 29 15 29.8954 15 31C15 32.1045 15.8954 33 17 33Z" fill="#C0FFF9"/>
    <path d="M24 33C25.1046 33 26 32.1045 26 31C26 29.8954 25.1046 29 24 29C22.8955 29 22 29.8954 22 31C22 32.1045 22.8955 33 24 33Z" fill="#C0FFF9"/>
    <path d="M31 33C32.1045 33 33 32.1045 33 31C33 29.8954 32.1045 29 31 29C29.8954 29 29 29.8954 29 31C29 32.1045 29.8954 33 31 33Z" fill="#C0FFF9"/>
</svg>
