<svg width="234" height="268" viewBox="0 0 234 268" fill="none" xmlns="http://www.w3.org/2000/svg">
<rect x="0.766259" y="97.2567" width="3.63466" height="10.2587" rx="0.780323" stroke="#CCCDC9" stroke-width="0.520216"/>
<rect x="17.297" y="86.788" width="7.94698" height="10.7456" rx="0.780323" stroke="#CCCDC9" stroke-width="0.520216"/>
<rect x="27.359" y="86.788" width="7.94698" height="10.7456" rx="0.780323" stroke="#CCCDC9" stroke-width="0.520216"/>
<rect x="2.50537" y="88.5349" width="229.907" height="178.161" rx="9.66442" stroke="#D0D0D0" stroke-width="2"/>
<rect x="8.19302" y="94.0917" width="218.532" height="166.561" rx="3.3814" stroke="#D8D8D2" stroke-width="0.520216"/>
<path fill-rule="evenodd" clip-rule="evenodd" d="M5.21888 178.589C4.75578 178.589 4.38037 178.208 4.38037 177.737C4.38037 177.267 4.75578 176.885 5.21888 176.885C5.68197 176.885 6.05738 177.267 6.05738 177.737C6.05738 178.208 5.68197 178.589 5.21888 178.589Z" fill="#E6E6E1"/>
<rect x="89.4473" y="257.4" width="57.4975" height="1.2173" rx="0.608652" fill="#CCCCCC"/>
<path fill-rule="evenodd" clip-rule="evenodd" d="M149.621 162.049L147.155 160.542L146.359 160.056L145.997 160.939L145.706 161.649C144.549 164.476 142.248 166.231 139.703 166.231C137.157 166.231 134.856 164.476 133.699 161.65L133.408 160.939L133.047 160.056L132.251 160.542L129.785 162.049L129.169 162.425L129.449 163.107L129.74 163.818C131.626 168.425 135.443 171.288 139.703 171.288C143.962 171.288 147.779 168.425 149.665 163.817L149.957 163.107L150.237 162.425L149.621 162.049ZM103.749 160.542L102.953 160.056L102.591 160.939L102.3 161.649C101.143 164.476 98.8427 166.231 96.2966 166.231C93.7506 166.231 91.4504 164.476 90.2934 161.65L90.0021 160.939L89.6411 160.056L88.8451 160.542L86.3786 162.049L85.7632 162.425L86.0427 163.107L86.3336 163.818C88.2196 168.425 92.037 171.288 96.2966 171.288C100.556 171.288 104.373 168.425 106.259 163.817L106.551 163.107L106.831 162.425L106.215 162.049L103.749 160.542Z" fill="#E8E8E8"/>
<path opacity="0.8" fill-rule="evenodd" clip-rule="evenodd" d="M177.869 74.038V76.752H166.816V74.626L173.126 67.298H166.977V64.584H177.662V66.7099L171.353 74.038H177.869Z" fill="#E8E8E8"/>
<path fill-rule="evenodd" clip-rule="evenodd" d="M172.342 118.966V121.68H161.289V119.554L167.599 112.226H161.45V109.512H172.136V111.638L165.826 118.966H172.342Z" fill="#E8E8E8"/>
<path opacity="0.4" fill-rule="evenodd" clip-rule="evenodd" d="M165.893 43.8643L165.895 48.664L147.475 48.672L147.474 44.9122L157.983 31.9471L147.737 31.9513L147.736 27.1512L165.543 27.144L165.544 30.9035L155.034 43.869L165.893 43.8643Z" fill="#E8E8E8"/>
<path opacity="0.4" fill-rule="evenodd" clip-rule="evenodd" d="M196.287 16.7203L196.289 21.52L177.87 21.528L177.868 17.7682L188.378 4.80306L178.132 4.80728L178.13 0.0071656L195.937 0L195.939 3.75941L185.428 16.7249L196.287 16.7203Z" fill="#E8E8E8"/>
<path fill-rule="evenodd" clip-rule="evenodd" d="M118.921 185.328C116.886 185.328 115.237 187.005 115.237 189.072C115.237 191.14 116.886 192.816 118.921 192.816C120.956 192.816 122.605 191.14 122.605 189.072C122.605 187.005 120.956 185.328 118.921 185.328Z" fill="#E8E8E8"/>
</svg>
