<svg width="13" height="13" viewBox="0 0 13 13" fill="none" xmlns="http://www.w3.org/2000/svg">
<path transform="rotate(-7deg)" d="M8.53333 5.79999H1.06667C0.477563 5.79999 0 6.33725 0 6.99999V11.8C0 12.4627 0.477563 13 1.06667 13H8.53333C9.12244 13 9.6 12.4627 9.6 11.8V6.99999C9.6 6.33725 9.12244 5.79999 8.53333 5.79999Z" fill="#C63123"/>
<path transform="rotate(-7deg)" d="M7.04178 4C7.04178 4.27614 7.26563 4.5 7.54178 4.5C7.81792 4.5 8.04178 4.27614 8.04178 4H7.04178ZM7.04178 3.74286V4H8.04178V3.74286H7.04178ZM2.55606 6.33329V3.74286H1.55606V6.33329H2.55606ZM4.79892 1.5C6.03761 1.5 7.04178 2.50416 7.04178 3.74286H8.04178C8.04178 1.95188 6.5899 0.5 4.79892 0.5V1.5ZM4.79892 0.5C3.00794 0.5 1.55606 1.95188 1.55606 3.74286H2.55606C2.55606 2.50416 3.56022 1.5 4.79892 1.5V0.5Z" fill="#C63123"/>
<circle transform="rotate(-7deg)" cx="4.80001" cy="9.4" r="1.2" />
</svg>
