<svg width="161" height="32" viewBox="0 0 161 32" fill="none" xmlns="http://www.w3.org/2000/svg">
<rect x="0.75" y="0.81488" width="31" height="30.3703" rx="6.88235" fill="#04C0B2"/>
<path d="M18.4605 5.57622C18.8691 5.18228 19.5249 5.18283 19.9328 5.57747L24.4557 9.95325L19.9328 14.329C19.5249 14.7237 18.8691 14.7242 18.4605 14.3303C18.044 13.9288 18.0429 13.2713 18.4579 12.8684L20.3068 11.0733H10.4632C9.99122 11.0733 9.60865 11.4559 9.60865 11.9278V21.6009C9.60865 22.0729 9.99122 22.4555 10.4632 22.4555H21.9905C22.6219 22.4555 23.1337 22.9569 23.1337 23.5755C23.1337 24.1941 22.6219 24.6956 21.9905 24.6956H9.84868C8.43288 24.6956 7.28516 23.5478 7.28516 22.132V11.3967C7.28516 9.98093 8.43289 8.8332 9.84868 8.8332L20.3068 8.8332L18.4579 7.03811C18.0429 6.6352 18.044 5.97771 18.4605 5.57622Z" fill="white"/>
<path d="M49.25 9.03488V22.8149H47.35V10.6549H41.65V22.8149H39.75V9.03488H49.25ZM58.1861 12.0349C59.5328 12.0349 60.5194 12.5149 61.1461 13.4749C61.7728 14.4349 62.0861 15.7882 62.0861 17.5349C62.0861 19.1882 61.7261 20.5215 61.0061 21.5349C60.2861 22.5482 59.2661 23.0549 57.9461 23.0549C56.7728 23.0549 55.8528 22.6549 55.1861 21.8549V26.8549L53.3461 27.0749V12.2749H54.9261L55.0661 13.6949C55.4528 13.1615 55.9194 12.7549 56.4661 12.4749C57.0128 12.1815 57.5861 12.0349 58.1861 12.0349ZM57.5061 21.5549C59.2394 21.5549 60.1061 20.2149 60.1061 17.5349C60.1061 14.8415 59.3128 13.4949 57.7261 13.4949C57.2061 13.4949 56.7328 13.6482 56.3061 13.9549C55.8794 14.2615 55.5061 14.6549 55.1861 15.1349V20.2749C55.4528 20.6882 55.7861 21.0082 56.1861 21.2349C56.5861 21.4482 57.0261 21.5549 57.5061 21.5549ZM69.3811 12.0349C70.8611 12.0349 72.0078 12.5282 72.8211 13.5149C73.6478 14.5015 74.0611 15.8415 74.0611 17.5349C74.0611 18.6282 73.8744 19.5949 73.5011 20.4349C73.1278 21.2615 72.5878 21.9082 71.8811 22.3749C71.1744 22.8282 70.3344 23.0549 69.3611 23.0549C67.8811 23.0549 66.7278 22.5615 65.9011 21.5749C65.0744 20.5882 64.6611 19.2482 64.6611 17.5549C64.6611 16.4615 64.8478 15.5015 65.2211 14.6749C65.5944 13.8349 66.1344 13.1882 66.8411 12.7349C67.5478 12.2682 68.3944 12.0349 69.3811 12.0349ZM69.3811 13.5149C67.5544 13.5149 66.6411 14.8615 66.6411 17.5549C66.6411 20.2349 67.5478 21.5749 69.3611 21.5749C71.1744 21.5749 72.0811 20.2282 72.0811 17.5349C72.0811 14.8549 71.1811 13.5149 69.3811 13.5149ZM83.4608 22.8149V13.7749H79.1408V22.8149H77.3008V12.2749H85.3008V22.8149H83.4608ZM93.5177 22.8749C93.1043 24.1015 92.5243 25.0682 91.7777 25.7749C91.0443 26.4949 89.991 26.9282 88.6177 27.0749L88.4177 25.6349C89.111 25.5149 89.6643 25.3415 90.0777 25.1149C90.491 24.8882 90.8177 24.5949 91.0577 24.2349C91.311 23.8882 91.5443 23.4149 91.7577 22.8149H91.1377L87.5977 12.2749H89.5577L92.3777 21.4749L95.1377 12.2749H97.0377L93.5177 22.8749ZM103.103 12.0349C103.73 12.0349 104.303 12.1282 104.823 12.3149C105.343 12.4882 105.843 12.7749 106.323 13.1749L105.443 14.3349C105.07 14.0682 104.703 13.8749 104.343 13.7549C103.997 13.6215 103.61 13.5549 103.183 13.5549C102.33 13.5549 101.663 13.8949 101.183 14.5749C100.717 15.2549 100.483 16.2615 100.483 17.5949C100.483 18.9282 100.717 19.9149 101.183 20.5549C101.65 21.1815 102.317 21.4949 103.183 21.4949C103.597 21.4949 103.977 21.4349 104.323 21.3149C104.67 21.1815 105.057 20.9749 105.483 20.6949L106.323 21.8949C105.363 22.6682 104.29 23.0549 103.103 23.0549C101.677 23.0549 100.55 22.5749 99.7233 21.6149C98.9099 20.6549 98.5033 19.3282 98.5033 17.6349C98.5033 16.5149 98.6899 15.5349 99.0633 14.6949C99.4366 13.8549 99.9633 13.2015 100.643 12.7349C101.337 12.2682 102.157 12.0349 103.103 12.0349ZM116.914 12.2749L113.714 17.1549L117.294 22.8149H115.114L112.194 17.9549H110.854V22.8149H109.014V12.2749H110.854V16.5149H112.234L114.894 12.2749H116.914ZM126.392 20.3549C126.392 20.7815 126.466 21.1015 126.612 21.3149C126.759 21.5149 126.979 21.6682 127.272 21.7749L126.852 23.0549C126.306 22.9882 125.866 22.8349 125.532 22.5949C125.199 22.3549 124.952 21.9815 124.792 21.4749C124.086 22.5282 123.039 23.0549 121.652 23.0549C120.612 23.0549 119.792 22.7615 119.192 22.1749C118.592 21.5882 118.292 20.8215 118.292 19.8749C118.292 18.7549 118.692 17.8949 119.492 17.2949C120.306 16.6949 121.452 16.3949 122.932 16.3949H124.552V15.6149C124.552 14.8682 124.372 14.3349 124.012 14.0149C123.652 13.6949 123.099 13.5349 122.352 13.5349C121.579 13.5349 120.632 13.7215 119.512 14.0949L119.052 12.7549C120.359 12.2749 121.572 12.0349 122.692 12.0349C123.932 12.0349 124.859 12.3415 125.472 12.9549C126.086 13.5549 126.392 14.4149 126.392 15.5349V20.3549ZM122.072 21.6749C123.126 21.6749 123.952 21.1282 124.552 20.0349V17.6149H123.172C121.226 17.6149 120.252 18.3349 120.252 19.7749C120.252 20.4015 120.406 20.8749 120.712 21.1949C121.019 21.5149 121.472 21.6749 122.072 21.6749ZM137.1 12.2749L136.88 13.7749H133.5V22.8149H131.66V13.7749H128.18V12.2749H137.1ZM142.656 12.0349C144.136 12.0349 145.283 12.5282 146.096 13.5149C146.923 14.5015 147.336 15.8415 147.336 17.5349C147.336 18.6282 147.149 19.5949 146.776 20.4349C146.403 21.2615 145.863 21.9082 145.156 22.3749C144.449 22.8282 143.609 23.0549 142.636 23.0549C141.156 23.0549 140.003 22.5615 139.176 21.5749C138.349 20.5882 137.936 19.2482 137.936 17.5549C137.936 16.4615 138.123 15.5015 138.496 14.6749C138.869 13.8349 139.409 13.1882 140.116 12.7349C140.823 12.2682 141.669 12.0349 142.656 12.0349ZM142.656 13.5149C140.829 13.5149 139.916 14.8615 139.916 17.5549C139.916 20.2349 140.823 21.5749 142.636 21.5749C144.449 21.5749 145.356 20.2282 145.356 17.5349C145.356 14.8549 144.456 13.5149 142.656 13.5149ZM155.416 12.0349C156.762 12.0349 157.749 12.5149 158.376 13.4749C159.002 14.4349 159.316 15.7882 159.316 17.5349C159.316 19.1882 158.956 20.5215 158.236 21.5349C157.516 22.5482 156.496 23.0549 155.176 23.0549C154.002 23.0549 153.082 22.6549 152.416 21.8549V26.8549L150.576 27.0749V12.2749H152.156L152.296 13.6949C152.682 13.1615 153.149 12.7549 153.696 12.4749C154.242 12.1815 154.816 12.0349 155.416 12.0349ZM154.736 21.5549C156.469 21.5549 157.336 20.2149 157.336 17.5349C157.336 14.8415 156.542 13.4949 154.956 13.4949C154.436 13.4949 153.962 13.6482 153.536 13.9549C153.109 14.2615 152.736 14.6549 152.416 15.1349V20.2749C152.682 20.6882 153.016 21.0082 153.416 21.2349C153.816 21.4482 154.256 21.5549 154.736 21.5549Z" fill="#1B312F"/>
</svg>
