<svg width="290" height="252" viewBox="0 0 290 252" fill="none" xmlns="http://www.w3.org/2000/svg">
<g clip-path="url(#clip0_752_38)">
<path d="M103.963 73.2172L60.637 87.9105C60.3793 87.9951 60.1022 88.0003 59.8415 87.9255C59.5808 87.8507 59.3487 87.6993 59.1751 87.4909C59.0015 87.2825 58.8945 87.0268 58.868 86.7569C58.8416 86.487 58.8968 86.2153 59.0265 85.9772L69.7933 66.6187C69.9456 66.3468 70.1871 66.1357 70.477 66.0213C70.7669 65.9068 71.0874 65.8959 71.3844 65.9904L78.0931 68.1499L82.1028 62.3499C82.2812 62.0944 82.5424 61.9083 82.8421 61.8231C83.1419 61.7379 83.4619 61.7587 83.7481 61.882L104.067 70.6981C104.315 70.8085 104.524 70.9907 104.666 71.221C104.809 71.4514 104.879 71.7194 104.868 71.9902C104.857 72.261 104.765 72.5221 104.603 72.7399C104.442 72.9576 104.219 73.1219 103.963 73.2114V73.2172ZM63.0827 84.2372L99.787 71.7904L83.69 64.7994L79.7403 70.5047C79.5751 70.742 79.3382 70.9202 79.0644 71.013C78.7906 71.1059 78.4942 71.1087 78.2188 71.0209L71.6125 68.8942L63.0827 84.2372Z" fill="#9DE0E4"/>
<path d="M60.637 87.9063C60.2983 88.0195 59.9286 87.9942 59.6084 87.8359C59.2883 87.6777 59.0437 87.3993 58.9279 87.0615L50.2415 61.4429C50.1632 61.2065 50.1516 60.953 50.2081 60.7104C50.2646 60.4679 50.3869 60.2456 50.5617 60.0681C50.7364 59.8906 50.9566 59.7647 51.1983 59.7044C51.4399 59.644 51.6936 59.6516 51.9312 59.7261L71.3844 65.9901C71.5735 66.0512 71.7469 66.1532 71.8922 66.2889C72.0374 66.4246 72.151 66.5907 72.2248 66.7752C72.2987 66.9598 72.3309 67.1584 72.3193 67.3568C72.3077 67.5553 72.2526 67.7487 72.1577 67.9234L61.3833 87.2838C61.2202 87.5766 60.9542 87.7984 60.637 87.9063ZM53.6557 63.1133L60.5055 83.3166L68.9948 68.053L53.6557 63.1133Z" fill="#9DE0E4"/>
<path d="M103.963 73.2177C103.647 73.3238 103.303 73.3093 102.996 73.1771L82.6771 64.3611C82.4941 64.2819 82.3309 64.1632 82.1991 64.0135C82.0673 63.8638 81.9703 63.6869 81.9149 63.4953C81.8595 63.3037 81.8471 63.1023 81.8786 62.9054C81.9101 62.7085 81.9847 62.5209 82.0971 62.3562L93.73 45.5537C93.8732 45.3499 94.0699 45.1895 94.2984 45.0904C94.527 44.9912 94.7784 44.957 95.0251 44.9916C95.2718 45.0262 95.5041 45.1282 95.6966 45.2864C95.889 45.4446 96.034 45.6528 96.1157 45.8881L104.802 71.5067C104.916 71.8457 104.891 72.2159 104.733 72.5365C104.574 72.857 104.296 73.102 103.957 73.2177H103.963ZM85.2601 62.5418L101.284 69.4922L94.4337 49.2908L85.2601 62.5418Z" fill="#9DE0E4"/>
<path d="M79.0732 71.0173C78.7988 71.1075 78.5028 71.1075 78.2284 71.0173L51.1057 62.2864C50.8383 62.1968 50.6057 62.026 50.4402 61.7978C50.2747 61.5695 50.1845 61.2953 50.1824 61.0134C50.1803 60.7315 50.2662 60.456 50.4283 60.2253C50.5903 59.9946 50.8204 59.8203 51.0863 59.7267L94.4104 45.0333C94.679 44.9438 94.9689 44.9407 95.2393 45.0246C95.5098 45.1085 95.7471 45.2751 95.9178 45.501C96.0886 45.7268 96.1842 46.0005 96.1913 46.2836C96.1983 46.5666 96.1164 46.8447 95.9571 47.0788L79.7441 70.4972C79.582 70.7381 79.3469 70.9204 79.0732 71.0173ZM55.8152 60.9775L78.093 68.1502L91.4137 48.9077L55.8152 60.9775Z" fill="#9DE0E4"/>
<path d="M100.189 222.836L54.4329 245.538C54.1605 245.672 53.8537 245.722 53.5528 245.679C53.2519 245.636 52.971 245.503 52.747 245.298C52.523 245.092 52.3664 244.824 52.2977 244.528C52.2291 244.232 52.2516 243.922 52.3623 243.639L61.3968 220.627C61.5242 220.302 61.76 220.032 62.0643 219.862C62.3685 219.692 62.7223 219.633 63.0652 219.695L70.8083 221.087L74.3849 214.078C74.5431 213.768 74.804 213.523 75.1231 213.383C75.4422 213.244 75.7996 213.22 76.1346 213.315L99.93 220.047C100.223 220.129 100.483 220.298 100.678 220.532C100.872 220.766 100.991 221.053 101.019 221.355C101.047 221.658 100.983 221.962 100.835 222.228C100.687 222.493 100.462 222.707 100.189 222.842V222.836ZM56.5905 241.106L95.3558 221.874L76.5038 216.54L72.9813 223.442C72.8346 223.729 72.5992 223.962 72.3099 224.106C72.0206 224.25 71.6927 224.297 71.3747 224.24L63.7477 222.869L56.5905 241.106Z" fill="#9DE0E4"/>
<path d="M54.433 245.538C54.2441 245.63 54.0381 245.683 53.8279 245.692C53.5367 245.705 53.2482 245.633 52.9973 245.485C52.7464 245.336 52.544 245.118 52.4147 244.857L38.9915 217.8C38.8681 217.55 38.8164 217.271 38.8421 216.994C38.8679 216.716 38.9701 216.451 39.1374 216.229C39.3047 216.006 39.5305 215.834 39.7898 215.732C40.049 215.63 40.3315 215.601 40.6058 215.65L63.0654 219.687C63.2844 219.727 63.4919 219.814 63.6731 219.943C63.8542 220.073 64.0045 220.241 64.113 220.435C64.2215 220.629 64.2856 220.845 64.3007 221.067C64.3158 221.289 64.2815 221.512 64.2002 221.719L55.1638 244.739C55.0279 245.087 54.7674 245.372 54.433 245.538ZM43.0264 219.142L53.6114 240.478L60.7357 222.326L43.0264 219.142Z" fill="#9DE0E4"/>
<path d="M100.191 222.836C99.8563 223.001 99.4721 223.037 99.1124 222.936L75.3151 216.203C75.1017 216.142 74.9044 216.035 74.7373 215.889C74.5702 215.743 74.4375 215.562 74.3486 215.358C74.2598 215.155 74.217 214.935 74.2233 214.713C74.2296 214.491 74.2848 214.274 74.3851 214.076L84.7574 193.753C84.8842 193.504 85.0775 193.296 85.3156 193.151C85.5538 193.006 85.8275 192.93 86.1062 192.932C86.385 192.933 86.658 193.012 86.8946 193.159C87.1313 193.306 87.3224 193.517 87.4467 193.766L100.87 220.833C101.046 221.19 101.074 221.603 100.947 221.981C100.82 222.359 100.548 222.671 100.191 222.849V222.836ZM77.8999 213.805L96.6648 219.114L86.0779 197.778L77.8999 213.805Z" fill="#9DE0E4"/>
<path d="M72.3066 224.106C72.0169 224.249 71.689 224.296 71.3709 224.24L40.0702 218.614C39.7589 218.557 39.4732 218.404 39.2538 218.176C39.0343 217.948 38.8923 217.657 38.8477 217.344C38.8032 217.03 38.8585 216.711 39.0058 216.431C39.153 216.151 39.3848 215.924 39.6681 215.783L85.4243 193.082C85.7079 192.942 86.0284 192.894 86.3404 192.946C86.6525 192.999 86.9402 193.148 87.1627 193.373C87.3853 193.597 87.5313 193.887 87.5802 194.199C87.6291 194.512 87.5783 194.832 87.435 195.114L72.9775 223.441C72.8309 223.729 72.5957 223.962 72.3066 224.106ZM45.0853 216.456L70.7986 221.079L82.6867 197.813L45.0853 216.456Z" fill="#9DE0E4"/>
<path d="M247.028 189.418L200.351 169.294C200.074 169.174 199.839 168.973 199.677 168.717C199.516 168.461 199.436 168.162 199.448 167.859C199.46 167.557 199.563 167.265 199.744 167.023C199.925 166.78 200.175 166.598 200.462 166.5L223.749 158.545C224.077 158.433 224.433 158.439 224.758 158.56C225.083 158.682 225.355 158.912 225.529 159.212L229.456 165.978L237.077 164.184C237.414 164.105 237.769 164.144 238.08 164.297C238.391 164.45 238.639 164.706 238.782 165.021L248.984 187.415C249.11 187.691 249.149 187.998 249.097 188.296C249.044 188.594 248.903 188.869 248.691 189.085C248.479 189.301 248.207 189.448 247.91 189.507C247.613 189.565 247.306 189.532 247.028 189.412V189.418ZM205.104 168.08L244.648 185.13L236.567 167.388L229.06 169.155C228.747 169.229 228.419 169.2 228.124 169.073C227.829 168.946 227.583 168.727 227.422 168.449L223.555 161.777L205.104 168.08Z" fill="#9DE0E4"/>
<path d="M200.351 169.294C199.988 169.135 199.703 168.838 199.558 168.469C199.413 168.1 199.42 167.688 199.578 167.324L211.478 139.724C211.588 139.47 211.767 139.251 211.994 139.092C212.221 138.933 212.488 138.84 212.765 138.824C213.042 138.808 213.318 138.868 213.562 138.999C213.806 139.13 214.01 139.326 214.149 139.565L225.537 159.212C225.648 159.403 225.715 159.617 225.734 159.838C225.752 160.058 225.721 160.28 225.644 160.488C225.566 160.695 225.443 160.883 225.284 161.037C225.126 161.191 224.934 161.308 224.725 161.379L201.438 169.335C201.083 169.457 200.696 169.443 200.351 169.294ZM213.042 143.645L203.659 165.408L222.026 159.135L213.042 143.645Z" fill="#9DE0E4"/>
<path d="M247.028 189.419C246.685 189.272 246.41 189.003 246.254 188.665L236.06 166.269C235.968 166.067 235.923 165.848 235.926 165.626C235.929 165.405 235.982 165.187 236.079 164.988C236.177 164.79 236.317 164.615 236.49 164.477C236.664 164.339 236.865 164.241 237.081 164.19L259.183 158.984C259.453 158.921 259.735 158.933 259.998 159.021C260.262 159.109 260.495 159.268 260.674 159.48C260.852 159.693 260.968 159.951 261.008 160.226C261.048 160.5 261.011 160.78 260.901 161.035L249 188.636C248.886 188.901 248.697 189.128 248.457 189.288C248.217 189.449 247.935 189.536 247.646 189.54C247.434 189.544 247.223 189.502 247.028 189.419ZM239.54 166.686L247.587 184.345L256.969 162.58L239.54 166.686Z" fill="#9DE0E4"/>
<path d="M228.133 169.071C227.839 168.945 227.592 168.727 227.432 168.449L211.559 141.069C211.4 140.797 211.331 140.481 211.362 140.167C211.393 139.853 211.523 139.557 211.733 139.321C211.942 139.085 212.221 138.922 212.529 138.854C212.837 138.786 213.159 138.817 213.448 138.942L260.124 159.066C260.414 159.191 260.657 159.403 260.819 159.674C260.98 159.944 261.053 160.259 261.025 160.573C260.997 160.887 260.871 161.184 260.665 161.422C260.458 161.66 260.182 161.827 259.875 161.899L229.069 169.155C228.757 169.229 228.428 169.2 228.133 169.071ZM216.414 143.486L229.456 165.982L254.767 160.022L216.414 143.486Z" fill="#9DE0E4"/>
<path d="M67.8349 187.359H67.7749C67.6488 187.359 67.5278 187.309 67.4386 187.22C67.3494 187.131 67.2994 187.01 67.2994 186.883C67.2994 186.757 67.3494 186.636 67.4386 186.547C67.5278 186.458 67.6488 186.408 67.7749 186.408H67.833C69.0897 186.407 70.3453 186.333 71.5933 186.185C71.7186 186.171 71.8448 186.206 71.9439 186.284C72.0431 186.362 72.1071 186.477 72.122 186.602C72.1369 186.728 72.1014 186.854 72.0232 186.953C71.9451 187.052 71.8307 187.116 71.7054 187.131C70.4207 187.282 69.1284 187.358 67.8349 187.359ZM62.3655 186.895C62.3391 186.897 62.3126 186.897 62.2862 186.895C60.9911 186.673 59.7103 186.375 58.4505 186.002C58.3878 185.987 58.3289 185.959 58.2773 185.92C58.2257 185.881 58.1825 185.833 58.1504 185.777C58.1182 185.721 58.0978 185.659 58.0903 185.595C58.0828 185.531 58.0884 185.466 58.1068 185.404C58.1251 185.342 58.1559 185.285 58.1972 185.235C58.2384 185.186 58.2894 185.145 58.3468 185.116C58.4043 185.087 58.4671 185.069 58.5314 185.065C58.5958 185.061 58.6603 185.07 58.7211 185.091C59.9447 185.453 61.1888 185.743 62.4467 185.957C62.5656 185.976 62.6731 186.039 62.7473 186.134C62.8216 186.229 62.8571 186.348 62.8468 186.468C62.8365 186.588 62.7811 186.699 62.6918 186.78C62.6024 186.861 62.4859 186.905 62.3655 186.903V186.895ZM76.9699 186.046C76.8672 186.047 76.7672 186.014 76.6849 185.952C76.6026 185.891 76.5425 185.805 76.5136 185.706C76.4782 185.585 76.4924 185.454 76.5529 185.344C76.6134 185.233 76.7153 185.15 76.8365 185.114C78.0608 184.756 79.2629 184.325 80.4363 183.825C80.5525 183.775 80.6835 183.774 80.8006 183.821C80.9177 183.868 81.0113 183.96 81.0608 184.076C81.1103 184.192 81.1116 184.323 81.0645 184.441C81.0174 184.558 80.9256 184.651 80.8095 184.701C79.6013 185.216 78.3638 185.658 77.1033 186.027C77.06 186.04 77.0151 186.047 76.9699 186.046ZM53.5224 184.053C53.4507 184.053 53.3798 184.037 53.3155 184.005C52.1335 183.429 50.9869 182.784 49.8819 182.071C49.7758 182.003 49.7012 181.895 49.6745 181.772C49.6479 181.648 49.6714 181.519 49.7398 181.413C49.8083 181.307 49.9161 181.232 50.0395 181.206C50.163 181.179 50.292 181.202 50.3981 181.271C51.4708 181.962 52.5838 182.588 53.7312 183.146C53.8278 183.194 53.9055 183.272 53.9517 183.369C53.9979 183.466 54.0099 183.576 53.9857 183.681C53.9615 183.785 53.9024 183.879 53.8183 183.946C53.7342 184.013 53.6299 184.049 53.5224 184.049V184.053ZM85.4224 182.201C85.3196 182.201 85.2196 182.168 85.1373 182.106C85.055 182.044 84.9949 181.958 84.9659 181.859C84.9369 181.761 84.9407 181.655 84.9767 181.559C85.0126 181.463 85.0788 181.381 85.1653 181.325C86.2405 180.638 87.2735 179.887 88.2586 179.077C88.3563 178.997 88.4817 178.959 88.6074 178.971C88.733 178.984 88.8485 179.046 88.9285 179.143C89.0085 179.241 89.0464 179.366 89.0339 179.492C89.0214 179.618 88.9595 179.733 88.8618 179.813C87.8468 180.649 86.7828 181.424 85.6757 182.133C85.6001 182.179 85.5129 182.203 85.4244 182.201H85.4224ZM45.8355 178.839C45.7167 178.839 45.6021 178.795 45.5145 178.715C44.5439 177.829 43.6271 176.886 42.7692 175.89C42.7246 175.844 42.6899 175.789 42.6673 175.728C42.6447 175.668 42.6347 175.603 42.6378 175.539C42.6409 175.475 42.657 175.411 42.6853 175.353C42.7135 175.295 42.7533 175.244 42.8021 175.202C42.851 175.159 42.9079 175.128 42.9694 175.108C43.0309 175.089 43.0957 175.082 43.1599 175.088C43.2241 175.095 43.2864 175.114 43.3428 175.145C43.3993 175.177 43.4488 175.219 43.4884 175.27C44.3224 176.235 45.2127 177.151 46.1545 178.011C46.2254 178.076 46.2752 178.16 46.2973 178.254C46.3194 178.347 46.3128 178.445 46.2783 178.534C46.2438 178.624 46.183 178.701 46.104 178.755C46.025 178.809 45.9314 178.839 45.8355 178.839ZM92.4578 176.132C92.3663 176.133 92.2765 176.107 92.1993 176.058C92.1221 176.009 92.0607 175.939 92.0227 175.855C91.9847 175.772 91.9715 175.68 91.9849 175.589C91.9983 175.499 92.0377 175.414 92.0982 175.345C92.9367 174.382 93.7165 173.37 94.4337 172.314C94.5062 172.214 94.6148 172.146 94.7365 172.125C94.8582 172.103 94.9834 172.13 95.0856 172.199C95.1879 172.269 95.2592 172.375 95.2844 172.496C95.3095 172.617 95.2866 172.743 95.2205 172.847C94.4824 173.936 93.6792 174.978 92.8155 175.97C92.7717 176.022 92.7172 176.063 92.6558 176.092C92.5944 176.121 92.5275 176.136 92.4597 176.136L92.4578 176.132ZM39.9369 171.658C39.8551 171.658 39.7746 171.637 39.7032 171.597C39.6318 171.558 39.5718 171.5 39.5289 171.43C38.8487 170.307 38.2341 169.145 37.6884 167.95C37.6478 167.837 37.6514 167.713 37.6985 167.603C37.7455 167.493 37.8326 167.404 37.9421 167.355C38.0517 167.306 38.1756 167.301 38.2892 167.339C38.4028 167.378 38.4975 167.458 38.5545 167.564C39.084 168.725 39.6812 169.854 40.3429 170.945C40.3752 170.998 40.3968 171.057 40.4062 171.119C40.4156 171.181 40.4128 171.244 40.3979 171.304C40.383 171.365 40.3563 171.422 40.3193 171.472C40.2823 171.522 40.2358 171.564 40.1824 171.597C40.1089 171.641 40.0246 171.664 39.9388 171.662L39.9369 171.658ZM97.4903 168.323C97.4236 168.323 97.3578 168.308 97.2969 168.281C97.2396 168.256 97.1878 168.22 97.1445 168.174C97.1012 168.129 97.0673 168.076 97.0447 168.017C97.022 167.959 97.0111 167.897 97.0126 167.834C97.0141 167.771 97.028 167.71 97.0533 167.653C97.5838 166.492 98.0454 165.302 98.4356 164.088L98.4492 164.045C98.4877 163.925 98.5723 163.825 98.6845 163.767C98.7968 163.709 98.9273 163.698 99.0476 163.737C99.1678 163.775 99.2678 163.86 99.3257 163.972C99.3835 164.084 99.3944 164.215 99.3559 164.335L99.3424 164.378C98.9397 165.629 98.4639 166.855 97.9175 168.051C97.8801 168.133 97.8203 168.202 97.745 168.251C97.6697 168.3 97.582 168.326 97.4922 168.327L97.4903 168.323ZM36.2887 163.117C36.1839 163.117 36.082 163.083 35.9988 163.019C35.9156 162.956 35.8558 162.866 35.8285 162.765C35.4895 161.493 35.2261 160.202 35.0397 158.898C35.0294 158.836 35.0316 158.772 35.0463 158.71C35.0611 158.649 35.088 158.59 35.1254 158.539C35.1629 158.488 35.2103 158.445 35.2647 158.413C35.3191 158.38 35.3794 158.359 35.4422 158.35C35.505 158.341 35.5689 158.345 35.6302 158.361C35.6915 158.377 35.749 158.405 35.7992 158.444C35.8494 158.483 35.8914 158.531 35.9227 158.586C35.9539 158.641 35.9739 158.702 35.9813 158.765C36.1649 160.028 36.4231 161.278 36.7546 162.51C36.7707 162.57 36.7747 162.633 36.7665 162.695C36.7582 162.756 36.7379 162.816 36.7067 162.87C36.6754 162.924 36.6339 162.971 36.5844 163.009C36.5349 163.046 36.4784 163.074 36.4182 163.09C36.3772 163.106 36.3343 163.116 36.2906 163.121L36.2887 163.117ZM100.131 159.372C100.109 159.374 100.086 159.374 100.064 159.372C100.002 159.363 99.9423 159.342 99.8886 159.31C99.8349 159.278 99.788 159.236 99.7507 159.186C99.7134 159.136 99.6863 159.079 99.6709 159.018C99.6556 158.958 99.6524 158.895 99.6614 158.833C99.8443 157.57 99.9521 156.298 99.9843 155.022C99.9858 154.96 99.9996 154.898 100.025 154.841C100.05 154.784 100.087 154.732 100.132 154.689C100.177 154.646 100.23 154.612 100.289 154.59C100.347 154.567 100.409 154.557 100.471 154.558C100.534 154.56 100.595 154.573 100.653 154.599C100.71 154.624 100.761 154.66 100.804 154.706C100.847 154.751 100.881 154.804 100.904 154.862C100.926 154.921 100.937 154.983 100.935 155.045C100.902 156.359 100.791 157.67 100.601 158.97C100.585 159.083 100.529 159.186 100.443 159.26C100.357 159.335 100.247 159.376 100.133 159.376L100.131 159.372ZM35.1944 153.897H35.1867C35.1242 153.896 35.0626 153.882 35.0055 153.857C34.9483 153.832 34.8968 153.795 34.8538 153.75C34.8108 153.705 34.7772 153.651 34.7551 153.593C34.7329 153.534 34.7226 153.472 34.7246 153.41C34.7578 152.097 34.8695 150.787 35.0591 149.487C35.0773 149.362 35.1443 149.25 35.2455 149.174C35.3466 149.099 35.4736 149.067 35.5984 149.085C35.7233 149.103 35.8358 149.17 35.9112 149.271C35.9867 149.372 36.0188 149.499 36.0006 149.624C35.8164 150.887 35.7073 152.159 35.6739 153.435C35.6713 153.56 35.6199 153.678 35.5305 153.766C35.4412 153.853 35.3212 153.901 35.1963 153.901L35.1944 153.897ZM100.147 150.088C100.032 150.088 99.9221 150.047 99.8358 149.972C99.7495 149.897 99.6931 149.793 99.6769 149.68C99.4934 148.418 99.2352 147.169 98.9035 145.937C98.8862 145.877 98.8811 145.813 98.8885 145.751C98.896 145.688 98.9158 145.628 98.9468 145.573C98.9779 145.518 99.0195 145.47 99.0694 145.431C99.1192 145.392 99.1762 145.364 99.2371 145.347C99.298 145.331 99.3615 145.327 99.424 145.335C99.4865 145.344 99.5468 145.364 99.6012 145.396C99.6556 145.428 99.7031 145.471 99.741 145.521C99.7789 145.571 99.8064 145.629 99.8219 145.69C100.161 146.958 100.425 148.245 100.613 149.545C100.63 149.67 100.598 149.796 100.523 149.898C100.447 149.999 100.335 150.066 100.21 150.084L100.147 150.088ZM36.7623 144.743C36.6876 144.742 36.6141 144.724 36.5476 144.69C36.4812 144.656 36.4237 144.607 36.3797 144.546C36.3357 144.486 36.3064 144.416 36.2943 144.342C36.2822 144.269 36.2876 144.193 36.3099 144.122V144.099C36.7088 142.856 37.1808 141.638 37.7232 140.451C37.7817 140.348 37.8763 140.271 37.9886 140.234C38.1009 140.197 38.2229 140.203 38.3308 140.252C38.4387 140.3 38.5247 140.387 38.5722 140.495C38.6196 140.603 38.6251 140.725 38.5874 140.837C38.0605 141.991 37.6021 143.175 37.2147 144.383V144.404C37.1853 144.503 37.1245 144.589 37.0414 144.651C36.9584 144.712 36.8577 144.744 36.7546 144.743H36.7623ZM97.5309 141.179C97.4396 141.179 97.3502 141.153 97.2734 141.104C97.1966 141.055 97.1357 140.984 97.0978 140.901C96.568 139.74 95.9702 138.612 95.3075 137.522C95.275 137.468 95.2534 137.409 95.2438 137.347C95.2342 137.285 95.2369 137.222 95.2517 137.161C95.2665 137.101 95.2932 137.043 95.3301 136.993C95.3671 136.942 95.4136 136.9 95.467 136.867C95.5205 136.835 95.5798 136.813 95.6416 136.803C95.7034 136.794 95.7665 136.797 95.8273 136.811C95.8881 136.826 95.9453 136.853 95.9958 136.89C96.0463 136.927 96.089 136.973 96.1215 137.027C96.8027 138.15 97.4179 139.312 97.9639 140.507C97.9969 140.579 98.0113 140.659 98.0055 140.738C97.9998 140.818 97.9742 140.894 97.9311 140.961C97.888 141.028 97.8287 141.083 97.7588 141.121C97.6889 141.16 97.6105 141.179 97.5309 141.179ZM40.8223 136.391C40.727 136.391 40.6339 136.362 40.5555 136.307C40.5039 136.272 40.4597 136.228 40.4254 136.176C40.3911 136.123 40.3675 136.065 40.3558 136.004C40.3441 135.943 40.3446 135.88 40.3573 135.819C40.3701 135.758 40.3947 135.7 40.4299 135.648C41.1666 134.559 41.9684 133.516 42.8311 132.524C42.9147 132.432 43.0311 132.376 43.1554 132.368C43.2797 132.361 43.4019 132.403 43.4958 132.484C43.5898 132.566 43.6478 132.682 43.6577 132.806C43.6675 132.93 43.6282 133.053 43.5483 133.148C42.7105 134.111 41.9319 135.124 41.2167 136.182C41.1722 136.247 41.1122 136.3 41.042 136.337C40.9718 136.373 40.8937 136.392 40.8146 136.391H40.8223ZM92.5177 133.359C92.4495 133.359 92.3821 133.344 92.3201 133.316C92.258 133.288 92.2028 133.246 92.1581 133.195C91.324 132.229 90.433 131.313 89.4901 130.453C89.44 130.412 89.3988 130.362 89.3689 130.304C89.339 130.247 89.3212 130.184 89.3165 130.12C89.3117 130.055 89.3201 129.99 89.3412 129.929C89.3624 129.868 89.3958 129.812 89.4393 129.764C89.4829 129.717 89.5358 129.678 89.5947 129.651C89.6536 129.625 89.7173 129.61 89.782 129.609C89.8466 129.608 89.9108 129.62 89.9707 129.644C90.0305 129.669 90.0847 129.705 90.1301 129.751C91.1018 130.636 92.0192 131.579 92.8773 132.574C92.9184 132.621 92.9497 132.676 92.9695 132.735C92.9894 132.794 92.9973 132.857 92.9928 132.919C92.9883 132.981 92.9715 133.042 92.9434 133.097C92.9152 133.153 92.8764 133.203 92.829 133.243C92.741 133.321 92.6271 133.362 92.51 133.359H92.5177ZM47.0844 129.525C46.9864 129.525 46.8909 129.495 46.8108 129.438C46.7308 129.382 46.6701 129.302 46.6371 129.21C46.6041 129.118 46.6004 129.018 46.6265 128.923C46.6525 128.829 46.7071 128.745 46.7828 128.682C47.7969 127.846 48.8602 127.071 49.967 126.362C50.0195 126.326 50.079 126.3 50.1417 126.286C50.2045 126.273 50.2693 126.273 50.3323 126.285C50.3952 126.297 50.455 126.322 50.5081 126.359C50.5611 126.395 50.6063 126.441 50.6409 126.495C50.6755 126.549 50.6988 126.61 50.7094 126.673C50.72 126.736 50.7177 126.801 50.7026 126.863C50.6875 126.926 50.6599 126.984 50.6216 127.036C50.5832 127.087 50.5348 127.131 50.4794 127.163C49.4052 127.852 48.3723 128.603 47.386 129.413C47.2993 129.487 47.1887 129.527 47.0747 129.525H47.0844ZM85.5055 127.269C85.415 127.269 85.3265 127.243 85.2503 127.194C84.1767 126.504 83.0631 125.879 81.9153 125.322C81.8591 125.295 81.8088 125.257 81.7673 125.21C81.7257 125.163 81.6939 125.109 81.6734 125.05C81.653 124.991 81.6443 124.928 81.648 124.866C81.6517 124.803 81.6677 124.742 81.6949 124.686C81.7222 124.63 81.7603 124.58 81.807 124.538C81.8538 124.497 81.9083 124.465 81.9673 124.444C82.0264 124.424 82.0889 124.415 82.1513 124.419C82.2137 124.423 82.2748 124.438 82.331 124.466C83.5128 125.042 84.6594 125.687 85.7646 126.399C85.8513 126.455 85.9175 126.537 85.9534 126.633C85.9893 126.73 85.9929 126.835 85.9637 126.934C85.9345 127.033 85.8741 127.12 85.7914 127.181C85.7088 127.242 85.6085 127.275 85.5055 127.275V127.269ZM55.0227 124.702C54.9127 124.703 54.8057 124.666 54.7198 124.597C54.634 124.529 54.5746 124.432 54.5518 124.325C54.529 124.217 54.5442 124.105 54.5948 124.007C54.6454 123.91 54.7283 123.833 54.8294 123.789C56.0378 123.274 57.2753 122.83 58.5355 122.459C58.6552 122.428 58.7821 122.445 58.8896 122.506C58.997 122.567 59.0765 122.667 59.1111 122.786C59.1458 122.905 59.133 123.032 59.0754 123.141C59.0177 123.251 58.9198 123.333 58.8023 123.371C57.5787 123.731 56.3774 124.162 55.2044 124.663C55.1441 124.689 55.0788 124.702 55.013 124.702H55.0227ZM77.0627 123.41C77.0169 123.41 76.9713 123.404 76.9273 123.391C75.7034 123.03 74.4594 122.742 73.2018 122.527C73.0774 122.505 72.9667 122.436 72.8938 122.333C72.8209 122.23 72.7919 122.102 72.8132 121.978C72.8345 121.853 72.9043 121.742 73.0073 121.67C73.1102 121.597 73.2379 121.568 73.3623 121.589C74.6572 121.811 75.938 122.108 77.198 122.48C77.3063 122.514 77.3991 122.585 77.4596 122.681C77.5202 122.777 77.5444 122.891 77.5281 123.003C77.5118 123.115 77.4559 123.218 77.3706 123.293C77.2852 123.367 77.1761 123.409 77.0627 123.41ZM63.9953 122.3C63.8749 122.299 63.7596 122.252 63.6726 122.169C63.5856 122.085 63.5334 121.972 63.5265 121.852C63.5197 121.732 63.5586 121.613 63.6356 121.521C63.7125 121.428 63.8217 121.368 63.9411 121.353C65.2326 121.199 66.5322 121.121 67.833 121.121H67.8716C67.9977 121.121 68.1187 121.171 68.2079 121.26C68.2971 121.35 68.3472 121.471 68.3472 121.597C68.3472 121.723 68.2971 121.844 68.2079 121.933C68.1187 122.022 67.9977 122.072 67.8716 122.072H67.833C66.5697 122.073 65.3077 122.148 64.0533 122.297L63.9953 122.3Z" fill="#2C6572"/>
<path d="M215.255 229.775C215.094 229.766 214.941 229.695 214.83 229.577C214.718 229.46 214.656 229.304 214.656 229.142C214.656 228.979 214.718 228.824 214.83 228.706C214.941 228.588 215.094 228.517 215.255 228.508C216.572 228.493 217.902 228.439 219.209 228.352C219.294 228.343 219.38 228.351 219.461 228.376C219.543 228.401 219.618 228.442 219.684 228.497C219.749 228.551 219.803 228.619 219.841 228.695C219.88 228.771 219.903 228.854 219.909 228.939C219.915 229.024 219.903 229.109 219.875 229.19C219.847 229.27 219.804 229.345 219.746 229.408C219.689 229.471 219.62 229.522 219.543 229.558C219.465 229.594 219.381 229.614 219.296 229.616C217.964 229.707 216.609 229.759 215.269 229.775H215.255ZM209.67 229.622H209.628C208.292 229.533 206.942 229.406 205.616 229.235C205.533 229.225 205.453 229.199 205.381 229.158C205.309 229.116 205.245 229.061 205.194 228.996C205.09 228.863 205.044 228.695 205.065 228.528C205.086 228.361 205.172 228.209 205.305 228.106C205.437 228.002 205.606 227.956 205.772 227.977C207.074 228.137 208.4 228.265 209.713 228.352C209.875 228.364 210.027 228.439 210.136 228.561C210.245 228.683 210.303 228.842 210.297 229.005C210.292 229.169 210.224 229.324 210.107 229.438C209.99 229.552 209.833 229.617 209.67 229.618V229.622ZM224.802 229.019C224.643 229.017 224.491 228.955 224.375 228.846C224.259 228.737 224.189 228.589 224.177 228.43C224.166 228.272 224.214 228.115 224.313 227.99C224.412 227.866 224.554 227.783 224.711 227.758C226.011 227.565 227.321 227.331 228.607 227.066C228.769 227.038 228.936 227.074 229.072 227.167C229.208 227.26 229.302 227.401 229.336 227.562C229.369 227.724 229.339 227.891 229.251 228.03C229.163 228.169 229.024 228.269 228.864 228.307C227.555 228.578 226.221 228.816 224.897 229.011C224.866 229.017 224.834 229.019 224.802 229.019ZM200.181 228.334C200.138 228.335 200.094 228.33 200.052 228.321C198.743 228.052 197.422 227.741 196.131 227.395C196.047 227.377 195.967 227.342 195.897 227.292C195.827 227.243 195.768 227.179 195.723 227.106C195.678 227.033 195.648 226.951 195.636 226.866C195.624 226.781 195.629 226.694 195.651 226.611C195.673 226.528 195.712 226.45 195.765 226.383C195.818 226.315 195.884 226.259 195.96 226.218C196.035 226.177 196.118 226.151 196.204 226.143C196.29 226.135 196.376 226.145 196.458 226.171C197.726 226.509 199.021 226.815 200.309 227.08C200.462 227.112 200.598 227.2 200.69 227.326C200.783 227.452 200.825 227.609 200.809 227.764C200.794 227.92 200.721 228.065 200.605 228.17C200.489 228.275 200.338 228.334 200.181 228.334ZM234.158 226.968C234.006 226.966 233.86 226.911 233.746 226.811C233.631 226.711 233.557 226.574 233.535 226.423C233.514 226.273 233.547 226.12 233.628 225.993C233.71 225.865 233.835 225.77 233.98 225.726C235.24 225.357 236.507 224.953 237.744 224.506C237.823 224.478 237.906 224.465 237.989 224.469C238.073 224.473 238.155 224.494 238.23 224.529C238.306 224.565 238.374 224.615 238.43 224.677C238.486 224.739 238.529 224.811 238.557 224.89C238.585 224.969 238.597 225.052 238.593 225.136C238.589 225.219 238.568 225.301 238.532 225.376C238.496 225.452 238.445 225.519 238.383 225.575C238.321 225.631 238.248 225.674 238.169 225.701C236.909 226.15 235.619 226.567 234.336 226.942C234.278 226.959 234.218 226.968 234.158 226.968ZM190.955 225.761C190.883 225.761 190.811 225.749 190.743 225.724C189.48 225.276 188.214 224.787 186.979 224.267C186.843 224.19 186.74 224.066 186.689 223.918C186.639 223.771 186.645 223.61 186.706 223.466C186.767 223.323 186.879 223.207 187.02 223.14C187.161 223.074 187.322 223.062 187.472 223.107C188.684 223.617 189.927 224.099 191.168 224.539C191.309 224.589 191.427 224.688 191.503 224.817C191.578 224.946 191.606 225.097 191.58 225.245C191.555 225.392 191.478 225.525 191.364 225.622C191.25 225.718 191.105 225.771 190.955 225.771V225.761ZM243.14 223.656C242.995 223.655 242.855 223.605 242.742 223.514C242.63 223.423 242.552 223.296 242.521 223.154C242.491 223.012 242.51 222.865 242.576 222.735C242.641 222.606 242.749 222.503 242.881 222.444C244.076 221.906 245.272 221.328 246.436 220.723C246.584 220.658 246.751 220.652 246.903 220.705C247.056 220.759 247.181 220.869 247.255 221.013C247.329 221.156 247.346 221.323 247.301 221.478C247.257 221.633 247.155 221.765 247.016 221.848C245.829 222.465 244.611 223.055 243.393 223.6C243.314 223.636 243.227 223.655 243.14 223.656ZM182.161 221.943C182.059 221.943 181.959 221.918 181.869 221.871C180.68 221.255 179.493 220.595 178.342 219.913C178.267 219.872 178.201 219.817 178.148 219.75C178.094 219.683 178.055 219.607 178.032 219.524C178.01 219.442 178.004 219.356 178.015 219.271C178.026 219.187 178.054 219.105 178.098 219.032C178.141 218.958 178.199 218.894 178.268 218.844C178.337 218.793 178.415 218.757 178.498 218.737C178.582 218.718 178.668 218.715 178.752 218.73C178.836 218.745 178.916 218.776 178.988 218.822C180.119 219.493 181.285 220.141 182.453 220.746C182.579 220.812 182.679 220.917 182.737 221.047C182.796 221.176 182.81 221.321 182.776 221.459C182.742 221.597 182.664 221.719 182.552 221.807C182.44 221.895 182.303 221.943 182.161 221.943ZM251.581 219.149C251.443 219.149 251.309 219.104 251.199 219.022C251.089 218.939 251.01 218.822 250.972 218.69C250.934 218.558 250.94 218.417 250.989 218.288C251.038 218.16 251.128 218.051 251.244 217.978C252.356 217.282 253.464 216.545 254.531 215.787C254.599 215.734 254.676 215.695 254.76 215.672C254.843 215.65 254.93 215.645 255.015 215.657C255.1 215.669 255.182 215.699 255.255 215.744C255.329 215.789 255.392 215.848 255.442 215.919C255.492 215.989 255.527 216.069 255.545 216.153C255.562 216.237 255.563 216.324 255.546 216.409C255.529 216.493 255.495 216.573 255.446 216.644C255.398 216.715 255.335 216.776 255.262 216.821C254.172 217.595 253.042 218.345 251.911 219.053C251.812 219.115 251.698 219.148 251.581 219.149ZM173.973 216.953C173.842 216.954 173.714 216.913 173.608 216.837C172.515 216.064 171.431 215.252 170.383 214.418C170.314 214.368 170.256 214.304 170.212 214.231C170.168 214.157 170.14 214.076 170.129 213.991C170.117 213.906 170.123 213.82 170.146 213.738C170.169 213.656 170.208 213.579 170.261 213.512C170.314 213.445 170.38 213.389 170.455 213.349C170.53 213.308 170.613 213.283 170.698 213.275C170.783 213.267 170.869 213.276 170.95 213.302C171.032 213.328 171.107 213.371 171.172 213.427C172.2 214.244 173.265 215.043 174.338 215.801C174.452 215.877 174.538 215.988 174.583 216.117C174.628 216.246 174.63 216.387 174.589 216.517C174.548 216.648 174.466 216.761 174.355 216.841C174.244 216.921 174.11 216.963 173.973 216.961V216.953ZM259.335 213.527C259.205 213.527 259.078 213.488 258.971 213.413C258.863 213.338 258.782 213.232 258.738 213.11C258.693 212.987 258.687 212.854 258.721 212.728C258.755 212.602 258.827 212.489 258.928 212.406C259.937 211.565 260.936 210.683 261.895 209.788C262.019 209.677 262.181 209.619 262.346 209.627C262.512 209.634 262.668 209.706 262.782 209.827C262.895 209.948 262.956 210.109 262.952 210.275C262.949 210.44 262.88 210.598 262.761 210.714C261.783 211.627 260.768 212.524 259.74 213.38C259.627 213.477 259.484 213.531 259.335 213.533V213.527ZM166.535 210.905C166.375 210.905 166.22 210.845 166.102 210.735C165.136 209.823 164.169 208.87 163.237 207.903C163.127 207.78 163.07 207.62 163.076 207.455C163.082 207.291 163.152 207.135 163.271 207.021C163.39 206.908 163.549 206.845 163.714 206.846C163.878 206.847 164.036 206.912 164.154 207.027C165.062 207.976 166.008 208.912 166.969 209.809C167.061 209.896 167.125 210.009 167.153 210.133C167.181 210.257 167.171 210.386 167.124 210.504C167.077 210.622 166.996 210.724 166.891 210.795C166.786 210.867 166.662 210.905 166.535 210.905ZM266.253 206.909C266.095 206.91 265.942 206.851 265.826 206.743C265.764 206.687 265.714 206.619 265.679 206.544C265.643 206.469 265.623 206.387 265.619 206.304C265.616 206.221 265.628 206.138 265.657 206.059C265.685 205.981 265.729 205.909 265.785 205.848C266.671 204.881 267.541 203.87 268.37 202.851C268.423 202.787 268.487 202.733 268.561 202.693C268.634 202.654 268.714 202.629 268.797 202.62C268.88 202.612 268.964 202.62 269.043 202.644C269.123 202.667 269.198 202.707 269.262 202.759C269.327 202.812 269.38 202.877 269.42 202.95C269.46 203.023 269.484 203.104 269.493 203.186C269.501 203.269 269.494 203.353 269.47 203.433C269.446 203.513 269.407 203.587 269.354 203.652C268.509 204.688 267.614 205.714 266.721 206.702C266.663 206.768 266.592 206.821 266.512 206.857C266.433 206.894 266.346 206.914 266.259 206.915L266.253 206.909ZM159.993 203.911C159.899 203.911 159.806 203.89 159.721 203.849C159.636 203.809 159.561 203.75 159.502 203.677C158.657 202.64 157.832 201.567 157.047 200.485C156.996 200.417 156.959 200.341 156.938 200.259C156.918 200.177 156.913 200.092 156.926 200.009C156.938 199.926 156.967 199.846 157.011 199.774C157.055 199.702 157.113 199.639 157.181 199.59C157.249 199.54 157.326 199.505 157.408 199.486C157.491 199.466 157.576 199.464 157.659 199.478C157.742 199.492 157.821 199.522 157.892 199.567C157.964 199.612 158.025 199.671 158.073 199.74C158.847 200.804 159.655 201.867 160.484 202.876C160.561 202.969 160.609 203.082 160.624 203.201C160.638 203.32 160.619 203.441 160.567 203.55C160.516 203.658 160.434 203.75 160.333 203.814C160.231 203.878 160.113 203.911 159.993 203.911ZM272.217 199.412C272.089 199.412 271.963 199.373 271.858 199.3C271.789 199.252 271.731 199.192 271.685 199.122C271.64 199.052 271.609 198.974 271.594 198.892C271.579 198.81 271.581 198.726 271.598 198.645C271.616 198.563 271.65 198.486 271.697 198.418C272.443 197.337 273.168 196.218 273.853 195.097C273.943 194.959 274.083 194.862 274.244 194.825C274.404 194.789 274.573 194.817 274.713 194.902C274.854 194.988 274.956 195.125 274.997 195.284C275.039 195.443 275.017 195.613 274.936 195.756C274.24 196.898 273.501 198.037 272.741 199.139C272.684 199.224 272.606 199.293 272.516 199.342C272.426 199.39 272.325 199.416 272.223 199.418L272.217 199.412ZM154.473 196.102C154.365 196.102 154.258 196.074 154.163 196.021C154.068 195.968 153.989 195.891 153.932 195.798C153.236 194.658 152.563 193.478 151.935 192.303C151.864 192.156 151.853 191.987 151.904 191.831C151.954 191.676 152.063 191.546 152.207 191.469C152.352 191.392 152.52 191.373 152.677 191.417C152.835 191.461 152.969 191.565 153.052 191.706C153.671 192.866 154.33 194.026 155.015 195.137C155.102 195.281 155.129 195.453 155.089 195.617C155.05 195.78 154.947 195.921 154.804 196.009C154.704 196.069 154.59 196.101 154.473 196.102ZM277.122 191.178C277.014 191.178 276.908 191.15 276.813 191.098C276.719 191.045 276.639 190.969 276.583 190.877C276.526 190.784 276.494 190.679 276.49 190.571C276.485 190.463 276.509 190.356 276.558 190.259C277.151 189.084 277.718 187.878 278.242 186.671C278.271 186.59 278.317 186.515 278.377 186.452C278.436 186.389 278.508 186.339 278.588 186.305C278.667 186.271 278.753 186.254 278.84 186.254C278.926 186.254 279.012 186.272 279.091 186.307C279.171 186.341 279.242 186.392 279.301 186.455C279.36 186.519 279.406 186.593 279.435 186.675C279.464 186.757 279.476 186.843 279.47 186.93C279.464 187.016 279.441 187.101 279.402 187.178C278.868 188.403 278.292 189.633 277.687 190.83C277.634 190.935 277.552 191.024 277.451 191.085C277.35 191.147 277.234 191.179 277.116 191.178H277.122ZM150.06 187.611C149.936 187.61 149.815 187.573 149.711 187.505C149.608 187.436 149.528 187.338 149.48 187.224C148.946 186 148.441 184.746 147.979 183.493C147.928 183.337 147.94 183.167 148.011 183.019C148.082 182.871 148.208 182.757 148.362 182.7C148.516 182.643 148.686 182.649 148.837 182.714C148.987 182.78 149.106 182.902 149.168 183.054C149.621 184.283 150.118 185.515 150.642 186.727C150.708 186.882 150.711 187.056 150.65 187.213C150.588 187.369 150.467 187.495 150.313 187.562C150.231 187.596 150.143 187.613 150.054 187.611H150.06ZM280.84 182.346C280.739 182.346 280.64 182.321 280.551 182.275C280.461 182.229 280.384 182.162 280.326 182.08C280.267 181.998 280.229 181.903 280.214 181.804C280.199 181.704 280.208 181.603 280.241 181.507C280.666 180.264 281.06 178.994 281.414 177.728C281.46 177.565 281.567 177.428 281.714 177.346C281.861 177.263 282.034 177.242 282.196 177.288C282.358 177.333 282.496 177.441 282.578 177.588C282.661 177.734 282.681 177.908 282.636 178.07C282.274 179.357 281.872 180.651 281.439 181.917C281.397 182.042 281.316 182.151 281.208 182.228C281.101 182.305 280.972 182.346 280.84 182.346ZM146.841 178.601C146.702 178.601 146.568 178.556 146.457 178.472C146.347 178.388 146.267 178.271 146.23 178.137C145.87 176.85 145.541 175.535 145.253 174.228C145.217 174.064 145.248 173.892 145.338 173.75C145.429 173.608 145.572 173.508 145.737 173.472C145.901 173.436 146.073 173.467 146.215 173.557C146.356 173.648 146.456 173.791 146.493 173.956C146.773 175.239 147.096 176.531 147.459 177.795C147.502 177.956 147.48 178.127 147.398 178.272C147.316 178.416 147.18 178.523 147.02 178.569C146.962 178.587 146.902 178.597 146.841 178.598V178.601ZM283.313 173.093C283.272 173.093 283.231 173.089 283.191 173.082C283.109 173.066 283.031 173.034 282.962 172.988C282.893 172.943 282.833 172.883 282.786 172.814C282.74 172.745 282.707 172.668 282.691 172.586C282.674 172.505 282.674 172.421 282.69 172.339C282.941 171.05 283.158 169.737 283.336 168.434C283.366 168.275 283.457 168.133 283.589 168.038C283.721 167.944 283.884 167.903 284.045 167.925C284.206 167.947 284.352 168.03 284.453 168.157C284.555 168.283 284.604 168.444 284.591 168.606C284.411 169.932 284.19 171.27 283.933 172.581C283.905 172.725 283.828 172.854 283.714 172.947C283.601 173.04 283.459 173.09 283.313 173.089V173.093ZM144.886 169.227C144.733 169.227 144.585 169.171 144.47 169.07C144.354 168.969 144.28 168.829 144.26 168.678C144.078 167.355 143.931 166.008 143.825 164.674C143.811 164.506 143.865 164.34 143.974 164.212C144.083 164.084 144.239 164.005 144.407 163.991C144.574 163.978 144.74 164.032 144.868 164.141C144.996 164.25 145.076 164.405 145.089 164.573C145.193 165.882 145.336 167.206 145.514 168.506C145.526 168.588 145.521 168.672 145.5 168.753C145.479 168.834 145.443 168.909 145.393 168.976C145.342 169.042 145.279 169.098 145.207 169.14C145.135 169.182 145.056 169.21 144.973 169.221L144.886 169.227ZM284.492 163.593H284.455C284.288 163.583 284.131 163.508 284.019 163.383C283.907 163.258 283.849 163.094 283.858 162.926C283.931 161.617 283.968 160.285 283.968 158.97V158.833C283.968 158.665 284.035 158.504 284.153 158.385C284.271 158.265 284.432 158.198 284.6 158.197C284.768 158.198 284.929 158.264 285.048 158.383C285.167 158.502 285.234 158.663 285.234 158.831V158.97C285.234 160.31 285.196 161.663 285.122 162.996C285.113 163.155 285.043 163.306 284.927 163.417C284.811 163.527 284.658 163.59 284.498 163.593H284.492ZM144.233 159.67C144.149 159.67 144.067 159.654 143.99 159.623C143.913 159.591 143.843 159.544 143.784 159.486C143.725 159.427 143.679 159.357 143.647 159.28C143.615 159.204 143.598 159.121 143.598 159.038V158.968C143.598 157.652 143.635 156.32 143.707 155.011C143.717 154.844 143.793 154.687 143.918 154.576C144.043 154.464 144.207 154.407 144.374 154.416C144.542 154.425 144.699 154.5 144.811 154.625C144.923 154.749 144.981 154.913 144.973 155.08C144.903 156.366 144.867 157.675 144.867 158.968V159.036C144.867 159.119 144.851 159.202 144.819 159.279C144.787 159.356 144.741 159.425 144.682 159.484C144.623 159.543 144.554 159.59 144.477 159.622C144.4 159.654 144.318 159.67 144.234 159.67H144.233ZM284.372 153.87C284.213 153.87 284.061 153.81 283.944 153.703C283.827 153.596 283.754 153.448 283.74 153.29C283.634 151.979 283.491 150.655 283.311 149.356C283.297 149.194 283.346 149.033 283.448 148.907C283.549 148.78 283.696 148.697 283.857 148.675C284.017 148.653 284.181 148.693 284.312 148.788C284.444 148.883 284.535 149.024 284.565 149.184C284.749 150.506 284.896 151.852 285.004 153.188C285.018 153.355 284.964 153.521 284.855 153.649C284.747 153.777 284.592 153.856 284.424 153.87H284.372ZM144.869 150.108H144.783C144.701 150.097 144.621 150.07 144.549 150.028C144.477 149.986 144.414 149.931 144.364 149.864C144.313 149.798 144.276 149.722 144.255 149.642C144.234 149.561 144.229 149.477 144.24 149.395C144.42 148.07 144.639 146.732 144.894 145.42C144.906 145.334 144.935 145.252 144.979 145.178C145.024 145.105 145.083 145.041 145.153 144.991C145.223 144.941 145.303 144.905 145.387 144.887C145.471 144.869 145.558 144.868 145.643 144.884C145.727 144.901 145.808 144.934 145.879 144.983C145.95 145.031 146.011 145.094 146.057 145.167C146.103 145.239 146.134 145.321 146.148 145.406C146.162 145.491 146.158 145.578 146.137 145.661C145.887 146.949 145.673 148.264 145.497 149.565C145.476 149.715 145.401 149.853 145.287 149.953C145.173 150.053 145.026 150.109 144.874 150.11L144.869 150.108ZM282.953 144.401C282.809 144.4 282.669 144.35 282.556 144.26C282.444 144.169 282.366 144.043 282.334 143.902C282.05 142.62 281.727 141.329 281.368 140.064C281.341 139.983 281.331 139.897 281.338 139.812C281.346 139.726 281.37 139.643 281.411 139.568C281.451 139.492 281.506 139.426 281.573 139.372C281.639 139.318 281.716 139.279 281.799 139.256C281.881 139.232 281.968 139.226 282.053 139.237C282.137 139.248 282.219 139.277 282.293 139.32C282.367 139.364 282.431 139.422 282.481 139.491C282.532 139.56 282.568 139.639 282.588 139.722C282.949 141.008 283.28 142.322 283.568 143.629C283.604 143.793 283.574 143.965 283.484 144.107C283.393 144.249 283.251 144.349 283.086 144.385C283.045 144.395 283.002 144.401 282.959 144.403L282.953 144.401ZM146.798 140.727C146.741 140.727 146.683 140.719 146.628 140.704C146.467 140.659 146.331 140.553 146.248 140.408C146.166 140.263 146.144 140.092 146.187 139.931C146.545 138.643 146.947 137.348 147.378 136.082C147.432 135.922 147.548 135.791 147.699 135.717C147.85 135.643 148.024 135.632 148.183 135.686C148.343 135.741 148.474 135.856 148.548 136.007C148.622 136.158 148.633 136.332 148.579 136.491C148.153 137.735 147.761 139.005 147.407 140.271C147.369 140.402 147.29 140.518 147.182 140.601C147.073 140.683 146.94 140.728 146.804 140.729L146.798 140.727ZM280.252 135.212C280.123 135.212 279.996 135.173 279.889 135.099C279.783 135.025 279.702 134.92 279.657 134.798C279.202 133.57 278.704 132.337 278.18 131.136C278.122 130.984 278.125 130.816 278.188 130.666C278.251 130.516 278.37 130.397 278.518 130.331C278.667 130.266 278.835 130.261 278.988 130.316C279.141 130.371 279.267 130.482 279.34 130.628C279.873 131.851 280.38 133.106 280.844 134.357C280.902 134.515 280.895 134.69 280.825 134.842C280.755 134.995 280.626 135.114 280.469 135.173C280.401 135.199 280.33 135.212 280.258 135.214L280.252 135.212ZM150.002 131.693C149.915 131.694 149.829 131.676 149.75 131.641C149.596 131.574 149.474 131.449 149.412 131.293C149.35 131.136 149.353 130.962 149.42 130.807C149.953 129.58 150.529 128.35 151.131 127.153C151.169 127.079 151.221 127.013 151.285 126.959C151.348 126.905 151.422 126.864 151.502 126.838C151.581 126.812 151.665 126.802 151.748 126.809C151.832 126.816 151.913 126.839 151.987 126.877C152.061 126.915 152.128 126.967 152.182 127.031C152.236 127.095 152.277 127.168 152.303 127.248C152.328 127.327 152.338 127.411 152.331 127.495C152.325 127.578 152.302 127.659 152.264 127.733C151.672 128.909 151.104 130.115 150.584 131.322C150.533 131.433 150.451 131.528 150.348 131.594C150.244 131.66 150.124 131.694 150.002 131.693ZM276.328 126.488C276.213 126.488 276.1 126.457 276.001 126.398C275.903 126.339 275.822 126.255 275.767 126.154C275.148 124.994 274.487 123.844 273.803 122.724C273.755 122.653 273.722 122.573 273.705 122.489C273.689 122.405 273.69 122.318 273.708 122.235C273.726 122.151 273.761 122.072 273.811 122.002C273.861 121.932 273.924 121.873 273.997 121.828C274.07 121.783 274.151 121.754 274.236 121.742C274.321 121.729 274.408 121.734 274.49 121.756C274.573 121.778 274.651 121.816 274.718 121.869C274.786 121.922 274.842 121.988 274.883 122.063C275.581 123.204 276.254 124.383 276.884 125.555C276.924 125.628 276.949 125.708 276.957 125.791C276.965 125.874 276.957 125.958 276.933 126.038C276.909 126.117 276.87 126.192 276.817 126.256C276.764 126.321 276.699 126.374 276.625 126.413C276.534 126.464 276.432 126.492 276.328 126.492V126.488ZM154.41 123.186C154.296 123.187 154.185 123.158 154.087 123.101C153.989 123.044 153.908 122.962 153.853 122.863C153.798 122.764 153.77 122.652 153.773 122.539C153.775 122.426 153.808 122.316 153.868 122.22C154.564 121.077 155.301 119.938 156.061 118.834C156.158 118.701 156.304 118.611 156.466 118.584C156.629 118.556 156.796 118.593 156.932 118.687C157.068 118.78 157.162 118.923 157.194 119.085C157.227 119.247 157.194 119.415 157.105 119.554C156.358 120.638 155.635 121.756 154.951 122.879C154.895 122.973 154.816 123.05 154.721 123.104C154.626 123.158 154.519 123.186 154.41 123.186ZM271.241 118.386C271.141 118.386 271.042 118.363 270.952 118.317C270.863 118.272 270.786 118.206 270.727 118.125C269.953 117.063 269.143 115.998 268.312 114.991C268.208 114.86 268.159 114.694 268.177 114.528C268.194 114.362 268.277 114.209 268.406 114.104C268.535 113.998 268.701 113.948 268.867 113.964C269.034 113.979 269.187 114.06 269.294 114.189C270.141 115.225 270.968 116.298 271.753 117.379C271.852 117.515 271.893 117.684 271.866 117.85C271.84 118.017 271.748 118.165 271.612 118.264C271.506 118.342 271.378 118.384 271.247 118.384L271.241 118.386ZM159.935 115.356C159.815 115.357 159.697 115.324 159.596 115.26C159.494 115.196 159.413 115.105 159.361 114.997C159.309 114.888 159.289 114.768 159.304 114.648C159.318 114.529 159.366 114.417 159.442 114.324C160.287 113.286 161.17 112.257 162.073 111.269C162.189 111.153 162.344 111.086 162.508 111.082C162.672 111.078 162.83 111.137 162.951 111.247C163.072 111.358 163.146 111.511 163.156 111.674C163.167 111.837 163.114 111.998 163.009 112.124C162.124 113.09 161.256 114.103 160.426 115.122C160.367 115.195 160.292 115.254 160.207 115.294C160.122 115.334 160.029 115.355 159.935 115.354V115.356ZM265.099 111.039C265.013 111.04 264.929 111.023 264.85 110.99C264.771 110.956 264.7 110.907 264.641 110.846C263.732 109.897 262.783 108.963 261.822 108.068C261.702 107.952 261.632 107.794 261.628 107.628C261.623 107.462 261.684 107.301 261.798 107.179C261.911 107.057 262.068 106.985 262.234 106.978C262.4 106.97 262.562 107.028 262.686 107.14C263.664 108.05 264.629 109.001 265.555 109.968C265.642 110.057 265.7 110.17 265.723 110.293C265.746 110.415 265.732 110.542 265.684 110.656C265.635 110.771 265.553 110.869 265.449 110.937C265.345 111.005 265.223 111.042 265.099 111.041V111.039ZM166.46 108.35C166.333 108.35 166.208 108.312 166.103 108.24C165.997 108.169 165.916 108.067 165.869 107.948C165.823 107.83 165.813 107.7 165.841 107.576C165.869 107.451 165.934 107.339 166.027 107.252C166.994 106.339 168.018 105.44 169.045 104.584C169.107 104.521 169.181 104.471 169.263 104.439C169.346 104.406 169.434 104.391 169.522 104.394C169.61 104.398 169.697 104.42 169.776 104.459C169.856 104.497 169.926 104.553 169.983 104.62C170.04 104.688 170.082 104.767 170.106 104.852C170.131 104.936 170.138 105.026 170.126 105.113C170.114 105.201 170.084 105.285 170.038 105.36C169.991 105.436 169.93 105.5 169.857 105.55C168.85 106.393 167.852 107.275 166.893 108.172C166.777 108.285 166.622 108.348 166.46 108.35ZM258.007 104.588C257.867 104.586 257.731 104.538 257.621 104.45C256.592 103.633 255.525 102.834 254.452 102.078C254.318 101.98 254.228 101.833 254.201 101.669C254.175 101.505 254.213 101.337 254.309 101.202C254.405 101.066 254.55 100.973 254.713 100.943C254.877 100.913 255.045 100.949 255.183 101.042C256.275 101.815 257.362 102.625 258.409 103.457C258.512 103.538 258.587 103.649 258.624 103.775C258.661 103.901 258.658 104.035 258.615 104.159C258.573 104.283 258.493 104.39 258.387 104.467C258.281 104.544 258.154 104.586 258.023 104.588H258.007ZM173.88 102.295C173.743 102.298 173.609 102.256 173.498 102.176C173.386 102.096 173.304 101.983 173.263 101.852C173.221 101.722 173.223 101.581 173.268 101.452C173.313 101.322 173.399 101.211 173.513 101.135C174.603 100.361 175.73 99.6112 176.863 98.9017C176.934 98.8521 177.014 98.8175 177.098 98.7998C177.182 98.782 177.269 98.7817 177.353 98.7987C177.438 98.8157 177.518 98.8497 177.589 98.8987C177.66 98.9476 177.72 99.0105 177.765 99.0835C177.811 99.1564 177.842 99.2379 177.855 99.323C177.868 99.4081 177.864 99.495 177.842 99.5783C177.821 99.6617 177.783 99.7399 177.73 99.808C177.677 99.8762 177.611 99.9329 177.536 99.9747C176.424 100.673 175.317 101.411 174.249 102.169C174.145 102.247 174.019 102.291 173.888 102.295H173.88ZM250.113 99.1549C250 99.1556 249.888 99.1249 249.791 99.066C248.66 98.3971 247.494 97.7514 246.326 97.1462C246.247 97.1114 246.176 97.0606 246.117 96.9972C246.058 96.9338 246.013 96.8589 245.984 96.7774C245.955 96.6958 245.943 96.6091 245.949 96.5228C245.955 96.4364 245.978 96.3522 246.018 96.2753C246.058 96.1984 246.113 96.1304 246.179 96.0755C246.246 96.0206 246.324 95.98 246.407 95.9562C246.49 95.9324 246.577 95.9258 246.663 95.937C246.749 95.9481 246.832 95.9767 246.906 96.021C248.095 96.6358 249.282 97.2931 250.434 97.9756C250.554 98.0465 250.647 98.1546 250.699 98.2834C250.751 98.4121 250.759 98.5544 250.722 98.6883C250.686 98.8222 250.606 98.9403 250.496 99.0246C250.385 99.1089 250.25 99.1547 250.112 99.1549H250.113ZM182.049 97.3047C181.906 97.305 181.768 97.2576 181.656 97.17C181.545 97.0824 181.465 96.9598 181.431 96.8218C181.398 96.6838 181.411 96.5385 181.47 96.409C181.528 96.2796 181.629 96.1736 181.755 96.108C182.942 95.4913 184.16 94.8997 185.376 94.3525C185.53 94.2836 185.705 94.2785 185.862 94.3385C186.02 94.3986 186.147 94.5187 186.216 94.6725C186.285 94.8263 186.29 95.0013 186.23 95.1588C186.17 95.3163 186.05 95.4436 185.896 95.5125C184.701 96.05 183.504 96.63 182.34 97.2371C182.252 97.2815 182.155 97.3047 182.056 97.3047H182.049ZM241.549 94.8494C241.465 94.8497 241.382 94.8326 241.305 94.7992C240.091 94.2907 238.848 93.8093 237.607 93.3704C237.526 93.3446 237.451 93.3028 237.386 93.2475C237.322 93.1921 237.269 93.1244 237.231 93.0483C237.193 92.9721 237.171 92.8892 237.166 92.8043C237.161 92.7195 237.173 92.6345 237.201 92.5543C237.23 92.4742 237.274 92.4006 237.331 92.3379C237.389 92.2752 237.458 92.2247 237.536 92.1894C237.613 92.1541 237.696 92.1346 237.781 92.1323C237.866 92.1299 237.951 92.1446 238.03 92.1756C239.293 92.6222 240.559 93.1113 241.794 93.6314C241.929 93.6884 242.04 93.7901 242.108 93.9194C242.176 94.0486 242.197 94.1974 242.169 94.3406C242.14 94.4838 242.062 94.6127 241.949 94.7054C241.836 94.7981 241.695 94.849 241.549 94.8494ZM190.816 93.4767C190.666 93.4781 190.521 93.4262 190.405 93.3301C190.29 93.234 190.213 93.1001 190.187 92.9523C190.162 92.8045 190.19 92.6524 190.266 92.5233C190.342 92.3941 190.462 92.2962 190.604 92.2471C191.862 91.7967 193.152 91.3772 194.435 91.0021C194.516 90.9754 194.601 90.9652 194.686 90.9722C194.771 90.9791 194.853 91.0031 194.929 91.0426C195.004 91.082 195.071 91.1363 195.125 91.202C195.179 91.2678 195.219 91.3437 195.243 91.4253C195.267 91.5068 195.274 91.5924 195.264 91.6769C195.255 91.7614 195.228 91.843 195.186 91.917C195.144 91.991 195.088 92.0558 195.02 92.1075C194.953 92.1592 194.875 92.1969 194.793 92.2181C193.533 92.5874 192.266 92.9915 191.029 93.44C190.962 93.4641 190.891 93.4765 190.82 93.4767H190.816ZM232.478 91.758C232.423 91.7576 232.368 91.7505 232.315 91.7367C231.047 91.3984 229.75 91.0949 228.464 90.83C228.379 90.8169 228.298 90.7868 228.225 90.7414C228.152 90.6959 228.089 90.6362 228.04 90.5657C227.991 90.4952 227.957 90.4155 227.939 90.3314C227.922 90.2473 227.922 90.1606 227.939 90.0765C227.956 89.9924 227.99 89.9126 228.039 89.842C228.088 89.7714 228.151 89.7116 228.224 89.666C228.297 89.6204 228.378 89.59 228.463 89.5767C228.547 89.5635 228.634 89.5676 228.717 89.5888C230.028 89.8575 231.349 90.1688 232.64 90.511C232.789 90.5505 232.918 90.6428 233.004 90.7707C233.09 90.8985 233.126 91.0531 233.106 91.2058C233.086 91.3584 233.011 91.4986 232.896 91.6002C232.78 91.7018 232.632 91.7579 232.478 91.758ZM200.036 90.8861C199.879 90.8859 199.728 90.8276 199.612 90.7225C199.496 90.6175 199.422 90.473 199.406 90.3171C199.39 90.1611 199.432 90.0047 199.525 89.8781C199.617 89.7515 199.753 89.6636 199.907 89.6313C201.216 89.3587 202.55 89.121 203.874 88.9238C203.957 88.9081 204.043 88.9095 204.126 88.9277C204.209 88.9459 204.288 88.9805 204.357 89.0297C204.426 89.0788 204.485 89.1413 204.53 89.2136C204.575 89.2859 204.604 89.3664 204.617 89.4504C204.63 89.5343 204.626 89.6201 204.605 89.7024C204.584 89.7848 204.547 89.8622 204.496 89.9299C204.445 89.9976 204.38 90.0544 204.307 90.0968C204.233 90.1391 204.152 90.1663 204.067 90.1765C202.768 90.3699 201.457 90.6038 200.174 90.8725C200.131 90.8817 200.088 90.8863 200.044 90.8861H200.036ZM223.076 89.9407C223.05 89.9426 223.024 89.9426 222.998 89.9407C221.695 89.7802 220.371 89.6565 219.058 89.5695C218.973 89.5675 218.889 89.5482 218.811 89.5128C218.733 89.4774 218.663 89.4267 218.605 89.3635C218.547 89.3004 218.503 89.2263 218.475 89.1456C218.446 89.0649 218.435 88.9793 218.44 88.8939C218.446 88.8086 218.469 88.7252 218.507 88.6489C218.546 88.5726 218.6 88.5049 218.665 88.4499C218.731 88.3949 218.807 88.3537 218.889 88.3288C218.97 88.3039 219.056 88.2959 219.141 88.3051C220.477 88.3921 221.827 88.5197 223.153 88.6917C223.315 88.7096 223.464 88.789 223.569 88.9136C223.674 89.0381 223.727 89.1982 223.717 89.3608C223.707 89.5233 223.635 89.6758 223.515 89.7866C223.396 89.8975 223.239 89.9582 223.076 89.9561V89.9407ZM209.521 89.5792C209.358 89.5775 209.201 89.5128 209.085 89.3986C208.968 89.2845 208.899 89.1296 208.894 88.9663C208.888 88.8031 208.946 88.644 209.055 88.5222C209.164 88.4005 209.316 88.3254 209.479 88.3128C210.811 88.2219 212.166 88.1659 213.506 88.1485C213.674 88.1464 213.836 88.2113 213.956 88.3287C214.077 88.4462 214.146 88.6067 214.148 88.7749C214.15 88.9431 214.085 89.1052 213.967 89.2256C213.85 89.3459 213.689 89.4147 213.521 89.4167C212.205 89.4341 210.875 89.4883 209.566 89.5772L209.521 89.5792Z" fill="#2C6572"/>
<path d="M14.6488 62.5801H17.253C17.4304 62.5801 17.6005 62.6505 17.726 62.776C17.8514 62.9014 17.9219 63.0716 17.9219 63.249C17.9221 63.337 17.905 63.4242 17.8715 63.5056C17.838 63.587 17.7888 63.6609 17.7267 63.7233C17.6645 63.7856 17.5907 63.835 17.5094 63.8688C17.4281 63.9025 17.341 63.9199 17.253 63.9199H14.6488C14.5578 63.9248 14.4667 63.9111 14.3812 63.8796C14.2957 63.8482 14.2174 63.7996 14.1513 63.7369C14.0851 63.6742 14.0325 63.5987 13.9965 63.515C13.9605 63.4313 13.9419 63.3411 13.9419 63.25C13.9419 63.1588 13.9605 63.0687 13.9965 62.9849C14.0325 62.9012 14.0851 62.8257 14.1513 62.763C14.2174 62.7003 14.2957 62.6518 14.3812 62.6203C14.4667 62.5889 14.5578 62.5752 14.6488 62.5801Z" fill="#2C6572"/>
<path d="M24.3735 63.2374C24.3752 63.3271 24.3589 63.4162 24.3257 63.4995C24.2925 63.5828 24.243 63.6587 24.1802 63.7227C24.1178 63.7845 24.0439 63.8334 23.9626 63.8666C23.8813 63.8997 23.7943 63.9165 23.7065 63.916H21.1023C21.0143 63.916 20.9271 63.8986 20.8458 63.8649C20.7646 63.8312 20.6908 63.7817 20.6286 63.7194C20.5665 63.6571 20.5172 63.5831 20.4837 63.5017C20.4502 63.4203 20.4331 63.3331 20.4334 63.2451C20.4334 63.0677 20.5038 62.8976 20.6293 62.7721C20.7547 62.6467 20.9249 62.5762 21.1023 62.5762H23.691C23.8684 62.5761 24.0389 62.6451 24.1663 62.7685C24.2936 62.8919 24.368 63.0601 24.3735 63.2374Z" fill="#2C6572"/>
<path d="M19.8456 58.7235V61.3199C19.8456 61.4979 19.775 61.6685 19.6491 61.7943C19.5233 61.9201 19.3527 61.9908 19.1748 61.9908C19.0868 61.9908 18.9996 61.9734 18.9183 61.9397C18.8371 61.906 18.7633 61.8565 18.7011 61.7942C18.639 61.7319 18.5897 61.6579 18.5562 61.5765C18.5227 61.4951 18.5056 61.4079 18.5058 61.3199V58.7235C18.501 58.6325 18.5147 58.5414 18.5461 58.4559C18.5776 58.3704 18.6261 58.2922 18.6888 58.226C18.7515 58.1599 18.827 58.1072 18.9107 58.0712C18.9945 58.0352 19.0846 58.0166 19.1758 58.0166C19.2669 58.0166 19.3571 58.0352 19.4408 58.0712C19.5245 58.1072 19.6 58.1599 19.6627 58.226C19.7254 58.2922 19.7739 58.3704 19.8054 58.4559C19.8368 58.5414 19.8505 58.6325 19.8456 58.7235Z" fill="#2C6572"/>
<path d="M19.1748 64.5039C19.2628 64.5037 19.35 64.5208 19.4314 64.5543C19.5128 64.5878 19.5868 64.637 19.6491 64.6992C19.7114 64.7613 19.7609 64.8351 19.7946 64.9164C19.8284 64.9977 19.8457 65.0848 19.8457 65.1729V67.7771C19.8463 67.91 19.8074 68.04 19.7338 68.1507C19.6602 68.2614 19.5554 68.3476 19.4326 68.3984C19.3098 68.4493 19.1746 68.4624 19.0444 68.436C18.9141 68.4097 18.7946 68.3452 18.7012 68.2507C18.6393 68.1885 18.5903 68.1145 18.5572 68.0332C18.524 67.9519 18.5072 67.8649 18.5078 67.7771V65.1729C18.5078 64.9958 18.5781 64.8259 18.7031 64.7005C18.8281 64.5751 18.9977 64.5044 19.1748 64.5039Z" fill="#2C6572"/>
<path d="M44.0297 36.2578C43.4722 36.2578 42.9271 36.4231 42.4634 36.7327C41.9997 37.0423 41.6381 37.4823 41.4244 37.9973C41.2107 38.5123 41.1544 39.0791 41.2626 39.626C41.3708 40.173 41.6387 40.6756 42.0324 41.0704C42.4261 41.4652 42.928 41.7344 43.4747 41.8441C44.0213 41.9538 44.5883 41.8991 45.1038 41.6868C45.6194 41.4745 46.0605 41.1141 46.3713 40.6513C46.6822 40.1884 46.8489 39.6438 46.8505 39.0863C46.8515 38.7152 46.7793 38.3476 46.638 38.0045C46.4967 37.6613 46.289 37.3495 46.027 37.0867C45.765 36.824 45.4537 36.6155 45.1109 36.4733C44.7682 36.331 44.4008 36.2578 44.0297 36.2578ZM44.0297 40.6465C43.7195 40.6469 43.4162 40.5552 43.1581 40.3832C42.9 40.2111 42.6987 39.9664 42.5798 39.6799C42.4608 39.3934 42.4295 39.0781 42.4897 38.7738C42.55 38.4696 42.6992 38.19 42.9184 37.9705C43.1376 37.7511 43.417 37.6015 43.7212 37.5409C44.0254 37.4802 44.3407 37.5112 44.6274 37.6298C44.914 37.7484 45.1589 37.9494 45.3313 38.2073C45.5037 38.4651 45.5957 38.7684 45.5957 39.0786C45.5957 39.4941 45.4308 39.8926 45.1372 40.1866C44.8436 40.4805 44.4452 40.646 44.0297 40.6465Z" fill="#2C6572"/>
<path d="M39.8982 185.633C39.3403 185.633 38.7949 185.798 38.331 186.108C37.8671 186.418 37.5056 186.859 37.2921 187.374C37.0786 187.89 37.0228 188.457 37.1316 189.004C37.2404 189.551 37.5091 190.054 37.9036 190.448C38.298 190.843 38.8007 191.111 39.3478 191.22C39.895 191.329 40.4622 191.273 40.9776 191.06C41.493 190.846 41.9336 190.485 42.2435 190.021C42.5534 189.557 42.7189 189.011 42.7189 188.454C42.7189 187.705 42.4217 186.988 41.8927 186.459C41.3637 185.93 40.6463 185.633 39.8982 185.633ZM39.8982 190.02C39.5879 190.02 39.2845 189.928 39.0263 189.756C38.7682 189.584 38.5669 189.339 38.448 189.053C38.3291 188.766 38.2978 188.451 38.3583 188.146C38.4187 187.842 38.5681 187.562 38.7875 187.343C39.0069 187.124 39.2865 186.974 39.5908 186.914C39.8951 186.853 40.2105 186.884 40.4971 187.003C40.7837 187.122 41.0286 187.324 41.2007 187.582C41.3728 187.84 41.4645 188.143 41.4641 188.454C41.4631 188.868 41.2977 189.266 41.0042 189.559C40.7107 189.852 40.313 190.017 39.8982 190.018V190.02Z" fill="#2C6572"/>
<path d="M53.0391 160.604H54.6264C54.7344 160.604 54.8378 160.647 54.9142 160.724C54.9906 160.8 55.0338 160.903 55.0343 161.011C55.0343 161.12 54.9914 161.224 54.9149 161.301C54.8385 161.377 54.7347 161.421 54.6264 161.421H53.0391C52.983 161.425 52.9268 161.417 52.8738 161.399C52.8208 161.38 52.7723 161.35 52.7313 161.312C52.6902 161.274 52.6574 161.227 52.635 161.176C52.6126 161.124 52.6011 161.069 52.6011 161.012C52.6011 160.956 52.6126 160.901 52.635 160.849C52.6574 160.798 52.6902 160.751 52.7313 160.713C52.7723 160.674 52.8208 160.645 52.8738 160.626C52.9268 160.607 52.983 160.6 53.0391 160.604Z" fill="#2C6572"/>
<path d="M58.9666 161.006C58.9674 161.06 58.9574 161.114 58.9372 161.164C58.9171 161.214 58.8872 161.26 58.8493 161.299C58.8114 161.337 58.7661 161.368 58.7162 161.389C58.6664 161.41 58.6128 161.421 58.5586 161.421H56.9714C56.9177 161.421 56.8644 161.411 56.8148 161.39C56.7652 161.369 56.7202 161.339 56.6823 161.301C56.6444 161.263 56.6144 161.218 56.594 161.168C56.5736 161.118 56.5632 161.065 56.5635 161.011C56.5635 160.903 56.6064 160.799 56.6829 160.723C56.7594 160.646 56.8632 160.604 56.9714 160.604H58.549C58.6573 160.603 58.7615 160.645 58.8395 160.72C58.9175 160.795 58.9631 160.897 58.9666 161.006Z" fill="#2C6572"/>
<path d="M56.2058 158.253V159.84C56.2058 159.948 56.1628 160.052 56.0863 160.128C56.0098 160.205 55.9061 160.248 55.7979 160.248C55.7442 160.248 55.691 160.238 55.6414 160.217C55.5918 160.197 55.5467 160.167 55.5088 160.129C55.4709 160.091 55.4408 160.046 55.4204 159.996C55.4 159.947 55.3896 159.894 55.3899 159.84V158.253C55.3899 158.144 55.4329 158.041 55.5094 157.964C55.5859 157.888 55.6897 157.845 55.7979 157.845C55.9061 157.845 56.0098 157.888 56.0863 157.964C56.1628 158.041 56.2058 158.144 56.2058 158.253Z" fill="#2C6572"/>
<path d="M55.7979 161.777C55.9061 161.777 56.0098 161.82 56.0863 161.897C56.1628 161.973 56.2058 162.077 56.2058 162.185V163.773C56.2058 163.826 56.1952 163.879 56.1747 163.929C56.1542 163.978 56.1242 164.023 56.0863 164.061C56.0484 164.099 56.0035 164.129 55.954 164.149C55.9045 164.17 55.8514 164.181 55.7979 164.181C55.7443 164.181 55.6912 164.17 55.6417 164.149C55.5922 164.129 55.5472 164.099 55.5094 164.061C55.4715 164.023 55.4415 163.978 55.421 163.929C55.4005 163.879 55.3899 163.826 55.3899 163.773V162.185C55.3896 162.132 55.4 162.078 55.4204 162.029C55.4408 161.979 55.4709 161.934 55.5088 161.896C55.5467 161.858 55.5918 161.828 55.6414 161.808C55.691 161.787 55.7442 161.777 55.7979 161.777Z" fill="#2C6572"/>
<path d="M238.078 111.779C237.521 111.779 236.975 111.945 236.511 112.255C236.048 112.565 235.686 113.005 235.473 113.521C235.259 114.036 235.203 114.603 235.312 115.15C235.421 115.697 235.689 116.2 236.084 116.595C236.478 116.989 236.981 117.258 237.528 117.367C238.075 117.475 238.643 117.42 239.158 117.206C239.673 116.993 240.114 116.631 240.424 116.167C240.734 115.703 240.899 115.158 240.899 114.6C240.899 113.852 240.602 113.134 240.073 112.605C239.544 112.076 238.827 111.779 238.078 111.779ZM238.078 116.168C237.768 116.168 237.465 116.077 237.207 115.905C236.949 115.733 236.748 115.488 236.629 115.201C236.51 114.915 236.478 114.6 236.539 114.295C236.599 113.991 236.748 113.711 236.967 113.492C237.186 113.273 237.466 113.123 237.77 113.062C238.074 113.002 238.39 113.033 238.676 113.151C238.963 113.27 239.208 113.471 239.38 113.729C239.553 113.987 239.644 114.29 239.644 114.6C239.645 114.806 239.605 115.011 239.527 115.201C239.449 115.392 239.333 115.566 239.188 115.712C239.043 115.858 238.87 115.974 238.679 116.053C238.489 116.133 238.285 116.173 238.078 116.174V116.168Z" fill="#2C6572"/>
<path d="M249.634 133.893H251.592C251.66 133.891 251.726 133.904 251.789 133.928C251.851 133.953 251.908 133.99 251.956 134.038C252.004 134.085 252.042 134.141 252.068 134.203C252.094 134.265 252.107 134.332 252.107 134.399C252.107 134.533 252.053 134.661 251.959 134.756C251.864 134.851 251.736 134.904 251.602 134.904H249.644C249.51 134.904 249.381 134.851 249.287 134.756C249.192 134.661 249.139 134.533 249.139 134.399C249.139 134.265 249.192 134.137 249.287 134.042C249.381 133.948 249.51 133.895 249.644 133.895L249.634 133.893Z" fill="#2C6572"/>
<path d="M256.95 134.399C256.95 134.466 256.937 134.532 256.912 134.594C256.887 134.656 256.85 134.712 256.803 134.76C256.757 134.807 256.701 134.845 256.639 134.871C256.578 134.897 256.512 134.911 256.445 134.911H254.487C254.353 134.911 254.224 134.858 254.13 134.764C254.035 134.669 253.982 134.541 253.982 134.407C253.982 134.273 254.035 134.145 254.13 134.05C254.224 133.955 254.353 133.902 254.487 133.902H256.433C256.567 133.902 256.696 133.953 256.792 134.046C256.889 134.139 256.945 134.265 256.95 134.399Z" fill="#2C6572"/>
<path d="M253.543 130.993V132.951C253.543 133.017 253.531 133.083 253.505 133.144C253.48 133.205 253.443 133.261 253.396 133.307C253.35 133.354 253.294 133.391 253.233 133.416C253.172 133.441 253.107 133.454 253.04 133.454C252.974 133.454 252.909 133.441 252.848 133.416C252.786 133.391 252.731 133.354 252.684 133.307C252.637 133.261 252.6 133.205 252.574 133.144C252.549 133.083 252.536 133.018 252.536 132.951V130.993C252.532 130.924 252.541 130.855 252.565 130.79C252.588 130.726 252.625 130.666 252.672 130.616C252.719 130.566 252.776 130.526 252.839 130.498C252.902 130.471 252.971 130.457 253.04 130.457C253.108 130.457 253.177 130.471 253.24 130.498C253.303 130.526 253.36 130.566 253.407 130.616C253.454 130.666 253.491 130.726 253.514 130.79C253.538 130.855 253.547 130.924 253.543 130.993Z" fill="#2C6572"/>
<path d="M253.04 135.341C253.107 135.341 253.172 135.354 253.233 135.379C253.294 135.405 253.35 135.442 253.397 135.489C253.443 135.536 253.48 135.591 253.505 135.652C253.531 135.714 253.543 135.779 253.543 135.845V137.804C253.547 137.873 253.538 137.942 253.514 138.006C253.491 138.071 253.454 138.13 253.407 138.181C253.36 138.231 253.303 138.271 253.24 138.298C253.177 138.326 253.108 138.34 253.04 138.34C252.971 138.34 252.902 138.326 252.839 138.298C252.776 138.271 252.719 138.231 252.672 138.181C252.625 138.13 252.588 138.071 252.565 138.006C252.541 137.942 252.532 137.873 252.536 137.804V135.845C252.536 135.712 252.589 135.583 252.684 135.489C252.778 135.394 252.907 135.341 253.04 135.341Z" fill="#2C6572"/>
<path d="M229.945 246.937H231.903C231.969 246.937 232.035 246.95 232.096 246.975C232.157 247 232.213 247.038 232.259 247.084C232.306 247.131 232.343 247.187 232.368 247.248C232.393 247.309 232.406 247.375 232.406 247.441C232.406 247.574 232.353 247.702 232.259 247.797C232.164 247.891 232.037 247.944 231.903 247.944H229.945C229.845 247.944 229.748 247.914 229.665 247.859C229.582 247.804 229.517 247.725 229.479 247.633C229.441 247.541 229.431 247.44 229.45 247.342C229.469 247.244 229.517 247.154 229.587 247.083C229.682 246.989 229.811 246.936 229.945 246.937Z" fill="#2C6572"/>
<path d="M237.259 247.431C237.26 247.498 237.247 247.565 237.222 247.627C237.198 247.689 237.161 247.746 237.114 247.793C237.067 247.841 237.011 247.879 236.949 247.905C236.887 247.93 236.821 247.944 236.754 247.944H234.796C234.662 247.944 234.534 247.891 234.44 247.797C234.346 247.702 234.293 247.574 234.293 247.441C234.293 247.375 234.305 247.309 234.331 247.248C234.356 247.187 234.393 247.131 234.439 247.084C234.486 247.038 234.542 247 234.603 246.975C234.664 246.95 234.729 246.937 234.796 246.937H236.742C236.876 246.935 237.005 246.987 237.101 247.079C237.198 247.172 237.254 247.298 237.259 247.431Z" fill="#2C6572"/>
<path d="M233.854 244.035V245.993C233.854 246.127 233.801 246.256 233.706 246.35C233.612 246.445 233.483 246.498 233.35 246.498C233.283 246.498 233.218 246.485 233.156 246.46C233.095 246.434 233.04 246.397 232.993 246.35C232.946 246.303 232.909 246.248 232.883 246.186C232.858 246.125 232.845 246.06 232.845 245.993V244.035C232.845 243.901 232.898 243.773 232.993 243.678C233.087 243.583 233.216 243.53 233.35 243.53C233.483 243.53 233.612 243.583 233.706 243.678C233.801 243.773 233.854 243.901 233.854 244.035Z" fill="#2C6572"/>
<path d="M233.353 248.383C233.487 248.383 233.615 248.436 233.71 248.531C233.805 248.625 233.858 248.754 233.858 248.887V250.846C233.857 250.945 233.828 251.043 233.772 251.125C233.717 251.208 233.638 251.272 233.546 251.31C233.454 251.348 233.353 251.358 233.255 251.339C233.158 251.319 233.068 251.272 232.998 251.202C232.95 251.155 232.913 251.1 232.887 251.039C232.861 250.978 232.848 250.912 232.849 250.846V248.887C232.849 248.754 232.902 248.625 232.996 248.531C233.091 248.436 233.219 248.383 233.353 248.383Z" fill="#2C6572"/>
<path d="M200.38 1.06056e-05C199.822 -0.0015198 199.276 0.162612 198.811 0.471626C198.346 0.780641 197.983 1.22064 197.769 1.73593C197.554 2.25121 197.497 2.8186 197.605 3.36628C197.713 3.91396 197.981 4.41729 198.375 4.81255C198.769 5.20781 199.272 5.47723 199.819 5.5867C200.367 5.69617 200.934 5.64076 201.45 5.42749C201.966 5.21423 202.407 4.85269 202.717 4.38866C203.028 3.92462 203.193 3.37895 203.193 2.82074C203.193 2.07397 202.897 1.35768 202.37 0.828911C201.842 0.300142 201.127 0.00205794 200.38 1.06056e-05ZM200.38 4.38868C200.07 4.38868 199.767 4.29671 199.509 4.12443C199.251 3.95214 199.05 3.70726 198.932 3.42076C198.813 3.13426 198.782 2.819 198.842 2.51485C198.903 2.21071 199.052 1.93132 199.272 1.71204C199.491 1.49276 199.77 1.34343 200.074 1.28293C200.378 1.22243 200.694 1.25348 200.98 1.37215C201.267 1.49083 201.512 1.69179 201.684 1.94964C201.856 2.20749 201.948 2.51063 201.948 2.82074C201.948 3.23658 201.783 3.6354 201.489 3.92944C201.195 4.22349 200.796 4.38868 200.38 4.38868Z" fill="#2C6572"/>
<path d="M230.877 30.8965H232.835C232.901 30.8962 232.967 30.909 233.028 30.9342C233.089 30.9594 233.144 30.9964 233.191 31.0431C233.238 31.0899 233.275 31.1454 233.3 31.2065C233.325 31.2676 233.338 31.3331 233.338 31.3991C233.338 31.4653 233.325 31.5309 233.3 31.5921C233.275 31.6533 233.238 31.709 233.191 31.7558C233.145 31.8027 233.089 31.8399 233.028 31.8653C232.967 31.8907 232.901 31.9037 232.835 31.9037H230.877C230.808 31.908 230.739 31.8981 230.674 31.8748C230.609 31.8514 230.55 31.815 230.5 31.7678C230.45 31.7206 230.41 31.6636 230.382 31.6004C230.355 31.5372 230.341 31.469 230.341 31.4001C230.341 31.3312 230.355 31.263 230.382 31.1998C230.41 31.1366 230.45 31.0796 230.5 31.0324C230.55 30.9852 230.609 30.9488 230.674 30.9255C230.739 30.9021 230.808 30.8922 230.877 30.8965Z" fill="#2C6572"/>
<path d="M238.187 31.3915C238.188 31.4591 238.175 31.5262 238.15 31.5889C238.125 31.6517 238.087 31.7088 238.04 31.7569C237.993 31.8036 237.938 31.8406 237.877 31.8659C237.816 31.8911 237.75 31.904 237.684 31.9038H235.724C235.657 31.9038 235.592 31.8907 235.531 31.8653C235.47 31.8399 235.414 31.8028 235.368 31.7559C235.321 31.709 235.284 31.6533 235.259 31.5921C235.234 31.5309 235.221 31.4654 235.221 31.3992C235.221 31.3331 235.234 31.2676 235.259 31.2065C235.284 31.1454 235.321 31.0899 235.368 31.0432C235.414 30.9964 235.47 30.9594 235.531 30.9343C235.592 30.9091 235.658 30.8963 235.724 30.8965H237.671C237.804 30.8949 237.933 30.9459 238.03 31.0385C238.126 31.131 238.183 31.2578 238.187 31.3915Z" fill="#2C6572"/>
<path d="M234.786 27.9948V29.9533C234.786 30.0871 234.733 30.2155 234.638 30.3101C234.544 30.4047 234.415 30.4579 234.281 30.4579C234.148 30.4579 234.019 30.4047 233.925 30.3101C233.83 30.2155 233.777 30.0871 233.777 29.9533V27.9948C233.777 27.861 233.83 27.7327 233.925 27.638C234.019 27.5434 234.148 27.4902 234.281 27.4902C234.415 27.4902 234.544 27.5434 234.638 27.638C234.733 27.7327 234.786 27.861 234.786 27.9948Z" fill="#2C6572"/>
<path d="M234.281 32.3428C234.415 32.3428 234.544 32.3959 234.638 32.4906C234.733 32.5852 234.786 32.7135 234.786 32.8474V34.8058C234.786 34.9397 234.733 35.068 234.638 35.1626C234.544 35.2573 234.415 35.3104 234.281 35.3104C234.148 35.3104 234.019 35.2573 233.925 35.1626C233.83 35.068 233.777 34.9397 233.777 34.8058V32.8474C233.777 32.7135 233.83 32.5852 233.925 32.4906C234.019 32.3959 234.148 32.3428 234.281 32.3428Z" fill="#2C6572"/>
<path d="M266.821 121.113C265.494 121.113 264.17 120.998 262.862 120.771C262.8 120.76 262.741 120.738 262.689 120.704C262.636 120.671 262.59 120.627 262.554 120.576C262.519 120.525 262.493 120.467 262.479 120.406C262.466 120.345 262.464 120.282 262.475 120.22C262.486 120.159 262.509 120.1 262.542 120.047C262.576 119.994 262.619 119.949 262.671 119.913C262.722 119.877 262.78 119.851 262.841 119.838C262.902 119.824 262.965 119.823 263.026 119.834C264.279 120.052 265.548 120.162 266.819 120.162H266.887C267.013 120.162 267.134 120.212 267.223 120.302C267.313 120.391 267.363 120.512 267.363 120.638C267.363 120.764 267.313 120.885 267.223 120.974C267.134 121.063 267.013 121.113 266.887 121.113H266.821ZM272.376 120.417C272.261 120.416 272.15 120.374 272.064 120.297C271.977 120.22 271.922 120.115 271.908 120C271.894 119.886 271.922 119.77 271.986 119.675C272.051 119.58 272.148 119.511 272.26 119.482C273.514 119.163 274.738 118.736 275.918 118.206C276.032 118.161 276.159 118.162 276.272 118.208C276.385 118.254 276.477 118.343 276.526 118.455C276.576 118.567 276.581 118.693 276.54 118.809C276.498 118.924 276.414 119.019 276.304 119.074C275.074 119.627 273.798 120.072 272.49 120.404C272.453 120.413 272.414 120.417 272.376 120.417ZM257.648 119.176C257.581 119.176 257.515 119.162 257.454 119.136C256.219 118.595 255.034 117.948 253.911 117.202C253.806 117.132 253.733 117.023 253.709 116.899C253.684 116.775 253.71 116.647 253.78 116.542C253.85 116.437 253.959 116.365 254.083 116.34C254.207 116.316 254.335 116.341 254.44 116.412C255.516 117.131 256.653 117.754 257.837 118.275C257.937 118.319 258.019 118.397 258.068 118.494C258.118 118.591 258.133 118.702 258.11 118.809C258.087 118.916 258.029 119.012 257.944 119.08C257.859 119.149 257.753 119.186 257.644 119.186L257.648 119.176ZM280.848 116.253C280.749 116.253 280.653 116.222 280.572 116.165C280.492 116.107 280.432 116.026 280.399 115.933C280.367 115.84 280.365 115.739 280.392 115.644C280.42 115.549 280.476 115.466 280.554 115.404C281.571 114.605 282.517 113.718 283.38 112.754C283.465 112.66 283.583 112.603 283.709 112.596C283.835 112.589 283.959 112.633 284.053 112.717C284.147 112.801 284.204 112.92 284.211 113.046C284.218 113.172 284.174 113.296 284.09 113.39C283.189 114.394 282.201 115.318 281.14 116.151C281.057 116.217 280.955 116.253 280.85 116.253H280.848ZM249.988 113.655C249.921 113.655 249.856 113.641 249.795 113.614C249.735 113.587 249.68 113.547 249.636 113.498C248.731 112.497 247.914 111.419 247.196 110.277C247.135 110.171 247.117 110.044 247.146 109.925C247.176 109.806 247.251 109.703 247.355 109.637C247.459 109.571 247.584 109.549 247.704 109.574C247.825 109.599 247.931 109.669 248 109.771C248.69 110.868 249.473 111.903 250.342 112.864C250.403 112.933 250.442 113.017 250.456 113.108C250.471 113.199 250.458 113.291 250.421 113.375C250.383 113.459 250.323 113.53 250.246 113.581C250.169 113.631 250.08 113.658 249.988 113.659V113.655ZM286.893 109.015C286.816 109.015 286.74 108.996 286.673 108.959C286.618 108.929 286.569 108.889 286.53 108.841C286.491 108.793 286.461 108.737 286.443 108.678C286.425 108.618 286.419 108.556 286.425 108.494C286.432 108.432 286.45 108.372 286.48 108.317C287.081 107.171 287.583 105.975 287.98 104.744V104.715C287.999 104.655 288.029 104.6 288.07 104.552C288.11 104.505 288.16 104.465 288.215 104.437C288.271 104.408 288.331 104.391 288.394 104.386C288.456 104.38 288.519 104.388 288.578 104.407C288.638 104.426 288.693 104.456 288.741 104.497C288.788 104.537 288.828 104.586 288.856 104.642C288.885 104.697 288.902 104.758 288.907 104.82C288.913 104.883 288.906 104.945 288.887 105.005L288.877 105.034C288.464 106.319 287.941 107.565 287.313 108.759C287.272 108.834 287.211 108.896 287.138 108.94C287.064 108.983 286.98 109.005 286.895 109.005L286.893 109.015ZM245.241 105.504C245.142 105.503 245.044 105.472 244.963 105.413C244.883 105.354 244.822 105.272 244.791 105.177C244.369 103.895 244.059 102.58 243.865 101.245C243.847 101.12 243.879 100.993 243.954 100.892C244.03 100.79 244.142 100.723 244.267 100.705C244.392 100.687 244.519 100.719 244.62 100.795C244.721 100.87 244.788 100.982 244.806 101.107C244.992 102.388 245.289 103.65 245.694 104.879C245.733 104.999 245.723 105.129 245.666 105.242C245.609 105.354 245.51 105.439 245.39 105.479C245.343 105.492 245.293 105.497 245.243 105.494L245.241 105.504ZM289.474 99.8971H289.441C289.316 99.8881 289.199 99.8299 289.116 99.735C289.033 99.6401 288.991 99.5163 288.999 99.3905C289.032 98.9072 289.047 98.4238 289.047 97.9308C289.047 97.1248 289.003 96.3194 288.915 95.5181C288.908 95.4556 288.913 95.3923 288.93 95.3318C288.947 95.2713 288.976 95.2147 289.015 95.1655C289.054 95.1162 289.102 95.0751 289.157 95.0447C289.212 95.0143 289.273 94.995 289.335 94.9881C289.398 94.9812 289.461 94.9868 289.522 95.0045C289.582 95.0222 289.638 95.0517 289.687 95.0912C289.736 95.1308 289.776 95.1797 289.806 95.235C289.836 95.2904 289.855 95.3511 289.861 95.4136C289.952 96.2483 289.998 97.0873 289.998 97.927C289.998 98.4335 289.981 98.9458 289.948 99.4485C289.939 99.5677 289.885 99.6791 289.798 99.7607C289.71 99.8423 289.596 99.8882 289.476 99.8893L289.474 99.8971ZM244.223 96.1193H244.18C244.055 96.1062 243.94 96.0438 243.86 95.9459C243.781 95.8481 243.744 95.7227 243.757 95.5973C243.894 94.2554 244.149 92.928 244.516 91.6301C244.551 91.5086 244.632 91.4057 244.742 91.3441C244.852 91.2824 244.983 91.2671 245.104 91.3014C245.226 91.3358 245.329 91.417 245.39 91.5273C245.452 91.6375 245.467 91.7677 245.433 91.8892C245.079 93.1339 244.835 94.4069 244.702 95.694C244.69 95.8119 244.633 95.9209 244.545 95.9995C244.456 96.0782 244.341 96.1209 244.223 96.1193ZM288.109 90.5591C288.012 90.559 287.917 90.5291 287.838 90.4734C287.758 90.4178 287.698 90.339 287.665 90.2478C287.216 89.0338 286.663 87.8611 286.012 86.7427C285.955 86.6341 285.942 86.5077 285.975 86.3898C286.009 86.2719 286.088 86.1717 286.194 86.11C286.3 86.0484 286.425 86.0301 286.545 86.059C286.664 86.0879 286.767 86.1618 286.833 86.2651C287.512 87.4306 288.088 88.6525 288.556 89.9172C288.6 90.0354 288.595 90.1661 288.542 90.2807C288.49 90.3952 288.394 90.4842 288.276 90.5281C288.224 90.5446 288.171 90.5518 288.117 90.5494L288.109 90.5591ZM247.097 87.1313C247.015 87.1309 246.935 87.1089 246.864 87.0675C246.754 87.005 246.674 86.9018 246.641 86.7804C246.607 86.659 246.624 86.5293 246.686 86.4198C247.355 85.2475 248.127 84.1361 248.99 83.0983C249.071 83.0014 249.187 82.9406 249.313 82.9291C249.438 82.9177 249.563 82.9567 249.66 83.0374C249.757 83.1182 249.818 83.2341 249.829 83.3598C249.841 83.4854 249.802 83.6104 249.721 83.7073C248.893 84.7022 248.153 85.7676 247.511 86.8915C247.469 86.9615 247.409 87.0195 247.338 87.0598C247.267 87.1001 247.187 87.1214 247.105 87.1216L247.097 87.1313ZM283.077 82.5705C283.013 82.5706 282.951 82.5579 282.892 82.5333C282.834 82.5088 282.781 82.4728 282.737 82.4275C281.838 81.4941 280.859 80.6414 279.811 79.8793C279.761 79.8429 279.718 79.7968 279.685 79.7437C279.652 79.6906 279.629 79.6316 279.619 79.5699C279.609 79.5082 279.611 79.4452 279.625 79.3843C279.64 79.3235 279.666 79.266 279.702 79.2152C279.739 79.1645 279.785 79.1213 279.838 79.0884C279.891 79.0554 279.95 79.0332 280.012 79.0231C280.073 79.0129 280.136 79.015 280.197 79.0293C280.258 79.0435 280.316 79.0696 280.366 79.106C281.461 79.8983 282.486 80.7845 283.427 81.7546C283.493 81.8215 283.537 81.9063 283.555 81.9985C283.572 82.0906 283.562 82.1859 283.526 82.2723C283.489 82.3587 283.427 82.4322 283.349 82.4835C283.27 82.5349 283.178 82.5618 283.085 82.5609L283.077 82.5705ZM253.392 80.0939C253.292 80.0945 253.194 80.0631 253.112 80.0043C253.03 79.9455 252.969 79.8622 252.938 79.7666C252.906 79.671 252.906 79.5678 252.937 79.472C252.968 79.3763 253.029 79.2928 253.11 79.2336C254.2 78.4384 255.357 77.7386 256.567 77.1417C256.679 77.0927 256.806 77.0888 256.921 77.1309C257.036 77.1729 257.13 77.2577 257.184 77.3675C257.238 77.4774 257.248 77.6038 257.211 77.7206C257.174 77.8373 257.094 77.9354 256.986 77.9943C255.826 78.5666 254.717 79.238 253.673 80.0011C253.592 80.0559 253.497 80.085 253.4 80.0843L253.392 80.0939ZM275.228 77.3273C275.167 77.327 275.107 77.3152 275.052 77.2925C274.582 77.0992 274.098 76.9329 273.615 76.7763C272.868 76.5365 272.109 76.3351 271.341 76.1731C271.224 76.142 271.123 76.0669 271.059 75.9634C270.995 75.8598 270.973 75.7357 270.998 75.6166C271.022 75.4974 271.092 75.3923 271.192 75.3228C271.292 75.2534 271.415 75.2249 271.535 75.2432C272.335 75.4106 273.125 75.6203 273.903 75.8715C274.408 76.0339 274.912 76.2137 275.401 76.409C275.505 76.4495 275.591 76.5249 275.644 76.6221C275.698 76.7193 275.716 76.8322 275.695 76.9412C275.674 77.0502 275.616 77.1485 275.53 77.219C275.444 77.2895 275.337 77.3278 275.226 77.3273H275.228ZM262 76.2195C261.881 76.2208 261.767 76.178 261.678 76.0994C261.59 76.0208 261.534 75.9121 261.521 75.7945C261.509 75.6768 261.541 75.5587 261.61 75.4632C261.68 75.3677 261.783 75.3017 261.899 75.278C263.218 74.992 264.559 74.8219 265.907 74.7695C266.029 74.771 266.146 74.8193 266.233 74.9043C266.32 74.9894 266.372 75.1048 266.376 75.2267C266.381 75.3486 266.339 75.4676 266.258 75.5592C266.178 75.6508 266.065 75.7079 265.944 75.7188C264.651 75.7695 263.366 75.9332 262.102 76.2079C262.071 76.2105 262.039 76.2099 262.007 76.206L262 76.2195Z" fill="#2C6572"/>
<path d="M31.5965 147.608C30.9469 147.608 30.2916 147.587 29.642 147.546C29.5163 147.538 29.399 147.481 29.3158 147.386C29.2326 147.292 29.1903 147.168 29.1982 147.043C29.2062 146.917 29.2637 146.8 29.3582 146.717C29.4526 146.633 29.5762 146.591 29.7019 146.599C30.3302 146.638 30.9682 146.657 31.5946 146.657C32.221 146.657 32.8803 146.636 33.5183 146.597C33.5805 146.593 33.6428 146.602 33.7018 146.622C33.7608 146.642 33.8152 146.673 33.862 146.715C33.9087 146.756 33.947 146.806 33.9744 146.862C34.0018 146.918 34.018 146.979 34.0219 147.041C34.0259 147.103 34.0175 147.165 33.9973 147.224C33.9772 147.283 33.9456 147.338 33.9044 147.385C33.8632 147.431 33.8131 147.469 33.7572 147.497C33.7012 147.524 33.6404 147.541 33.5782 147.544C32.9209 147.587 32.2539 147.608 31.5965 147.608ZM24.3118 146.738C24.2739 146.739 24.2363 146.734 24.1996 146.725C23.4263 146.531 22.6665 146.325 21.9164 146.083C21.4214 145.922 20.9245 145.75 20.4393 145.567C20.327 145.518 20.2376 145.429 20.1898 145.316C20.1419 145.204 20.1392 145.077 20.1823 144.962C20.2253 144.848 20.3108 144.755 20.4209 144.701C20.5311 144.648 20.6574 144.64 20.7737 144.677C21.2455 144.853 21.7269 145.021 22.2083 145.176C22.9352 145.412 23.6815 145.621 24.422 145.801C24.5348 145.828 24.6336 145.896 24.6999 145.991C24.7661 146.087 24.7952 146.203 24.7817 146.318C24.7681 146.434 24.7129 146.54 24.6263 146.617C24.5397 146.695 24.4279 146.738 24.3118 146.738ZM38.9065 146.738C38.7892 146.74 38.6753 146.699 38.5869 146.622C38.4985 146.545 38.4419 146.437 38.4279 146.321C38.414 146.205 38.4437 146.087 38.5114 145.991C38.5791 145.896 38.6799 145.828 38.7943 145.803C40.0312 145.501 41.2484 145.123 42.4387 144.672C42.4975 144.647 42.5606 144.635 42.6241 144.636C42.6877 144.637 42.7505 144.65 42.8088 144.675C42.8671 144.701 42.9197 144.737 42.9636 144.783C43.0075 144.829 43.0416 144.884 43.0641 144.943C43.0866 145.003 43.097 145.066 43.0945 145.13C43.0921 145.193 43.077 145.256 43.05 145.313C43.0231 145.371 42.9849 145.422 42.9376 145.465C42.8904 145.507 42.8351 145.54 42.7751 145.561C41.5482 146.025 40.2936 146.413 39.0186 146.721C38.9818 146.729 38.9441 146.732 38.9065 146.731V146.738ZM15.7181 143.258C15.6331 143.258 15.5496 143.236 15.4764 143.193C14.3461 142.523 13.2587 141.784 12.2207 140.979C12.1287 140.899 12.0706 140.788 12.0584 140.667C12.0461 140.546 12.0807 140.425 12.1549 140.328C12.2292 140.232 12.3375 140.168 12.4576 140.149C12.5777 140.13 12.7004 140.158 12.8007 140.227C13.8074 141.008 14.8618 141.725 15.9578 142.375C16.0483 142.427 16.1189 142.508 16.1586 142.605C16.1983 142.702 16.2049 142.809 16.1773 142.91C16.1497 143.01 16.0895 143.099 16.0061 143.162C15.9227 143.226 15.8207 143.259 15.7162 143.258H15.7181ZM47.4905 143.233C47.3859 143.234 47.2841 143.2 47.2008 143.137C47.1175 143.073 47.0573 142.985 47.0295 142.884C47.0018 142.783 47.0081 142.676 47.0474 142.579C47.0867 142.482 47.1568 142.401 47.2469 142.348C48.3412 141.697 49.3943 140.98 50.4001 140.2C50.4487 140.156 50.5059 140.122 50.5681 140.101C50.6303 140.08 50.6962 140.072 50.7616 140.078C50.8269 140.084 50.8904 140.103 50.948 140.134C51.0056 140.166 51.0561 140.209 51.0962 140.261C51.1363 140.313 51.1653 140.372 51.1813 140.436C51.1973 140.5 51.1999 140.566 51.189 140.631C51.1781 140.695 51.1539 140.757 51.1179 140.812C51.082 140.867 51.0351 140.914 50.9801 140.95C49.943 141.755 48.857 142.495 47.7283 143.165C47.6563 143.208 47.5741 143.23 47.4905 143.229V143.233ZM8.53576 137.391C8.46935 137.391 8.40363 137.377 8.34296 137.35C8.2823 137.323 8.22805 137.284 8.18388 137.234C7.30302 136.261 6.48364 135.233 5.73049 134.158C5.68676 134.108 5.65405 134.049 5.63448 133.985C5.61492 133.922 5.60893 133.855 5.6169 133.789C5.62487 133.723 5.64663 133.659 5.68076 133.602C5.71489 133.545 5.76064 133.495 5.81505 133.457C5.86945 133.419 5.93128 133.392 5.99658 133.379C6.06187 133.366 6.12917 133.367 6.19409 133.382C6.25901 133.396 6.32012 133.425 6.37348 133.464C6.42683 133.504 6.47124 133.555 6.50382 133.613C7.23465 134.656 8.02947 135.652 8.88374 136.596C8.94553 136.664 8.98615 136.749 9.00066 136.84C9.01516 136.931 9.00294 137.024 8.96547 137.108C8.928 137.193 8.86689 137.264 8.78958 137.314C8.71226 137.364 8.62207 137.391 8.52995 137.391H8.53576ZM54.669 137.364C54.577 137.363 54.487 137.337 54.41 137.286C54.333 137.236 54.2722 137.165 54.2349 137.081C54.1977 136.996 54.1857 136.903 54.2003 136.813C54.2148 136.722 54.2554 136.637 54.3171 136.569C55.1708 135.624 55.9651 134.627 56.6951 133.584C56.7277 133.526 56.772 133.475 56.8254 133.435C56.8788 133.396 56.9399 133.367 57.0048 133.353C57.0697 133.338 57.137 133.337 57.2023 133.35C57.2676 133.363 57.3295 133.39 57.3839 133.428C57.4383 133.466 57.484 133.516 57.5182 133.573C57.5523 133.63 57.574 133.694 57.582 133.76C57.59 133.826 57.584 133.893 57.5644 133.956C57.5449 134.02 57.5121 134.079 57.4684 134.129C56.7161 135.206 55.8967 136.234 55.015 137.207C54.9712 137.255 54.9177 137.294 54.8581 137.32C54.7985 137.346 54.7341 137.36 54.669 137.36V137.364ZM3.40662 129.667C3.31618 129.667 3.22771 129.64 3.15143 129.592C3.07514 129.543 3.01414 129.474 2.97549 129.392C2.42086 128.203 1.93922 126.981 1.53323 125.733C1.51393 125.673 1.50651 125.611 1.51142 125.548C1.51633 125.486 1.53347 125.425 1.56183 125.37C1.5902 125.314 1.62924 125.265 1.67674 125.224C1.72424 125.183 1.77928 125.153 1.83869 125.133C1.8981 125.114 1.96073 125.107 2.023 125.111C2.08528 125.116 2.14596 125.134 2.20161 125.162C2.25726 125.19 2.30678 125.229 2.34734 125.277C2.3879 125.324 2.41872 125.379 2.43801 125.439C2.83067 126.65 3.29814 127.835 3.83775 128.988C3.86417 129.045 3.87917 129.106 3.8819 129.169C3.88464 129.231 3.87506 129.293 3.8537 129.352C3.83233 129.411 3.7996 129.465 3.75739 129.511C3.71518 129.557 3.66432 129.594 3.60769 129.621C3.54463 129.649 3.47596 129.664 3.40662 129.663V129.667ZM59.7903 129.632C59.7236 129.63 59.6578 129.615 59.597 129.588C59.5404 129.561 59.4895 129.524 59.4473 129.478C59.4051 129.432 59.3724 129.378 59.351 129.319C59.3296 129.261 59.32 129.198 59.3228 129.136C59.3255 129.073 59.3405 129.012 59.367 128.955C59.9022 127.8 60.3664 126.614 60.757 125.402L60.7686 125.363C60.8114 125.249 60.8966 125.155 61.0066 125.102C61.1166 125.048 61.2429 125.04 61.3593 125.077C61.4758 125.114 61.5733 125.195 61.6318 125.302C61.6903 125.41 61.7052 125.535 61.6734 125.653L61.6618 125.694C61.2596 126.943 60.7811 128.166 60.2292 129.356C60.1899 129.438 60.1276 129.508 60.0498 129.556C59.972 129.605 59.8819 129.63 59.7903 129.628V129.632ZM0.773417 120.776C0.658767 120.776 0.54798 120.734 0.461587 120.659C0.375194 120.583 0.31905 120.479 0.303607 120.366C0.121688 119.066 0.0216162 117.756 0.00395441 116.443C0.0030658 116.38 0.014481 116.318 0.0375612 116.26C0.0606413 116.202 0.0949407 116.149 0.138476 116.105C0.182011 116.06 0.233925 116.024 0.291288 115.999C0.34865 115.975 0.410317 115.961 0.472774 115.961C0.53523 115.96 0.597255 115.971 0.655298 115.994C0.713341 116.017 0.766268 116.052 0.81106 116.095C0.855852 116.139 0.891642 116.191 0.916364 116.248C0.941086 116.305 0.954251 116.367 0.955139 116.429C0.972465 117.702 1.06932 118.973 1.24514 120.234C1.25385 120.296 1.25026 120.359 1.23454 120.419C1.21883 120.48 1.19131 120.537 1.15357 120.586C1.11584 120.636 1.06862 120.678 1.01466 120.709C0.960697 120.741 0.90105 120.761 0.839144 120.77C0.817438 120.774 0.795454 120.776 0.773417 120.776ZM62.4197 120.692H62.3559C62.2311 120.675 62.1182 120.609 62.0421 120.509C61.966 120.408 61.9328 120.282 61.9499 120.157C62.1224 118.895 62.216 117.624 62.2302 116.35C62.2322 116.225 62.2832 116.106 62.3721 116.018C62.461 115.93 62.5808 115.881 62.7058 115.88C62.7683 115.881 62.83 115.894 62.8874 115.919C62.9448 115.943 62.9968 115.979 63.0404 116.024C63.0841 116.068 63.1184 116.121 63.1416 116.179C63.1648 116.237 63.1764 116.299 63.1756 116.362C63.1611 117.675 63.0643 118.986 62.8856 120.286C62.8689 120.399 62.8124 120.502 62.7261 120.577C62.6399 120.651 62.5298 120.692 62.4158 120.692H62.4197ZM0.883607 111.505C0.857865 111.507 0.832034 111.507 0.806292 111.505C0.682933 111.483 0.573245 111.413 0.500905 111.311C0.428566 111.208 0.399375 111.082 0.419626 110.958C0.632082 109.663 0.924557 108.382 1.29541 107.122C1.33104 107.001 1.41331 106.899 1.52407 106.839C1.63484 106.779 1.76504 106.765 1.88605 106.8C2.00706 106.836 2.10896 106.918 2.16933 107.029C2.22969 107.14 2.2436 107.27 2.20796 107.391C1.84824 108.613 1.56414 109.856 1.35729 111.113C1.3375 111.224 1.27853 111.325 1.19098 111.397C1.10343 111.469 0.993062 111.507 0.87976 111.505H0.883607ZM62.2901 111.422C62.1773 111.422 62.0681 111.382 61.9821 111.309C61.896 111.236 61.8387 111.135 61.8204 111.024C61.6122 109.769 61.3261 108.528 60.9639 107.308C60.9424 107.247 60.9335 107.183 60.9377 107.118C60.942 107.054 60.9593 106.991 60.9885 106.934C61.0178 106.876 61.0584 106.825 61.108 106.784C61.1576 106.743 61.215 106.712 61.2768 106.694C61.3386 106.675 61.4035 106.67 61.4676 106.677C61.5316 106.685 61.5935 106.705 61.6494 106.737C61.7053 106.769 61.7541 106.813 61.7928 106.864C61.8315 106.916 61.8593 106.975 61.8745 107.037C62.2487 108.295 62.5444 109.575 62.76 110.869C62.7802 110.993 62.751 111.12 62.6786 111.222C62.6063 111.324 62.4967 111.394 62.3733 111.416C62.3445 111.421 62.3154 111.423 62.2863 111.422H62.2901ZM3.71014 102.676C3.62941 102.676 3.54998 102.655 3.47938 102.616C3.40877 102.577 3.34933 102.521 3.30672 102.452C3.2641 102.383 3.23973 102.305 3.23589 102.225C3.23206 102.144 3.2489 102.064 3.28482 101.991C3.86686 100.813 4.52227 99.673 5.24715 98.577C5.28009 98.5218 5.32388 98.4738 5.37589 98.436C5.4279 98.3981 5.48705 98.3712 5.54976 98.3569C5.61246 98.3426 5.6774 98.3411 5.74068 98.3526C5.80396 98.3641 5.86426 98.3883 5.91792 98.4238C5.97158 98.4593 6.01749 98.5052 6.05287 98.559C6.08824 98.6127 6.11237 98.673 6.12376 98.7363C6.13516 98.7996 6.13359 98.8646 6.11916 98.9272C6.10473 98.9899 6.07774 99.049 6.03982 99.101C5.33717 100.163 4.7018 101.269 4.13742 102.411C4.0982 102.49 4.03759 102.557 3.96245 102.604C3.88731 102.651 3.8006 102.676 3.71207 102.676H3.71014ZM59.423 102.606C59.3342 102.606 59.247 102.582 59.1715 102.535C59.096 102.488 59.0351 102.421 58.9957 102.341C58.4276 101.202 57.789 100.099 57.0837 99.0391C57.014 98.934 56.9888 98.8055 57.0138 98.6818C57.0388 98.5582 57.112 98.4496 57.2171 98.3798C57.3222 98.3101 57.4507 98.285 57.5743 98.31C57.698 98.335 57.8066 98.4081 57.8764 98.5132C58.6025 99.6068 59.2611 100.744 59.8484 101.918C59.9041 102.031 59.9128 102.162 59.8726 102.281C59.8324 102.401 59.7465 102.499 59.6337 102.556C59.5688 102.588 59.4975 102.605 59.425 102.606H59.423ZM9.01909 95.0661C8.92629 95.0653 8.83574 95.0375 8.75849 94.986C8.68125 94.9346 8.62067 94.8618 8.58416 94.7764C8.54765 94.6911 8.53679 94.597 8.55291 94.5056C8.56904 94.4142 8.61145 94.3295 8.67495 94.2618C9.58018 93.3105 10.5436 92.4163 11.5595 91.5842C11.6572 91.5042 11.7826 91.4663 11.9083 91.4788C12.0339 91.4913 12.1494 91.5532 12.2294 91.6509C12.3094 91.7486 12.3473 91.874 12.3348 91.9996C12.3223 92.1253 12.2604 92.2408 12.1627 92.3208C11.1767 93.1268 10.2423 93.994 9.36514 94.9172C9.32122 94.965 9.26808 95.0033 9.20893 95.0298C9.14978 95.0564 9.08586 95.0707 9.02102 95.0719L9.01909 95.0661ZM54.0967 95.0081C54.0323 95.0085 53.9686 94.9956 53.9094 94.9704C53.8502 94.9451 53.7968 94.9079 53.7526 94.8612C52.8743 93.9389 51.9393 93.0724 50.9531 92.2666C50.9028 92.2278 50.8607 92.1793 50.8295 92.124C50.7982 92.0686 50.7784 92.0076 50.7711 91.9444C50.7639 91.8813 50.7693 91.8174 50.7872 91.7564C50.805 91.6954 50.835 91.6386 50.8752 91.5894C50.9154 91.5401 50.965 91.4994 51.0212 91.4697C51.0774 91.44 51.139 91.4218 51.2023 91.4163C51.2656 91.4108 51.3293 91.418 51.3898 91.4375C51.4503 91.4571 51.5062 91.4885 51.5543 91.53C52.5714 92.3609 53.5354 93.2545 54.4408 94.2058C54.5046 94.2732 54.5472 94.3578 54.5635 94.4492C54.5797 94.5406 54.5689 94.6347 54.5323 94.72C54.4957 94.8053 54.435 94.878 54.3576 94.9292C54.2802 94.9804 54.1895 95.0078 54.0967 95.0081ZM16.3406 89.3724C16.235 89.3731 16.1322 89.3385 16.0484 89.2743C15.9646 89.21 15.9046 89.1197 15.8778 89.0176C15.851 88.9155 15.8589 88.8073 15.9003 88.7102C15.9418 88.613 16.0144 88.5325 16.1067 88.4812C17.2512 87.839 18.434 87.2676 19.6485 86.7702C19.7064 86.7466 19.7684 86.7346 19.8309 86.7349C19.8934 86.7353 19.9553 86.7479 20.0129 86.7721C20.0705 86.7964 20.1228 86.8317 20.1668 86.8762C20.2108 86.9206 20.2456 86.9733 20.2692 87.0312C20.2928 87.0891 20.3048 87.151 20.3044 87.2136C20.3041 87.2761 20.2914 87.3379 20.2672 87.3955C20.2429 87.4532 20.2076 87.5055 20.1632 87.5494C20.1187 87.5934 20.066 87.6282 20.0081 87.6518C18.83 88.1337 17.6827 88.6877 16.5726 89.3106C16.5032 89.3529 16.4238 89.3762 16.3426 89.3782L16.3406 89.3724ZM46.7655 89.328C46.6849 89.3278 46.6058 89.3072 46.5354 89.2681C45.4232 88.649 44.2739 88.0988 43.0941 87.6209C42.9813 87.5709 42.8923 87.479 42.846 87.3647C42.7996 87.2503 42.7995 87.1225 42.8457 87.0081C42.8919 86.8936 42.9807 86.8016 43.0934 86.7515C43.2061 86.7013 43.3339 86.6969 43.4498 86.7392C44.6661 87.2316 45.8509 87.7985 46.9975 88.4367C47.0896 88.488 47.1621 88.5683 47.2036 88.6653C47.2451 88.7622 47.2532 88.8702 47.2266 88.9722C47.2001 89.0742 47.1404 89.1645 47.0569 89.2289C46.9734 89.2933 46.8709 89.3282 46.7655 89.328ZM25.0058 86.0781C24.8891 86.0771 24.7768 86.0333 24.6903 85.9549C24.6038 85.8766 24.5491 85.7691 24.5367 85.6531C24.5243 85.537 24.555 85.4204 24.6229 85.3255C24.6909 85.2307 24.7914 85.164 24.9053 85.1384C26.187 84.8597 27.4848 84.6615 28.7913 84.5449C28.8533 84.5393 28.9159 84.546 28.9754 84.5646C29.0349 84.5832 29.0902 84.6133 29.138 84.6533C29.1858 84.6932 29.2253 84.7422 29.2543 84.7974C29.2832 84.8526 29.3009 84.913 29.3065 84.9751C29.3121 85.0372 29.3054 85.0997 29.2868 85.1592C29.2682 85.2187 29.2381 85.2739 29.1981 85.3218C29.1582 85.3696 29.1092 85.4092 29.054 85.4381C28.9988 85.467 28.9384 85.4847 28.8764 85.4903C27.609 85.6063 26.35 85.8 25.1064 86.0703C25.0741 86.0785 25.041 86.083 25.0078 86.0838L25.0058 86.0781ZM38.0868 86.0665C38.0529 86.0663 38.0192 86.0624 37.9862 86.0548C36.7438 85.7877 35.486 85.5979 34.2201 85.4865C34.0965 85.4729 33.9831 85.4115 33.9043 85.3153C33.8254 85.2192 33.7873 85.096 33.7982 84.9721C33.8091 84.8482 33.868 84.7336 33.9624 84.6526C34.0568 84.5717 34.1791 84.5309 34.3032 84.5391C35.6111 84.6524 36.9109 84.8461 38.195 85.1191C38.3109 85.1428 38.4138 85.2089 38.4837 85.3044C38.5535 85.3998 38.5852 85.5179 38.5727 85.6356C38.5601 85.7532 38.5042 85.8619 38.4157 85.9405C38.3273 86.0191 38.2128 86.062 38.0945 86.0606L38.0868 86.0665Z" fill="#2C6572"/>
<path d="M219.433 107.927L215.978 129.358L215.315 133.472C215.315 136.656 208.512 178.609 204.988 178.609L149.253 140.103L87.4061 183.023C83.8835 183.023 80.1773 137.876 80.1773 134.69L79.9318 129.363L78.9458 107.996L88.887 99.4046L145.278 50.6749C146.443 49.8569 147.831 49.418 149.253 49.418C150.676 49.418 152.064 49.8569 153.228 50.6749L209.573 99.4065L219.433 107.927Z" fill="#1F4244"/>
<path d="M192.68 107.797V173.337H105.376V88.873H173.565L192.68 107.797Z" fill="white"/>
<path d="M192.68 107.797V110.006H171.355V88.79L173.565 88.8732L192.68 107.797Z" fill="#2C7D78"/>
<path d="M192.68 107.797H173.565V88.873L192.68 107.797Z" fill="white"/>
<path d="M150.607 152.608L182.569 120.004C190.961 111.441 202.942 106.548 215.516 106.548C218.469 106.548 220.864 108.495 220.864 110.894V198.035C220.864 200.434 216.872 204.079 213.918 204.079H195.758L150.607 158.021C150.248 157.667 149.963 157.246 149.769 156.781C149.574 156.317 149.474 155.818 149.474 155.314C149.474 154.811 149.574 154.312 149.769 153.847C149.963 153.383 150.248 152.961 150.607 152.608Z" fill="#26555F"/>
<path d="M147.9 152.548L115.938 119.944C107.545 111.382 95.5645 106.49 82.9902 106.49C80.038 106.49 77.6426 108.435 77.6426 110.834V198.499C77.6426 200.899 81.0704 204.079 84.0226 204.079L102.747 204.019L147.9 157.961C148.259 157.608 148.543 157.186 148.738 156.722C148.932 156.257 149.032 155.758 149.032 155.255C149.032 154.751 148.932 154.252 148.738 153.788C148.543 153.323 148.259 152.902 147.9 152.548Z" fill="#26555F"/>
<path d="M220.868 180.2V198.992C220.868 201.801 218.01 204.079 214.488 204.079H84.0189C80.4964 204.079 77.6389 201.801 77.6389 198.992V180.2L145.278 137.255C146.408 136.558 147.703 136.177 149.029 136.149C150.507 136.096 151.968 136.481 153.228 137.255L220.868 180.2Z" fill="#2C7D78"/>
<path d="M77.6387 172.363L136.501 140.923L137.651 142.098L77.6387 180.201V172.363Z" fill="#204B4E"/>
<path d="M220.868 172.363L162.006 140.923L160.855 142.098L220.868 180.201V172.363Z" fill="#204B4E"/>
<path d="M149.029 116.58C145.74 116.58 142.585 117.887 140.259 120.213C137.932 122.538 136.625 125.693 136.625 128.982H161.433C161.433 127.354 161.112 125.741 160.489 124.236C159.866 122.731 158.952 121.364 157.8 120.212C156.648 119.06 155.281 118.147 153.776 117.524C152.271 116.9 150.658 116.58 149.029 116.58Z" fill="#C8F1F4"/>
<path d="M149.029 115.646C152.574 115.646 155.448 112.772 155.448 109.227C155.448 105.682 152.574 102.809 149.029 102.809C145.484 102.809 142.61 105.682 142.61 109.227C142.61 112.772 145.484 115.646 149.029 115.646Z" fill="#C8F1F4"/>
</g>
<defs>
<clipPath id="clip0_752_38">
<rect width="290" height="251.351" fill="white"/>
</clipPath>
</defs>
</svg>
