<svg width="56" height="48" viewBox="0 0 48 48" fill="none" xmlns="http://www.w3.org/2000/svg">
<path d="M45.2581 23C45.2581 10.7072 35.2928 0.741936 23 0.741936C10.7072 0.741936 0.741943 10.7072 0.741943 23C0.741943 35.2928 10.7072 45.2581 23 45.2581C35.2928 45.2581 45.2581 35.2928 45.2581 23Z" fill="white" stroke="black" stroke-width="1"/>
<path d="M24.8482 31.2917V23.8724H27.9703L28.4344 20.9675H24.8482V19.1172C24.8482 18.2789 25.1396 17.705 26.6402 17.705H28.5417V15.1151C27.6164 15.0356 26.6865 14.9972 25.7561 15.0002C22.9965 15.0002 21.1018 16.3508 21.1018 18.8302V20.962H18V23.8669H21.1085V31.2917H24.8482Z" fill="black"/>
</svg>
