<svg  width="56" height="48" viewBox="0 0 62 62" fill="#FFFFFF" xmlns="http://www.w3.org/2000/svg">
<rect x="1" y="1" width="60" height="60" rx="30" stroke="#000000"/>
<path d="M23.4694 33.8678L22.5122 37.4412L19.0136 37.5152C17.9681 35.5759 17.375 33.3572 17.375 30.9993C17.375 28.7193 17.9295 26.5692 18.9124 24.676H18.9131L22.0278 25.2471L23.3923 28.3431C23.1067 29.1756 22.951 30.0694 22.951 30.9993C22.9511 32.0086 23.134 32.9757 23.4694 33.8678Z" fill="#000000"/>
<path d="M44.6347 28.4298C44.7926 29.2616 44.8749 30.1205 44.8749 30.9984C44.8749 31.9828 44.7714 32.943 44.5742 33.8692C43.9049 37.021 42.156 39.7732 39.7332 41.7208L39.7325 41.7201L35.8093 41.5199L35.2541 38.0538C36.8617 37.1109 38.1181 35.6355 38.7799 33.8692H31.4276V28.4298H38.8871H44.6347Z" fill="#000000"/>
<path d="M39.7308 41.722L39.7315 41.7227C37.3752 43.6167 34.382 44.7499 31.1237 44.7499C25.8875 44.7499 21.3351 41.8232 19.0128 37.5163L23.4685 33.8689C24.6297 36.9678 27.6191 39.1738 31.1237 39.1738C32.6301 39.1738 34.0413 38.7666 35.2523 38.0557L39.7308 41.722Z" fill="#000000"/>
<path d="M39.9015 20.4154L35.4472 24.0621C34.1939 23.2787 32.7124 22.8261 31.1252 22.8261C27.5412 22.8261 24.4959 25.1333 23.393 28.3433L18.9138 24.6763H18.913C21.2014 20.2643 25.8112 17.25 31.1252 17.25C34.4614 17.25 37.5203 18.4384 39.9015 20.4154Z" fill="#000000"/>
</svg>
