<svg width="24" height="24" viewBox="0 0 24 24" fill="none" xmlns="http://www.w3.org/2000/svg">
<path fill-rule="evenodd" clip-rule="evenodd" d="M12.0318 3.99999C12.584 4.00071 13.0312 4.44901 13.0304 5.0013L13.0121 19.0013C13.0114 19.5536 12.5631 20.0007 12.0108 20C11.4585 19.9993 11.0114 19.551 11.0121 18.9987L11.0304 4.99868C11.0312 4.44639 11.4795 3.99927 12.0318 3.99999Z" fill="currentColor"/>
<path fill-rule="evenodd" clip-rule="evenodd" d="M4.00009 12C4.00009 11.4477 4.44781 11 5.00009 11H19.0001C19.5524 11 20.0001 11.4477 20.0001 12C20.0001 12.5523 19.5524 13 19.0001 13H5.00009C4.44781 13 4.00009 12.5523 4.00009 12Z" fill="currentColor"/>
</svg>
