<svg width="74" height="74" viewBox="0 0 74 74" fill="none" xmlns="http://www.w3.org/2000/svg">
    <path fill-rule="evenodd" clip-rule="evenodd" d="M37.0424 26.333C37.7788 26.334 38.3749 26.9317 38.374 27.6681L38.3495 46.3348C38.3485 47.0711 37.7508 47.6673 37.0144 47.6663C36.278 47.6654 35.6819 47.0676 35.6828 46.3313L35.7073 27.6646C35.7083 26.9282 36.306 26.332 37.0424 26.333Z" fill="#07C0B0"/>
    <path fill-rule="evenodd" clip-rule="evenodd" d="M26.3335 36.9997C26.3335 36.2633 26.9304 35.6663 27.6668 35.6663H46.3335C47.0699 35.6663 47.6668 36.2633 47.6668 36.9997C47.6668 37.7361 47.0699 38.333 46.3335 38.333H27.6668C26.9304 38.333 26.3335 37.7361 26.3335 36.9997Z" fill="#07C0B0"/>
</svg>
