<svg width="44" height="44" viewBox="0 0 44 44" fill="none" xmlns="http://www.w3.org/2000/svg">
<path fill-rule="evenodd" clip-rule="evenodd" d="M22.0001 0.916504C23.0126 0.916504 23.8334 1.73732 23.8334 2.74984V5.63734C23.8334 6.64986 23.0126 7.47067 22.0001 7.47067C20.9876 7.47067 20.1667 6.64986 20.1667 5.63734V2.74984C20.1667 1.73732 20.9876 0.916504 22.0001 0.916504Z" fill="white"/>
<path fill-rule="evenodd" clip-rule="evenodd" d="M36.9082 7.09166C37.6242 7.80762 37.6242 8.96842 36.9082 9.68439L34.8665 11.7261C34.1506 12.4421 32.9898 12.4421 32.2738 11.7261C31.5578 11.0102 31.5578 9.84938 32.2738 9.13341L34.3155 7.09168C35.0314 6.37572 36.1922 6.37571 36.9082 7.09166Z" fill="white"/>
<path fill-rule="evenodd" clip-rule="evenodd" d="M36.5292 21.9998C36.5292 20.9873 37.3501 20.1665 38.3626 20.1665H41.2501C42.2626 20.1665 43.0834 20.9873 43.0834 21.9998C43.0834 23.0124 42.2626 23.8332 41.2501 23.8332H38.3626C37.3501 23.8332 36.5292 23.0124 36.5292 21.9998Z" fill="white"/>
<path fill-rule="evenodd" clip-rule="evenodd" d="M32.2738 32.2735C32.9898 31.5576 34.1506 31.5576 34.8665 32.2735L36.9082 34.3152C37.6242 35.0312 37.6242 36.192 36.9082 36.908C36.1923 37.6239 35.0314 37.6239 34.3155 36.908L32.2738 34.8663C31.5578 34.1503 31.5578 32.9895 32.2738 32.2735Z" fill="white"/>
<path fill-rule="evenodd" clip-rule="evenodd" d="M22.0001 36.529C23.0126 36.529 23.8334 37.3498 23.8334 38.3623V41.2498C23.8334 42.2624 23.0126 43.0832 22.0001 43.0832C20.9876 43.0832 20.1667 42.2624 20.1667 41.2498V38.3623C20.1667 37.3498 20.9876 36.529 22.0001 36.529Z" fill="white"/>
<path fill-rule="evenodd" clip-rule="evenodd" d="M11.7264 32.2736C12.4423 32.9895 12.4423 34.1503 11.7264 34.8663L9.68463 36.908C8.96866 37.6239 7.80786 37.6239 7.0919 36.908C6.37595 36.192 6.37596 35.0312 7.09193 34.3152L9.13366 32.2735C9.84962 31.5576 11.0104 31.5576 11.7264 32.2736Z" fill="white"/>
<path fill-rule="evenodd" clip-rule="evenodd" d="M0.916748 21.9998C0.916748 20.9873 1.73756 20.1665 2.75008 20.1665H5.63758C6.6501 20.1665 7.47091 20.9873 7.47091 21.9998C7.47091 23.0124 6.6501 23.8332 5.63758 23.8332H2.75008C1.73756 23.8332 0.916748 23.0124 0.916748 21.9998Z" fill="white"/>
<path fill-rule="evenodd" clip-rule="evenodd" d="M7.09192 7.09167C7.80788 6.37571 8.96868 6.37571 9.68464 7.09167L11.7264 9.1334C12.4423 9.84936 12.4423 11.0102 11.7264 11.7261C11.0104 12.4421 9.84961 12.4421 9.13365 11.7261L7.09192 9.6844C6.37595 8.96844 6.37595 7.80763 7.09192 7.09167Z" fill="white"/>
<path fill-rule="evenodd" clip-rule="evenodd" d="M9.16675 21.9998C9.16675 14.9122 14.9124 9.1665 22.0001 9.1665C29.0877 9.1665 34.8334 14.9122 34.8334 21.9998C34.8334 29.0875 29.0877 34.8332 22.0001 34.8332C14.9124 34.8332 9.16675 29.0875 9.16675 21.9998ZM22.0001 12.8332C16.9375 12.8332 12.8334 16.9372 12.8334 21.9998C12.8334 27.0624 16.9375 31.1665 22.0001 31.1665C27.0627 31.1665 31.1667 27.0624 31.1667 21.9998C31.1667 16.9372 27.0627 12.8332 22.0001 12.8332Z" fill="white"/>
</svg>
