<svg width="44" height="44" viewBox="0 0 44 44" fill="none" xmlns="http://www.w3.org/2000/svg">
<path fill-rule="evenodd" clip-rule="evenodd" d="M8.25008 21.9998C8.25008 14.4059 14.4062 8.24984 22.0001 8.24984C29.594 8.24984 35.7501 14.4059 35.7501 21.9998C35.7501 29.5938 29.594 35.7498 22.0001 35.7498C14.4062 35.7498 8.25008 29.5938 8.25008 21.9998ZM22.0001 11.9165C16.4312 11.9165 11.9167 16.431 11.9167 21.9998C11.9167 27.5687 16.4312 32.0832 22.0001 32.0832C27.569 32.0832 32.0834 27.5687 32.0834 21.9998C32.0834 16.431 27.569 11.9165 22.0001 11.9165Z" fill="white"/>
<path d="M22.0001 5.49984C23.2657 5.49984 24.2917 4.47382 24.2917 3.20817C24.2917 1.94252 23.2657 0.916504 22.0001 0.916504C20.7344 0.916504 19.7084 1.94252 19.7084 3.20817C19.7084 4.47382 20.7344 5.49984 22.0001 5.49984Z" fill="white"/>
<path d="M35.2917 10.9998C36.5574 10.9998 37.5834 9.97381 37.5834 8.70817C37.5834 7.44252 36.5574 6.4165 35.2917 6.4165C34.0261 6.4165 33.0001 7.44252 33.0001 8.70817C33.0001 9.97381 34.0261 10.9998 35.2917 10.9998Z" fill="white"/>
<path d="M40.7917 24.2915C42.0574 24.2915 43.0834 23.2655 43.0834 21.9998C43.0834 20.7342 42.0574 19.7082 40.7917 19.7082C39.5261 19.7082 38.5001 20.7342 38.5001 21.9998C38.5001 23.2655 39.5261 24.2915 40.7917 24.2915Z" fill="white"/>
<path d="M35.2917 37.5832C36.5574 37.5832 37.5834 36.5571 37.5834 35.2915C37.5834 34.0259 36.5574 32.9998 35.2917 32.9998C34.0261 32.9998 33.0001 34.0259 33.0001 35.2915C33.0001 36.5571 34.0261 37.5832 35.2917 37.5832Z" fill="white"/>
<path d="M22.0001 43.0832C23.2657 43.0832 24.2917 42.0571 24.2917 40.7915C24.2917 39.5259 23.2657 38.4998 22.0001 38.4998C20.7344 38.4998 19.7084 39.5259 19.7084 40.7915C19.7084 42.0571 20.7344 43.0832 22.0001 43.0832Z" fill="white"/>
<path d="M8.70842 37.5832C9.97406 37.5832 11.0001 36.5571 11.0001 35.2915C11.0001 34.0259 9.97406 32.9998 8.70842 32.9998C7.44276 32.9998 6.41675 34.0259 6.41675 35.2915C6.41675 36.5571 7.44276 37.5832 8.70842 37.5832Z" fill="white"/>
<path d="M3.20841 24.2915C4.47407 24.2915 5.50008 23.2655 5.50008 21.9998C5.50008 20.7342 4.47407 19.7082 3.20841 19.7082C1.94276 19.7082 0.916748 20.7342 0.916748 21.9998C0.916748 23.2655 1.94276 24.2915 3.20841 24.2915Z" fill="white"/>
<path d="M8.70842 10.9998C9.97406 10.9998 11.0001 9.97381 11.0001 8.70817C11.0001 7.44252 9.97406 6.4165 8.70842 6.4165C7.44276 6.4165 6.41675 7.44252 6.41675 8.70817C6.41675 9.97381 7.44276 10.9998 8.70842 10.9998Z" fill="white"/>
</svg>
