<svg width="20" height="16" viewBox="0 0 20 16" fill="none" xmlns="http://www.w3.org/2000/svg">
  <path fill-rule="evenodd" clip-rule="evenodd" d="M2 2.4a.1.1 0 0 0-.1.1v11a.1.1 0 0 0 .1.1h11a.1.1 0 0 0 .1-.1v-11a.1.1 0 0 0-.1-.1H2Zm-1.9.1C.1 1.45.95.6 2 .6h11c1.049 0 1.9.85 1.9 1.9v11a1.9 1.9 0 0 1-1.9 1.9H2a1.9 1.9 0 0 1-1.9-1.9v-11Z" fill="currentColor"/>
  <path fill-rule="evenodd" clip-rule="evenodd" d="M19.473 2.235A.9.9 0 0 1 19.9 3v10a.9.9 0 0 1-1.303.805l-5-2.5a.9.9 0 1 1 .805-1.61l3.698 1.849V4.456l-3.698 1.85a.9.9 0 0 1-.805-1.61l5-2.5a.9.9 0 0 1 .876.039Z" fill="currentColor"/>
</svg>