<svg width="20" height="20" viewBox="0 0 20 20" fill="none" xmlns="http://www.w3.org/2000/svg">
  <path fill='transparent' d="M20 0H0v20h20V0Z" fill="#fff" fill-opacity=".01"/>
  <path fill='transparent' d="M10 18.333a8.307 8.307 0 0 0 5.893-2.441 8.308 8.308 0 0 0 2.44-5.893 8.308 8.308 0 0 0-2.44-5.892A8.307 8.307 0 0 0 10 1.666a8.307 8.307 0 0 0-5.893 2.44A8.307 8.307 0 0 0 1.667 10c0 2.301.932 4.385 2.44 5.893A8.308 8.308 0 0 0 10 18.332Z" stroke="currentColor" stroke-width="1.667" stroke-linejoin="round"/>
  <path d="m6.667 10 2.5 2.5 5-5" fill='transparent' stroke="currentColor" stroke-width="1.667" stroke-linecap="round" stroke-linejoin="round"/>
</svg>