<svg width="20" height="20" viewBox="0 0 20 20" fill="none" xmlns="http://www.w3.org/2000/svg">
    <path fill-rule="evenodd" clip-rule="evenodd" d="M0.833328 10.0007C0.833328 4.93804 4.93738 0.833984 10 0.833984C15.0626 0.833984 19.1667 4.93804 19.1667 10.0007C19.1667 15.0633 15.0626 19.1673 10 19.1673C4.93738 19.1673 0.833328 15.0633 0.833328 10.0007ZM10 2.50065C5.85786 2.50065 2.49999 5.85851 2.49999 10.0007C2.49999 14.1428 5.85786 17.5007 10 17.5007C14.1421 17.5007 17.5 14.1428 17.5 10.0007C17.5 5.85851 14.1421 2.50065 10 2.50065Z" fill="currentColor"/>
    <path fill-rule="evenodd" clip-rule="evenodd" d="M10.0035 4.16732C10.4638 4.16736 10.8368 4.5405 10.8368 5.00073L10.8364 9.17099H14.1667C14.6269 9.17099 15 9.54408 15 10.0043C15 10.4646 14.6269 10.8377 14.1667 10.8377H10.003C9.78193 10.8377 9.56995 10.7498 9.41367 10.5935C9.25739 10.4372 9.1696 10.2253 9.16962 10.0042L9.17012 5.00057C9.17017 4.54033 9.5433 4.16727 10.0035 4.16732Z" fill="currentColor"/>
</svg>
