<svg width="20" height="20" viewBox="0 0 20 20" fill="none" xmlns="http://www.w3.org/2000/svg">
  <g fill-rule="evenodd" clip-rule="evenodd" fill="currentColor">
    <path d="M.833 10a9.167 9.167 0 1 1 18.334 0A9.167 9.167 0 0 1 .833 10ZM10 2.5a7.5 7.5 0 1 0 0 15 7.5 7.5 0 0 0 0-15Z"/>
    <path d="M12.946 7.054a.833.833 0 0 1 0 1.179l-4.714 4.714a.833.833 0 0 1-1.178-1.179l4.714-4.714a.833.833 0 0 1 1.178 0Z"/>
    <path d="M7.054 7.054a.833.833 0 0 1 1.178 0l4.714 4.714a.833.833 0 1 1-1.178 1.179L7.054 8.233a.833.833 0 0 1 0-1.179Z"/>
  </g>
</svg>