<svg viewBox="0 0 14 14" fill="none" xmlns="http://www.w3.org/2000/svg">
<path fill-rule="evenodd" clip-rule="evenodd" d="M4.27083 1.33333C4.12126 1.33333 4 1.45459 4 1.60417V2.66667H9.72917C10.6151 2.66667 11.3333 3.38488 11.3333 4.27083V10H12.3958C12.5454 10 12.6667 9.87874 12.6667 9.72917V1.60417C12.6667 1.45459 12.5454 1.33333 12.3958 1.33333H4.27083ZM11.3333 11.3333H12.3958C13.2818 11.3333 14 10.6151 14 9.72917V1.60417C14 0.71821 13.2818 0 12.3958 0H4.27083C3.38488 0 2.66667 0.71821 2.66667 1.60417V2.66667H1.60417C0.71821 2.66667 0 3.38488 0 4.27083V12.3958C0 13.2818 0.71821 14 1.60417 14H9.72917C10.6151 14 11.3333 13.2818 11.3333 12.3958V11.3333ZM1.60417 4C1.45459 4 1.33333 4.12126 1.33333 4.27083V12.3958C1.33333 12.5454 1.45459 12.6667 1.60417 12.6667H9.72917C9.87874 12.6667 10 12.5454 10 12.3958V4.27083C10 4.12126 9.87874 4 9.72917 4H1.60417Z" fill="currentColor"/>
</svg>
