<svg width="47" height="47" viewBox="0 0 52 52" fill="none" xmlns="http://www.w3.org/2000/svg">
<circle cx="26" cy="26" r="25" stroke="#CACACA" stroke-width="2"/>
<path d="M14.5 39.0001H14.4999C14.3685 39.0001 14.2423 38.9483 14.1487 38.856C14.0563 38.7648 14.003 38.6413 14 38.5116V32.5255C14.0018 32.403 14.0476 32.2852 14.1291 32.1937C15.6415 30.5563 17.4763 29.2495 19.5182 28.3554C21.5619 27.4605 23.7689 26.9985 26 26.9985C28.2311 26.9985 30.4381 27.4605 32.4818 28.3554C34.5238 29.2496 36.3587 30.5565 37.8711 32.194C37.95 32.2825 37.9955 32.3956 38 32.514V38.5001C38 38.6327 37.9473 38.7599 37.8536 38.8536C37.7598 38.9474 37.6326 39.0001 37.5 39.0001H14.5Z" stroke="#CACACA" stroke-width="2"/>
<path d="M32 17C32 20.3137 29.3137 23 26 23C22.6863 23 20 20.3137 20 17C20 13.6863 22.6863 11 26 11C29.3137 11 32 13.6863 32 17Z" stroke="#CACACA" stroke-width="2"/>
</svg>
