<svg width="20" height="10" viewBox="0 0 20 10" fill="none" xmlns="http://www.w3.org/2000/svg">
<path fill-rule="evenodd" clip-rule="evenodd" d="M0.666992 0.833333C0.666992 0.373096 1.08486 0 1.60033 0H18.4003C18.9158 0 19.3337 0.373096 19.3337 0.833333C19.3337 1.29357 18.9158 1.66667 18.4003 1.66667H1.60033C1.08486 1.66667 0.666992 1.29357 0.666992 0.833333ZM0.666992 5C0.666992 4.53976 1.08486 4.16667 1.60033 4.16667H18.4003C18.9158 4.16667 19.3337 4.53976 19.3337 5C19.3337 5.46024 18.9158 5.83333 18.4003 5.83333H1.60033C1.08486 5.83333 0.666992 5.46024 0.666992 5ZM0.666992 9.16667C0.666992 8.70643 1.08486 8.33333 1.60033 8.33333H18.4003C18.9158 8.33333 19.3337 8.70643 19.3337 9.16667C19.3337 9.6269 18.9158 10 18.4003 10H1.60033C1.08486 10 0.666992 9.6269 0.666992 9.16667Z" fill="currentColor"/>
</svg>
