<svg width="24" height="24" viewBox="0 0 24 24" fill="none" xmlns="http://www.w3.org/2000/svg">
<path d="M3.5 20.1C3.00294 20.1 2.6 20.5029 2.6 21C2.6 21.4971 3.00294 21.9 3.5 21.9V20.1ZM21.5 21.9C21.9971 21.9 22.4 21.4971 22.4 21C22.4 20.5029 21.9971 20.1 21.5 20.1V21.9ZM5.5 13.36L4.86322 12.7239C4.69467 12.8927 4.6 13.1214 4.6 13.36H5.5ZM5.5 17H4.6C4.6 17.4971 5.00294 17.9 5.5 17.9V17ZM9.1586 17V17.9C9.39736 17.9 9.62634 17.8051 9.79514 17.6363L9.1586 17ZM19.5 6.65405L20.1365 7.29031C20.4878 6.93887 20.4878 6.36923 20.1365 6.01779L19.5 6.65405ZM15.8476 3L16.4841 2.36374C16.3153 2.19483 16.0862 2.09995 15.8474 2.1C15.6086 2.10005 15.3795 2.19501 15.2108 2.36399L15.8476 3ZM3.5 21.9H21.5V20.1H3.5V21.9ZM4.6 13.36V17H6.4V13.36H4.6ZM5.5 17.9H9.1586V16.1H5.5V17.9ZM9.79514 17.6363L20.1365 7.29031L18.8635 6.01779L8.52206 16.3637L9.79514 17.6363ZM20.1365 6.01779L16.4841 2.36374L15.211 3.63626L18.8635 7.29031L20.1365 6.01779ZM15.2108 2.36399L4.86322 12.7239L6.13678 13.996L16.4843 3.63601L15.2108 2.36399Z" fill="currentColor"/>
</svg>
