<svg width="154" height="158" viewBox="0 0 154 158" stroke='transparent' fill="transparent" xmlns="http://www.w3.org/2000/svg">
  <ellipse fill='transparent' cx="80.588" cy="62.911" rx="63.349" ry="62.911" fill="url(#a)"/>
  <path fill="transparent" d="M112.632 106.257c1.375-1.159 3.305-1.818 5.093-1.231 1.027.337 3.453 2.548 2.727 1.75-.317-.349 1.676 1.765 2.758 2.898 2.249 2.358 4.482 4.732 6.728 7.094 6.765 7.116 13.646 14.146 20.279 21.383 1.045 1.14-5.883-3.692-2.119-1.598 5.892 3.279 6.529 11.735 1.194 15.848-4.728 3.645-11.858 2.011-14.5-3.322-2.224-4.49.378.689.37.677-5.414-8.176-10.566-16.539-15.83-24.812-1.747-2.747-3.509-5.483-5.252-8.233-.837-1.321-2.404-3.763-2.142-3.371.07.105-.145-.209-.211-.317-1.301-2.097-1.052-5.117.905-6.766Zm29.721 29.137c5.271-.577 10.014 3.197 10.595 8.431.581 5.234-3.22 9.944-8.49 10.522-12.306 1.348-14.411-17.605-2.105-18.953Z" fill="#07C0B0"/>
  <path fill="transparent" d="M138.552 62.911c0 31.736-25.916 57.527-57.964 57.527s-57.964-25.79-57.964-57.527c0-31.736 25.916-57.526 57.964-57.526s57.964 25.79 57.964 57.526Z" stroke="#07C0B0" stroke-width="10.769"/>
  <path opacity=".2" d="M116.255 63.2a35.64 35.64 0 0 1-2.749 13.722 35.848 35.848 0 0 1-7.832 11.638 36.168 36.168 0 0 1-11.727 7.78 36.384 36.384 0 0 1-27.675 0 36.164 36.164 0 0 1-11.727-7.78 35.855 35.855 0 0 1-7.832-11.638 35.636 35.636 0 0 1 0-27.444 35.855 35.855 0 0 1 7.832-11.637 36.165 36.165 0 0 1 11.727-7.78 36.384 36.384 0 0 1 27.675 0 36.168 36.168 0 0 1 11.727 7.78 35.848 35.848 0 0 1 7.832 11.637 35.638 35.638 0 0 1 2.749 13.722h0Z" stroke="url(#b)" stroke-width="4.597" stroke-linecap="round"/>
  <circle stroke="#FFF" cx="80.448" cy="63.209" r="32.179" fill="blue"/>
  <circle stroke="#FFF" cx="80.448" cy="63.209" r="32.179" fill="url(#c)"/>
  <path stroke="transparent" d="M95.333 78.21c-1.606 1.452-4.207 1.452-5.81 0l-9.074-9.374-9.075 9.371c-1.605 1.452-4.207 1.452-5.809 0-1.605-1.45-1.605-3.802 0-5.25l9.441-9.746-9.444-9.752c-1.606-1.452-1.606-3.8 0-5.251 1.605-1.451 4.203-1.451 5.809 0l9.078 9.378 9.075-9.378c1.605-1.451 4.203-1.451 5.809 0 1.605 1.451 1.605 3.803 0 5.25l-9.441 9.753 9.44 9.746c1.606 1.451 1.606 3.802 0 5.254Z" fill="#D7F6F3"/>
  <path stroke="transparent" d="M95.333 78.21c-1.606 1.452-4.207 1.452-5.81 0l-9.074-9.374-9.075 9.371c-1.605 1.452-4.207 1.452-5.809 0-1.605-1.45-1.605-3.802 0-5.25l9.441-9.746-9.444-9.752c-1.606-1.452-1.606-3.8 0-5.251 1.605-1.451 4.203-1.451 5.809 0l9.078 9.378 9.075-9.378c1.605-1.451 4.203-1.451 5.809 0 1.605 1.451 1.605 3.803 0 5.25l-9.441 9.753 9.44 9.746c1.606 1.451 1.606 3.802 0 5.254Z" fill="url(#d)"/>
  <path stroke="transparent" d="M8.62 27.56C3.865 27.56 0 23.694 0 18.94 0 14.868 7.786.868 8.117.273c.202-.363.801-.363 1.003 0 .333.595 8.119 14.595 8.119 18.669 0 4.752-3.866 8.62-8.62 8.62Z" fill="url(#e)"/>
  <path stroke="transparent" d="M8.62 27.56C3.865 27.56 0 23.694 0 18.94 0 14.868 7.786.868 8.117.273c.202-.363.801-.363 1.003 0 .333.595 8.119 14.595 8.119 18.669 0 4.752-3.866 8.62-8.62 8.62Z" fill="url(#f)"/>
  <defs>
    <radialGradient id="a" cx="0" cy="0" r="1" gradientUnits="userSpaceOnUse" gradientTransform="rotate(50.423 -1.798 69.824) scale(103.25 103.163)">
      <stop stop-color="#E3FFFD"/>
      <stop offset=".868" stop-color="#ffffff" stop-opacity="0"/>
    </radialGradient>
    <radialGradient id="c" cx="0" cy="0" r="1" gradientUnits="userSpaceOnUse" gradientTransform="matrix(0 31.991 -39.0163 0 80.636 63.397)">
      <stop stop-color="#55C0B9"/>
      <stop offset="1" stop-color="#D9F1EF"/>
    </radialGradient>
    <radialGradient id="d" cx="0" cy="0" r="1" gradientUnits="userSpaceOnUse" gradientTransform="rotate(71.309 -1.973 77.29) scale(26.2947 36.5671)">
      <stop offset=".191" stop-color="#ffffff"/>
      <stop offset=".944" stop-color="#ffffff" stop-opacity="0"/>
    </radialGradient>
    <linearGradient id="b" x1="58.038" y1="25.284" x2="108.653" y2="99.197" gradientUnits="userSpaceOnUse">
      <stop offset=".204" stop-color="#07C0B0"/>
      <stop offset=".904" stop-color="#07C0B0" stop-opacity=".04"/>
    </linearGradient>
    <linearGradient id="e" x1="9.194" y1="-2.299" x2="10.765" y2="27.447" gradientUnits="userSpaceOnUse">
      <stop stop-color="#F3FFFE" stop-opacity=".7"/>
      <stop offset="1" stop-color="#ABE0DC"/>
    </linearGradient>
    <linearGradient id="f" x1="2.25" y1="-.113" x2="10.573" y2="26.96" gradientUnits="userSpaceOnUse">
      <stop stop-color="#B2F9F3"/>
      <stop offset="1" stop-color="#ABE0DC"/>
    </linearGradient>
  </defs>
</svg>