<svg width="243" height="246" viewBox="0 0 243 246" fill="none" xmlns="http://www.w3.org/2000/svg">
<rect x="0.739892" y="73.345" width="3.75419" height="10.3854" rx="0.780323" fill="white" stroke="#CCCDC9" stroke-width="0.520216"/>
<rect x="17.9049" y="62.7399" width="8.23201" height="10.8787" rx="0.780323" fill="white" stroke="#CCCDC9" stroke-width="0.520216"/>
<rect x="28.3531" y="62.7399" width="8.23201" height="10.8787" rx="0.780323" fill="white" stroke="#CCCDC9" stroke-width="0.520216"/>
<rect x="2.49754" y="64.4933" width="238.807" height="180.507" rx="9.66442" stroke="#D0D0D0" stroke-width="2"/>
<rect x="8.45169" y="70.1388" width="226.899" height="168.722" rx="3.3814" stroke="#D8D8D2" stroke-width="0.520216"/>
<path fill-rule="evenodd" clip-rule="evenodd" d="M5.35344 155.733C4.87257 155.733 4.48275 155.347 4.48275 154.87C4.48275 154.393 4.87257 154.007 5.35344 154.007C5.8343 154.007 6.22412 154.393 6.22412 154.87C6.22412 155.347 5.8343 155.733 5.35344 155.733Z" fill="#E6E6E1"/>
<path fill-rule="evenodd" clip-rule="evenodd" d="M156.331 144.129L153.653 142.519L152.79 142L152.397 142.943L152.081 143.702C150.824 146.722 148.327 148.598 145.563 148.598C142.799 148.598 140.301 146.722 139.045 143.703L138.729 142.944L138.336 142L137.473 142.519L134.795 144.129L134.126 144.53L134.43 145.26L134.746 146.019C136.793 150.941 140.938 154 145.563 154C150.187 154 154.332 150.941 156.379 146.018L156.696 145.26L157 144.53L156.331 144.129ZM106.527 142.519L105.663 142L105.27 142.943L104.955 143.702C103.698 146.722 101.201 148.598 98.4363 148.598C95.672 148.598 93.1747 146.722 91.9185 143.703L91.6023 142.944L91.2103 142L90.3461 142.519L87.6682 144.129L87 144.53L87.3035 145.26L87.6193 146.019C89.6669 150.941 93.8116 154 98.4363 154C103.061 154 107.205 150.941 109.253 146.018L109.569 145.26L109.874 144.53L109.205 144.129L106.527 142.519Z" fill="#E8E8E8"/>
<path opacity="0.8" fill-rule="evenodd" clip-rule="evenodd" d="M191 55.5465V58H181V56.0781L186.709 49.4535H181.146V47H190.813V48.9219L185.105 55.5465H191Z" fill="#E8E8E8"/>
<path fill-rule="evenodd" clip-rule="evenodd" d="M171 89.5465V92H161V90.0781L166.709 83.4535H161.146V81H170.813V82.9219L165.105 89.5465H171Z" fill="#E8E8E8"/>
<path opacity="0.4" fill-rule="evenodd" clip-rule="evenodd" d="M180.998 33.4268L181 36.994L166.001 37L166 34.2056L174.558 24.5697L166.215 24.5729L166.213 21.0053L180.714 21L180.715 23.7941L172.156 33.4303L180.998 33.4268Z" fill="#E8E8E8"/>
<path opacity="0.4" fill-rule="evenodd" clip-rule="evenodd" d="M205.998 12.4268L206 15.994L191.001 16L191 13.2056L199.558 3.56972L191.215 3.57286L191.213 0.00532561L205.714 0L205.715 2.79406L197.156 12.4303L205.998 12.4268Z" fill="#E8E8E8"/>
<path fill-rule="evenodd" clip-rule="evenodd" d="M123 169C120.79 169 119 170.791 119 173C119 175.209 120.79 177 123 177C125.209 177 127 175.209 127 173C127 170.791 125.209 169 123 169Z" fill="#E8E8E8"/>
</svg>
