<svg width="24" height="24" viewBox="0 0 24 24" fill="none" xmlns="http://www.w3.org/2000/svg">
<path fill-rule="evenodd" clip-rule="evenodd" d="M2.29289 2.29289C2.68342 1.90237 3.31658 1.90237 3.70711 2.29289L9.96803 8.55382C10.5635 8.20193 11.2582 8 12 8C14.2091 8 16 9.79087 16 12C16 12.7418 15.7981 13.4365 15.4462 14.032L21.7071 20.2929C22.0976 20.6834 22.0976 21.3166 21.7071 21.7071C21.3166 22.0976 20.6834 22.0976 20.2929 21.7071L14.032 15.4462C13.4365 15.7981 12.7418 16 12 16C9.79087 16 8 14.2091 8 12C8 11.2582 8.20193 10.5635 8.55382 9.96803L2.29289 3.70711C1.90237 3.31658 1.90237 2.68342 2.29289 2.29289ZM10.0677 11.482C10.0236 11.6472 10 11.8208 10 12C10 13.1046 10.8954 14 12 14C12.1792 14 12.3528 13.9764 12.518 13.9323L10.0677 11.482ZM13.9323 12.518C13.9764 12.3528 14 12.1792 14 12C14 10.8954 13.1046 10 12 10C11.8208 10 11.6472 10.0236 11.482 10.0677L13.9323 12.518ZM8.67639 4.56121C9.71031 4.2076 10.8293 4 12 4C14.7639 4 17.2376 5.15378 19.0145 6.67591C20.7522 8.16444 22 10.167 22 12C22 13.2099 21.4538 14.4775 20.6338 15.5925C20.3066 16.0374 19.6807 16.1328 19.2358 15.8056C18.7908 15.4784 18.6954 14.8525 19.0226 14.4075C19.6942 13.4943 20 12.6362 20 12C20 10.994 19.233 9.49656 17.7134 8.19484C16.233 6.92672 14.2066 6 12 6C11.0669 6 10.1664 6.16537 9.32361 6.4536C8.80104 6.63232 8.23253 6.35358 8.05381 5.83101C7.87509 5.30845 8.15383 4.73994 8.67639 4.56121ZM5.37907 7.59403C5.79027 7.96273 5.82472 8.59495 5.45603 9.00615C4.46712 10.109 4 11.2155 4 12C4 13.0045 4.76682 14.5019 6.28669 15.8042C7.76723 17.0727 9.79359 18 12 18C12.7697 18 13.517 17.8876 14.228 17.6866C14.7595 17.5364 15.3121 17.8455 15.4623 18.377C15.6125 18.9084 15.3034 19.461 14.772 19.6112C13.8956 19.8589 12.9653 20 12 20C9.23586 20 6.76222 18.8453 4.98539 17.3229C3.24791 15.8342 2 13.8316 2 12C2 10.533 2.80264 8.96952 3.96695 7.67098C4.33565 7.25979 4.96788 7.22533 5.37907 7.59403Z" fill="#1B312F"/>
</svg>
