<svg width="24" height="24" viewBox="0 0 24 24" fill="none" xmlns="http://www.w3.org/2000/svg">
<path fill-rule="evenodd" clip-rule="evenodd" d="M4.98539 6.67709C6.76222 5.15466 9.23586 4 12 4C14.7639 4 17.2376 5.15378 19.0145 6.67591C20.7522 8.16444 22 10.167 22 12C22 13.833 20.7522 15.8355 19.0145 17.3241C17.2376 18.8462 14.7639 20 12 20C9.23586 20 6.76222 18.8453 4.98539 17.3229C3.24791 15.8342 2 13.8316 2 12C2 10.1684 3.24791 8.1658 4.98539 6.67709ZM6.28669 8.19584C4.76682 9.4981 4 10.9955 4 12C4 13.0045 4.76682 14.5019 6.28669 15.8042C7.76723 17.0727 9.79359 18 12 18C14.2066 18 16.233 17.0733 17.7134 15.8051C19.2331 14.5034 20 13.006 20 12C20 10.994 19.233 9.49656 17.7134 8.19484C16.233 6.92672 14.2066 6 12 6C9.79359 6 7.76723 6.92729 6.28669 8.19584Z" fill="#1B312F"/>
<path fill-rule="evenodd" clip-rule="evenodd" d="M8 12C8 9.79086 9.79086 8 12 8C14.2091 8 16 9.79086 16 12C16 14.2091 14.2091 16 12 16C9.79086 16 8 14.2091 8 12ZM12 10C10.8954 10 10 10.8954 10 12C10 13.1046 10.8954 14 12 14C13.1046 14 14 13.1046 14 12C14 10.8954 13.1046 10 12 10Z" fill="#1B312F"/>
</svg>
