<svg width="36" height="36" viewBox="0 0 36 36" fill="none" xmlns="http://www.w3.org/2000/svg">
    <path d="M2.3 10.1V6.2C2.3 3.99706 3.99706 2.3 6.2 2.3H10.1C10.5971 2.3 11 1.89706 11 1.4C11 0.902944 10.5971 0.5 10.1 0.5H6.2C3.00294 0.5 0.5 3.00294 0.5 6.2V10.1C0.5 10.5971 0.902944 11 1.4 11C1.89706 11 2.3 10.5971 2.3 10.1Z" fill="currentColor"/>
    <path d="M33.7 10.1V6.2C33.7 3.99706 32.0029 2.3 29.8 2.3H25.9C25.4029 2.3 25 1.89706 25 1.4C25 0.902944 25.4029 0.5 25.9 0.5H29.8C32.9971 0.5 35.5 3.00294 35.5 6.2V10.1C35.5 10.5971 35.0971 11 34.6 11C34.1029 11 33.7 10.5971 33.7 10.1Z" fill="currentColor"/>
    <path d="M2.3 25.9V29.8C2.3 32.0029 3.99706 33.7 6.2 33.7H10.1C10.5971 33.7 11 34.1029 11 34.6C11 35.0971 10.5971 35.5 10.1 35.5H6.2C3.00294 35.5 0.5 32.9971 0.5 29.8V25.9C0.5 25.4029 0.902944 25 1.4 25C1.89706 25 2.3 25.4029 2.3 25.9Z" fill="currentColor"/>
    <path d="M33.7 25.9V29.8C33.7 32.0029 32.0029 33.7 29.8 33.7H25.9C25.4029 33.7 25 34.1029 25 34.6C25 35.0971 25.4029 35.5 25.9 35.5H29.8C32.9971 35.5 35.5 32.9971 35.5 29.8V25.9C35.5 25.4029 35.0971 25 34.6 25C34.1029 25 33.7 25.4029 33.7 25.9Z" fill="currentColor"/>
    <path d="M10.0176 13.718V16.2194C10.0176 16.7372 10.4093 17.1569 10.8926 17.1569C11.3758 17.1569 11.7676 16.7372 11.7676 16.2194V13.718C11.7676 13.2003 11.3758 12.7805 10.8926 12.7805C10.4093 12.7805 10.0176 13.2003 10.0176 13.718Z" fill="currentColor"/>
    <path d="M24.4473 13.718V16.2194C24.4473 16.7372 24.839 17.1569 25.3223 17.1569C25.8055 17.1569 26.1973 16.7372 26.1973 16.2194V13.718C26.1973 13.2003 25.8055 12.7805 25.3223 12.7805C24.839 12.7805 24.4473 13.2003 24.4473 13.718Z" fill="currentColor"/>
    <path d="M11.8453 26.349C13.5521 27.942 15.6192 28.7459 18.0001 28.7459C20.381 28.7459 22.4481 27.942 24.1549 26.349C24.5268 26.0019 24.5468 25.4191 24.1998 25.0472C23.8527 24.6754 23.2698 24.6553 22.898 25.0024C21.5345 26.2749 19.9174 26.9038 18.0001 26.9038C16.0828 26.9038 14.4657 26.2749 13.1022 25.0024C12.7304 24.6553 12.1475 24.6754 11.8005 25.0472C11.4534 25.4191 11.4735 26.0019 11.8453 26.349Z" fill="currentColor"/>
    <path d="M18 13.7016V20.1489C18 20.5615 17.7983 20.763 17.3836 20.763H16.7719C16.2632 20.763 15.8508 21.1753 15.8508 21.684C15.8508 22.1927 16.2632 22.6051 16.7719 22.6051H17.3836C18.8152 22.6051 19.8421 21.5794 19.8421 20.1489V13.7016C19.8421 13.1929 19.4297 12.7805 18.921 12.7805C18.4123 12.7805 18 13.1929 18 13.7016Z" fill="currentColor"/>
</svg>
