<svg width="20" height="20" viewBox="0 0 20 20" fill="none" xmlns="http://www.w3.org/2000/svg">
<path fill-rule="evenodd" clip-rule="evenodd" d="M5.95282 2.9762C5.49258 2.9762 5.11949 3.3493 5.11949 3.80953V15.8134L9.63722 13.6255C9.86662 13.5144 10.1343 13.5144 10.3637 13.6255L14.8814 15.8134V3.80953C14.8814 3.34929 14.5083 2.9762 14.0481 2.9762H5.95282ZM3.45282 3.80953C3.45282 2.42882 4.57211 1.30953 5.95282 1.30953H14.0481C15.4288 1.30953 16.5481 2.42882 16.5481 3.80953V17.1429C16.5481 17.4298 16.4004 17.6966 16.1573 17.849C15.9142 18.0014 15.6098 18.0179 15.3515 17.8929L10.0004 15.3014L4.64937 17.8929C4.39113 18.0179 4.0867 18.0014 3.84357 17.849C3.60044 17.6966 3.45282 17.4298 3.45282 17.1429V3.80953Z" fill="currentColor"/>
</svg>
