<svg width="22" height="22" viewBox="0 0 22 22" fill="none" xmlns="http://www.w3.org/2000/svg">
  <path fill-rule="evenodd" clip-rule="evenodd" d="M11 4.5A1.25 1.25 0 1 1 11 7a1.25 1.25 0 0 1 0-2.5Z" fill="currentColor"/>
  <path fill-rule="evenodd" clip-rule="evenodd" d="M3.293 3.293A10.869 10.869 0 0 1 11 .1c3.01 0 5.736 1.221 7.707 3.193A10.869 10.869 0 0 1 21.9 11c0 3.01-1.22 5.736-3.192 7.707A10.868 10.868 0 0 1 11 21.9c-3.01 0-5.736-1.22-7.707-3.192A10.869 10.869 0 0 1 .1 11c0-3.01 1.221-5.736 3.193-7.707ZM11 1.9a9.069 9.069 0 0 0-6.435 2.665A9.069 9.069 0 0 0 1.9 11a9.069 9.069 0 0 0 2.665 6.435A9.069 9.069 0 0 0 11 20.1a9.07 9.07 0 0 0 6.435-2.665A9.07 9.07 0 0 0 20.1 11a9.069 9.069 0 0 0-2.665-6.435A9.069 9.069 0 0 0 11 1.9ZM9.35 9a.9.9 0 0 1 .9-.9h1a.9.9 0 0 1 .9.9v6.1H13a.9.9 0 1 1 0 1.8H9.5a.9.9 0 1 1 0-1.8h.85V9.9h-.1a.9.9 0 0 1-.9-.9Z" fill="currentColor"/>
</svg>