<svg width="12" height="17" viewBox="0 0 12 17" fill="none" xmlns="http://www.w3.org/2000/svg">
  <path fill-rule="evenodd" clip-rule="evenodd" d="M5.999 2.303c-1.243 0-2.25.987-2.25 2.205v4.409c0 1.217 1.007 2.204 2.25 2.204s2.25-.987 2.25-2.204v-4.41c0-1.217-1.007-2.204-2.25-2.204Zm-3.75 2.205c0-2.03 1.679-3.675 3.75-3.675 2.071 0 3.75 1.646 3.75 3.675v4.409c0 2.03-1.679 3.674-3.75 3.674-2.071 0-3.75-1.645-3.75-3.674v-4.41ZM.749 7.08c.414 0 .75.329.75.735v1.102c0 2.435 2.015 4.409 4.5 4.409s4.5-1.974 4.5-4.41V7.816c0-.406.336-.735.75-.735s.75.329.75.735v1.102c0 2.998-2.29 5.472-5.25 5.833v1.515a.743.743 0 0 1-.75.735.743.743 0 0 1-.75-.735V14.75c-2.96-.361-5.25-2.835-5.25-5.833V7.815c0-.406.336-.735.75-.735Z" fill="currentColor"/>
</svg>