<svg width="12" height="15" viewBox="0 0 12 15" fill="none" xmlns="http://www.w3.org/2000/svg">
    <path fill-rule="evenodd" clip-rule="evenodd" d="M2.66675 7.49967C2.29856 7.49967 2.00008 7.79815 2.00008 8.16634V12.1663C2.00008 12.5345 2.29856 12.833 2.66675 12.833H9.33341C9.7016 12.833 10.0001 12.5345 10.0001 12.1663V8.16634C10.0001 7.79815 9.7016 7.49967 9.33341 7.49967H2.66675ZM0.666748 8.16634C0.666748 7.06177 1.56218 6.16634 2.66675 6.16634H9.33341C10.438 6.16634 11.3334 7.06177 11.3334 8.16634V12.1663C11.3334 13.2709 10.438 14.1663 9.33341 14.1663H2.66675C1.56218 14.1663 0.666748 13.2709 0.666748 12.1663V8.16634Z" fill="currentColor"/>
    <path fill-rule="evenodd" clip-rule="evenodd" d="M4.66675 10.1663C4.66675 9.42996 5.2637 8.83301 6.00008 8.83301C6.73646 8.83301 7.33341 9.42996 7.33341 10.1663C7.33341 10.9027 6.73646 11.4997 6.00008 11.4997C5.2637 11.4997 4.66675 10.9027 4.66675 10.1663Z" fill="currentColor"/>
    <path fill-rule="evenodd" clip-rule="evenodd" d="M6.00008 2.16634C5.46965 2.16634 4.96094 2.37705 4.58587 2.75213C4.21079 3.1272 4.00008 3.63591 4.00008 4.16634V6.83301C4.00008 7.2012 3.7016 7.49967 3.33341 7.49967C2.96522 7.49967 2.66675 7.2012 2.66675 6.83301V4.16634C2.66675 3.28229 3.01794 2.43444 3.64306 1.80932C4.26818 1.1842 5.11603 0.833008 6.00008 0.833008C6.88414 0.833008 7.73198 1.1842 8.3571 1.80932C8.98222 2.43444 9.33341 3.28229 9.33341 4.16634V6.83301C9.33341 7.2012 9.03494 7.49967 8.66675 7.49967C8.29856 7.49967 8.00008 7.2012 8.00008 6.83301V4.16634C8.00008 3.63591 7.78937 3.1272 7.41429 2.75213C7.03922 2.37705 6.53051 2.16634 6.00008 2.16634Z" fill="currentColor"/>
</svg>
