<svg width="56" height="56" viewBox="0 0 56 56" fill="none" xmlns="http://www.w3.org/2000/svg">
<rect width="56" height="56" rx="10" fill="#07C0B0"/>
<path d="M12.1266 26.9842H20.2613V32.0253H5.14062V28.999C5.14062 21.9811 15.7385 22.384 15.7385 19.3368C15.7385 18.0482 15.1032 17.5235 12.8903 17.5235C10.0421 17.5235 9.53503 18.7198 9.53503 20.4952H5.33781C5.33781 14.3797 8.08901 13.0156 12.8371 13.0156C18.2519 13.0156 20.4616 14.7281 20.4616 18.9254C20.4616 22.9297 17.341 24.1805 14.8371 25.192C13.9889 25.532 12.3613 26.3421 12.1266 26.9842ZM23.1095 32.5373C23.1095 40.9445 28.4178 42.9844 37.3256 42.9844C45.3632 42.9844 50.8594 41.402 50.8594 33.6202C50.8594 26.254 45.551 25.6285 36.9845 25.0032C30.6526 24.5036 29.3505 24.0881 29.3505 21.8384C29.3505 19.6726 30.6557 18.9674 36.1488 18.9674C41.9517 18.9674 44.3429 19.7565 44.3429 22.9633H49.9298C49.9298 15.7607 44.9626 13.0156 36.7684 13.0156C28.6338 13.0156 23.7636 15.0555 23.7636 21.4648C23.7636 28 27.5196 29.998 36.9845 30.5814C44.0299 31.0389 45.2725 31.4544 45.2725 33.8679C45.2725 36.1554 43.5041 37.0326 37.6386 37.0326C30.5619 37.0326 28.6996 35.6181 28.6996 32.5373H23.1095Z" fill="white"/>
</svg>
