<svg width="200" height="27" viewBox="0 0 200 27" fill="none" xmlns="http://www.w3.org/2000/svg">
<path d="M8.26667 12.7048H17.8926V17.153H0V14.4826C0 8.29002 12.5407 8.64557 12.5407 5.95668C12.5407 4.81965 11.7889 4.35668 9.17037 4.35668C5.8 4.35668 5.2 5.41224 5.2 6.97891H0.233333C0.233333 1.58261 3.48889 0.378906 9.10741 0.378906C15.5148 0.378906 18.1296 1.89002 18.1296 5.59372C18.1296 9.12706 14.437 10.2308 11.4741 11.1234C10.4704 11.4234 8.54444 12.1382 8.26667 12.7048ZM21.263 17.6048C21.263 25.0234 27.5444 26.8233 38.0852 26.8233C47.5963 26.8233 54.1 25.4271 54.1 18.5604C54.1 12.0604 47.8185 11.5085 37.6815 10.9567C30.1889 10.5159 28.6481 10.1493 28.6481 8.16409C28.6481 6.25298 30.1926 5.63076 36.6926 5.63076C43.5593 5.63076 46.3889 6.32705 46.3889 9.15668H53C53 2.80113 47.1222 0.378906 37.4259 0.378906C27.8 0.378906 22.037 2.17891 22.037 7.83446C22.037 13.6011 26.4815 15.3641 37.6815 15.8789C46.0185 16.2826 47.4889 16.6493 47.4889 18.7789C47.4889 20.7974 45.3963 21.5715 38.4556 21.5715C30.0815 21.5715 27.8778 20.3234 27.8778 17.6048H21.263ZM96.4815 0.745573H87.5555L76.7963 18.89L66.0333 0.745573H57.1074V26.453H63.7185V8.82335L74.4074 26.453H79.1815L89.8704 8.82335V26.453H96.4815V0.745573ZM126.948 26.4567H134.259L120.963 0.745573H112.037L98.7778 26.453H106.052L108.807 20.9789H124.196L126.948 26.4567ZM111.267 16.0604L116.519 5.63076L121.733 16.0604H111.267ZM166.604 10.1863C166.604 4.45668 162.6 0.749277 156.759 0.749277H136.559V26.4567H143.17V19.5863H153.822L157.97 26.453H165.756L161.019 18.8122C164.47 17.4567 166.604 14.3715 166.604 10.1863ZM143.17 6.29372H154.922C156.904 6.29372 159.989 6.29372 159.989 10.1863C159.989 14.0419 156.904 14.0419 154.922 14.0419H143.17V6.29372ZM200 0.745573H168.415V6.29002H180.904V26.453H187.515V6.29372H200V0.745573Z" fill="currentColor"/>
</svg>
