<svg width="24" height="24" viewBox="0 0 24 24" fill="none" xmlns="http://www.w3.org/2000/svg">
<path fill-rule="evenodd" clip-rule="evenodd" d="M11.9988 3.96359C10.5077 3.96359 9.29883 5.148 9.29883 6.60904V11.8999C9.29883 13.361 10.5077 14.5454 11.9988 14.5454C13.49 14.5454 14.6988 13.361 14.6988 11.8999V6.60904C14.6988 5.148 13.49 3.96359 11.9988 3.96359ZM7.49883 6.60904C7.49883 4.17397 9.51355 2.19995 11.9988 2.19995C14.4841 2.19995 16.4988 4.17397 16.4988 6.60904V11.8999C16.4988 14.335 14.4841 16.309 11.9988 16.309C9.51355 16.309 7.49883 14.335 7.49883 11.8999V6.60904ZM5.69883 9.6954C6.19588 9.6954 6.59883 10.0902 6.59883 10.5772V11.8999C6.59883 14.822 9.01648 17.1909 11.9988 17.1909C14.9812 17.1909 17.3988 14.822 17.3988 11.8999V10.5772C17.3988 10.0902 17.8018 9.6954 18.2988 9.6954C18.7959 9.6954 19.1988 10.0902 19.1988 10.5772V11.8999C19.1988 15.4974 16.4505 18.466 12.8988 18.8999V20.7181C12.8988 21.2051 12.4959 21.5999 11.9988 21.5999C11.5018 21.5999 11.0988 21.2051 11.0988 20.7181V18.8999C7.54714 18.466 4.79883 15.4974 4.79883 11.8999V10.5772C4.79883 10.0902 5.20177 9.6954 5.69883 9.6954Z" fill="currentColor"/>
</svg>
