<svg width="24" height="24" viewBox="0 0 24 24" fill="none" xmlns="http://www.w3.org/2000/svg">
<path fill-rule="evenodd" clip-rule="evenodd" d="M5.03812 9.3896C5.03812 5.54512 8.15468 2.42856 11.9992 2.42856C15.8436 2.42856 18.9602 5.54512 18.9602 9.3896V17.2208H20.7005C21.181 17.2208 21.5706 17.6103 21.5706 18.0909C21.5706 18.5715 21.181 18.961 20.7005 18.961H15.0138C14.8027 20.4369 13.5334 21.5714 11.9992 21.5714C10.4649 21.5714 9.19566 20.4369 8.98455 18.961H3.29786C2.8173 18.961 2.42773 18.5715 2.42773 18.0909C2.42773 17.6103 2.8173 17.2208 3.29786 17.2208H5.03812V9.3896ZM6.77838 17.2208H17.2199V9.3896C17.2199 6.50624 14.8825 4.16882 11.9992 4.16882C9.1158 4.16882 6.77838 6.50624 6.77838 9.3896V17.2208ZM10.7682 18.961C10.9474 19.468 11.4309 19.8312 11.9992 19.8312C12.5674 19.8312 13.0509 19.468 13.2301 18.961H10.7682Z" fill="currentColor"/>
</svg>
