<svg width="40" height="40" viewBox="0 0 40 40" fill="none" xmlns="http://www.w3.org/2000/svg">
    <path fill-rule="evenodd" clip-rule="evenodd" d="M10.8334 19.9997C10.8334 14.9371 14.9374 10.833 20 10.833C25.0627 10.833 29.1667 14.9371 29.1667 19.9997C29.1667 25.0623 25.0627 29.1663 20 29.1663C14.9374 29.1663 10.8334 25.0623 10.8334 19.9997ZM20 12.4997C15.8579 12.4997 12.5 15.8575 12.5 19.9997C12.5 24.1418 15.8579 27.4997 20 27.4997C24.1422 27.4997 27.5 24.1418 27.5 19.9997C27.5 15.8575 24.1422 12.4997 20 12.4997Z" fill="currentColor"/>
    <path d="M15.8334 21.2497C16.5237 21.2497 17.0834 20.69 17.0834 19.9997C17.0834 19.3093 16.5237 18.7497 15.8334 18.7497C15.143 18.7497 14.5834 19.3093 14.5834 19.9997C14.5834 20.69 15.143 21.2497 15.8334 21.2497Z" fill="currentColor"/>
    <path d="M20 21.2497C20.6904 21.2497 21.25 20.69 21.25 19.9997C21.25 19.3093 20.6904 18.7497 20 18.7497C19.3097 18.7497 18.75 19.3093 18.75 19.9997C18.75 20.69 19.3097 21.2497 20 21.2497Z" fill="currentColor"/>
    <path d="M24.1667 21.2497C24.8571 21.2497 25.4167 20.69 25.4167 19.9997C25.4167 19.3093 24.8571 18.7497 24.1667 18.7497C23.4764 18.7497 22.9167 19.3093 22.9167 19.9997C22.9167 20.69 23.4764 21.2497 24.1667 21.2497Z" fill="currentColor"/>
</svg>
