<svg width="24" height="24" viewBox="0 0 24 24" fill="none" xmlns="http://www.w3.org/2000/svg">
    <path fill-rule="evenodd" clip-rule="evenodd" d="M4.22183 4.22188C6.21136 2.23238 8.96273 1.00006 12 1.00006C15.0373 1.00006 17.7886 2.23238 19.7782 4.22188C21.7677 6.21142 23 8.96279 23 12.0001C23 15.0373 21.7677 17.7887 19.7782 19.7782C17.7886 21.7677 15.0373 23.0001 12 23.0001C8.96273 23.0001 6.21136 21.7677 4.22183 19.7782C2.23232 17.7887 1 15.0373 1 12.0001C1 8.96279 2.23233 6.21141 4.22183 4.22188ZM12 3.00006C9.51447 3.00006 7.26584 4.00633 5.63603 5.6361C4.00625 7.26591 3 9.51453 3 12.0001C3 14.4856 4.00627 16.7342 5.63604 18.364C7.26584 19.9938 9.51447 21.0001 12 21.0001C14.4855 21.0001 16.7342 19.9938 18.3639 18.364C19.9937 16.7342 21 14.4856 21 12.0001C21 9.51453 19.9937 7.2659 18.3639 5.6361C16.7342 4.00633 14.4855 3.00006 12 3.00006Z" fill="currentColor"/>
    <path fill-rule="evenodd" clip-rule="evenodd" d="M8 9.31251C8 7.10338 9.79086 5.31251 12 5.31251C14.2091 5.31251 16 7.10338 16 9.31251C16 11.1763 14.7252 12.7424 13 13.1865V14.3125C13 14.8648 12.5523 15.3125 12 15.3125C11.4477 15.3125 11 14.8648 11 14.3125V12.3125C11 11.7602 11.4477 11.3125 12 11.3125C13.1046 11.3125 14 10.4171 14 9.31251C14 8.20795 13.1046 7.31251 12 7.31251C10.8954 7.31251 10 8.20795 10 9.31251C10 9.8648 9.55229 10.3125 9 10.3125C8.44772 10.3125 8 9.8648 8 9.31251Z" fill="currentColor"/>
    <path fill-rule="evenodd" clip-rule="evenodd" d="M12 18.8125C12.6903 18.8125 13.25 18.2529 13.25 17.5625C13.25 16.8722 12.6903 16.3125 12 16.3125C11.3097 16.3125 10.75 16.8722 10.75 17.5625C10.75 18.2529 11.3097 18.8125 12 18.8125Z" fill="currentColor"/>
</svg>
