<svg width="16" height="16" viewBox="0 0 16 16" fill="none" xmlns="http://www.w3.org/2000/svg">
<path fill-rule="evenodd" clip-rule="evenodd" d="M10.6666 1.99935C8.82568 1.99935 7.33329 3.49173 7.33329 5.33268C7.33329 5.89681 7.47291 6.4264 7.71892 6.8907C7.85598 7.14938 7.80824 7.46721 7.60123 7.67422L2.2761 12.9993L2.99996 13.7232L8.32509 8.39808C8.53209 8.19107 8.84993 8.14333 9.10861 8.28039C9.57291 8.52639 10.1025 8.66602 10.6666 8.66602C12.5076 8.66602 14 7.17363 14 5.33268C14 5.10687 13.9776 4.88658 13.935 4.67381L12.138 6.47075C11.8777 6.7311 11.4556 6.7311 11.1952 6.47075L9.52855 4.80409C9.26821 4.54374 9.26821 4.12163 9.52855 3.86128L11.3255 2.06433C11.1127 2.02172 10.8924 1.99935 10.6666 1.99935ZM5.99996 5.33268C5.99996 2.75535 8.0893 0.666016 10.6666 0.666016C11.4536 0.666016 12.197 0.861372 12.8489 1.2068C13.0358 1.30583 13.1646 1.48769 13.196 1.69686C13.2274 1.90604 13.1577 2.11771 13.0082 2.26728L10.9428 4.33268L11.6666 5.05654L13.732 2.99114C13.8816 2.84157 14.0933 2.77186 14.3024 2.80328C14.5116 2.8347 14.6935 2.96352 14.7925 3.15043C15.1379 3.80233 15.3333 4.54568 15.3333 5.33268C15.3333 7.91001 13.2439 9.99935 10.6666 9.99935C10.0574 9.99935 9.47435 9.88227 8.93962 9.66916L3.47136 15.1374C3.21101 15.3978 2.7889 15.3978 2.52855 15.1374L0.861888 13.4708C0.601539 13.2104 0.601539 12.7883 0.861888 12.5279L6.33015 7.05969C6.11704 6.52496 5.99996 5.9419 5.99996 5.33268Z" fill="currentColor"/>
</svg>
