<svg width="20" height="20" viewBox="0 0 20 20" fill="none" xmlns="http://www.w3.org/2000/svg">
<path fill-rule="evenodd" clip-rule="evenodd" d="M0.857422 9.19603C0.857422 4.59076 4.59076 0.857422 9.19603 0.857422C13.8013 0.857422 17.5346 4.59076 17.5346 9.19603C17.5346 11.1519 16.8613 12.9505 15.7337 14.3726L18.8613 17.5002C19.2371 17.876 19.2371 18.4854 18.8613 18.8613C18.4854 19.2371 17.876 19.2371 17.5002 18.8613L14.3726 15.7337C12.9505 16.8613 11.1519 17.5346 9.19603 17.5346C4.59076 17.5346 0.857422 13.8013 0.857422 9.19603ZM9.19603 2.78223C5.65381 2.78223 2.78223 5.65381 2.78223 9.19603C2.78223 12.7383 5.65381 15.6098 9.19603 15.6098C12.7383 15.6098 15.6098 12.7383 15.6098 9.19603C15.6098 5.65381 12.7383 2.78223 9.19603 2.78223Z" fill="currentColor"/>
</svg>
