<svg width="24" height="24" viewBox="0 0 24 24" fill="none" xmlns="http://www.w3.org/2000/svg">
<path fill-rule="evenodd" clip-rule="evenodd" d="M9.05927 1.39775C9.51711 1.27101 10.0009 1.48389 10.2168 1.90707C10.5488 2.55787 11.2237 3.00001 12 3.00001C12.7763 3.00001 13.4512 2.55787 13.7832 1.90707C13.9991 1.48389 14.4829 1.27101 14.9407 1.39775C16.6647 1.87498 18.2174 2.76064 19.4886 3.94266C19.8122 4.2435 19.9 4.72098 19.7046 5.11721C19.5739 5.38228 19.5 5.68109 19.5 6C19.5 7.10457 20.3954 8 21.5 8L21.5278 7.9998C21.9699 7.99349 22.3637 8.27823 22.4961 8.70003C22.8237 9.74302 23 10.8519 23 12C23 12.7577 22.9232 13.4986 22.7767 14.2149C22.6741 14.7167 22.2089 15.0598 21.6992 15.0097C21.6341 15.0033 21.5676 15 21.5 15C20.3954 15 19.5 15.8954 19.5 17C19.5 17.4919 19.6763 17.9401 19.9704 18.2886C20.3006 18.6801 20.2818 19.2578 19.9266 19.6269C18.6286 20.9757 16.9882 21.9948 15.1434 22.544C14.6216 22.6994 14.0714 22.4087 13.9056 21.8901C13.6475 21.0827 12.8905 20.5 12 20.5C11.1095 20.5 10.3525 21.0827 10.0944 21.8901C9.92863 22.4087 9.3784 22.6994 8.85655 22.544C7.01182 21.9948 5.37142 20.9757 4.0734 19.6269C3.71823 19.2578 3.69934 18.68 4.02964 18.2886C4.32369 17.9401 4.5 17.4919 4.5 17C4.5 15.8954 3.60457 15 2.5 15C2.43238 15 2.36594 15.0033 2.30078 15.0097C1.79108 15.0598 1.32592 14.7167 1.22328 14.2149C1.07677 13.4986 1 12.7577 1 12C1 10.8519 1.17624 9.74302 1.50385 8.70003C1.63635 8.27823 2.0301 7.99349 2.47217 7.9998L2.5 8C3.60457 8 4.5 7.10457 4.5 6C4.5 5.68109 4.42608 5.38228 4.29539 5.11721C4.10003 4.72098 4.18782 4.2435 4.51135 3.94266C5.78257 2.76064 7.33529 1.87498 9.05927 1.39775ZM6.36833 4.97927C6.45429 5.30568 6.5 5.64794 6.5 6C6.5 7.95683 5.09485 9.58548 3.2385 9.93197C3.08262 10.5952 3 11.2874 3 12C3 12.3516 3.02012 12.6982 3.05921 13.0388C5.00362 13.3108 6.5 14.9806 6.5 17C6.5 17.6393 6.3495 18.2445 6.08229 18.7811C6.8323 19.4362 7.69143 19.9686 8.62831 20.3474C9.33859 19.237 10.5824 18.5 12 18.5C13.4176 18.5 14.6614 19.237 15.3717 20.3474C16.3086 19.9686 17.1677 19.4362 17.9177 18.7811C17.6505 18.2445 17.5 17.6393 17.5 17C17.5 14.9806 18.9964 13.3108 20.9408 13.0388C20.9799 12.6982 21 12.3516 21 12C21 11.2874 20.9174 10.5952 20.7615 9.93196C18.9052 9.58547 17.5 7.95683 17.5 6C17.5 5.64794 17.5457 5.30568 17.6317 4.97927C16.8739 4.37057 16.0161 3.8824 15.0873 3.54322C14.3545 4.43186 13.2441 5.00001 12 5.00001C10.7559 5.00001 9.64553 4.43186 8.91267 3.54322C7.98386 3.8824 7.12606 4.37057 6.36833 4.97927ZM7.5 12C7.5 9.51472 9.51472 7.5 12 7.5C14.4853 7.5 16.5 9.51472 16.5 12C16.5 14.4853 14.4853 16.5 12 16.5C9.51472 16.5 7.5 14.4853 7.5 12ZM12 9.5C10.6193 9.5 9.5 10.6193 9.5 12C9.5 13.3807 10.6193 14.5 12 14.5C13.3807 14.5 14.5 13.3807 14.5 12C14.5 10.6193 13.3807 9.5 12 9.5Z" fill="currentColor"/>
</svg>
