<svg width="74" height="74" viewBox="0 0 74 74" fill="none" xmlns="http://www.w3.org/2000/svg">
    <g clip-path="url(#clip0_26_71)">
    <path d="M44.5365 3.06843L40.2868 9.18386C37.6705 8.82025 35.6213 8.80774 33.0007 9.13936L28.9399 2.97317C27.9259 1.22885 25.7664 0.636289 24.0531 1.55282L12.9706 7.97414C11.2565 9.00655 10.6739 11.2046 11.5747 12.8324L14.6067 19.6875C13.1147 21.6483 11.9636 23.727 10.9248 26.0382L3.63525 26.573C1.6999 26.5612 -0.0176673 28.173 -0.0296983 30.1428L-0.110377 43.352C-0.122408 45.3219 1.4615 46.9538 3.39685 46.9656L10.7925 47.706C11.6891 50.029 12.9286 52.1223 14.3966 54.1012L11.2817 60.8029C10.8214 61.6112 10.7012 62.6534 10.9232 63.5817C11.1452 64.5101 11.7095 65.3246 12.6174 65.7937L23.6207 72.3499C25.3219 73.4032 27.4892 72.7212 28.5237 71.1052L32.7735 64.9898C35.3898 65.3534 37.3251 65.3652 39.9456 65.0336L44.1211 71.0846C45.1351 72.8289 47.2945 73.4215 49.0079 72.505L60.0904 66.0836C60.8901 65.625 61.4643 64.8174 61.8115 63.8925C62.0448 62.967 61.9374 61.9234 61.4862 61.2254L58.4542 54.3703C59.9462 52.4095 61.2112 50.3315 62.1361 48.0196L69.4257 47.4848C71.361 47.4966 73.0786 45.8848 73.0906 43.915L73.1699 30.9375C73.1819 28.9677 71.598 27.3358 69.6627 27.3239L62.3802 26.7001C61.4836 24.3771 60.3572 22.4003 58.7761 20.3049L61.8909 13.6032C62.9261 11.8714 62.3704 9.66636 60.5552 8.6124L49.552 2.05619C47.7383 0.770487 45.4579 1.33593 44.5365 3.06843ZM48.1753 3.78591L59.1785 10.3421C59.8594 10.6939 59.9683 11.5057 59.6218 12.3147L56.1612 19.7096C55.9314 20.0558 56.0424 20.52 56.268 20.869C58.0753 23.1975 59.2003 25.406 60.2094 27.9614C60.3204 28.4256 60.7743 28.6601 61.1159 28.6622L69.1945 29.4068C69.8776 29.411 70.5571 29.9945 70.5529 30.6897L70.4729 43.7832C70.4687 44.4784 69.8959 45.0543 69.0983 45.1653L61.0111 45.8111C60.5558 45.8083 60.2121 46.1539 59.9823 46.5001C59.056 49.0437 57.6757 51.3528 55.9553 53.428C55.7255 53.7742 55.6088 54.237 55.8337 54.7019L59.203 62.2543C59.4285 62.6034 59.4264 62.951 59.3105 63.2979C59.1945 63.6448 58.9647 63.991 58.7363 64.1055L47.6538 70.5268C46.9686 70.8703 46.1731 70.6337 45.8358 69.9363L41.4369 63.1887C41.2114 62.8397 40.7574 62.6052 40.3013 62.7183C37.3385 63.1637 35.2894 63.1512 32.3322 62.6696C31.8776 62.551 31.4208 62.7799 31.191 63.1261L26.4816 69.934C26.1358 70.6271 25.3382 70.7381 24.6573 70.3864L13.654 63.8301C13.3139 63.5963 13.0877 63.3632 13.0898 63.0156C12.9781 62.6673 13.094 62.3204 13.3245 61.8583L16.7852 54.4634C17.015 54.1172 16.9047 53.5371 16.6791 53.1881C14.9842 51.092 13.746 48.7669 12.737 46.2115C12.626 45.7473 12.172 45.5128 11.8305 45.5107L3.63798 44.7654C2.95492 44.7613 2.27539 44.1777 2.27964 43.4825L2.3589 30.505C2.36315 29.8098 2.93591 29.2339 3.73352 29.1229L11.8207 28.477C12.2761 28.4798 12.6197 28.1343 12.7357 27.7874C13.7759 25.2445 15.043 22.8188 16.7627 20.8594C16.9925 20.5132 17.1092 20.0504 16.8843 19.5856L13.515 12.0331C13.177 11.4517 13.4104 10.5261 13.9817 10.1819L25.0642 3.76062C25.7494 3.41718 26.5449 3.65379 26.8822 4.3511L31.5094 10.9843C31.735 11.3333 32.189 11.5678 32.6451 11.4547C35.6078 11.0093 37.5432 11.0211 40.6141 11.5034C41.0688 11.622 41.5256 11.3931 41.7554 11.0468L46.4641 4.35483C46.4641 4.35483 46.4641 4.35483 46.4648 4.23895C46.8098 3.66169 47.6082 3.43482 48.1753 3.78591Z" fill="#04C0B2"/>
    <path d="M36.5 18.1014C25.8397 18.1014 17.2651 26.6399 17.2651 36.9999C17.2651 47.3599 25.9556 55.8983 36.5 55.8983C47.0444 55.8983 55.7349 47.4737 55.7349 36.9999C55.7349 26.526 47.1603 18.1014 36.5 18.1014ZM45.1905 51.2307L41.5984 47.4737C42.873 46.9045 43.9159 46.1076 44.9587 45.1968C46.0016 44.1722 46.8127 43.0337 47.2762 42.0091L51.1 45.5383C49.5936 47.8153 47.6238 49.8645 45.1905 51.2307ZM39.1651 31.4214L35.6889 28.006C43.9159 26.9814 49.7095 37.2276 43.3365 43.603C37.0794 49.7507 26.5349 44.6276 27.4619 36.203L30.9381 39.6183C31.1698 39.846 31.4016 39.9599 31.7492 39.9599H38.354C38.9333 39.9599 39.5127 39.5045 39.5127 38.8214V32.3322C39.5127 31.9907 39.3968 31.6491 39.1651 31.4214ZM52.1428 43.3753L48.0873 39.6183C49.8254 31.6491 42.2936 23.2245 33.0238 26.2983C32.5603 26.4122 32.2127 26.8676 32.2127 27.4368C32.2127 27.7783 32.3286 28.006 32.5603 28.2337L37.1952 32.7876V37.683H32.2127L27.5778 33.1291C27.346 32.9014 26.8825 32.7876 26.5349 32.7876C26.1873 32.9014 25.8397 33.1291 25.7238 33.5845C23.1746 41.326 29.3159 48.6122 36.7317 48.6122C37.5429 48.6122 38.4698 48.4984 39.2809 48.2707L43.2206 52.3691C41.2508 53.166 39.0492 53.6214 36.7317 53.6214C27.346 53.6214 19.8143 46.1076 19.8143 36.9999C19.8143 27.7783 27.4619 20.3783 36.7317 20.3783C46.0016 20.3783 53.6492 27.8922 53.6492 36.9999C53.4174 39.2768 52.954 41.4399 52.1428 43.3753Z" fill="#04C0B2"/>
    <circle cx="57" cy="17" r="16" fill="currentColor" stroke="#04C0B2" stroke-width="2"/>
    <path d="M56.6444 20.1556C57.5489 20.1556 58.2889 19.4156 58.2889 18.5111V8.64444C58.2889 7.73178 57.5489 7 56.6444 7C55.7318 7 55 7.73178 55 8.64444V18.5111C55 19.4156 55.7318 20.1556 56.6444 20.1556Z" fill="#04C0B2"/>
    <path d="M56.6444 26.7335C57.5526 26.7335 58.2889 25.9972 58.2889 25.089C58.2889 24.1808 57.5526 23.4446 56.6444 23.4446C55.7362 23.4446 55 24.1808 55 25.089C55 25.9972 55.7362 26.7335 56.6444 26.7335Z" fill="#04C0B2"/>
    </g>
    <defs>
        <clipPath id="clip0_26_71">
            <rect width="74" height="74" fill="transparent"/>
        </clipPath>
    </defs>
</svg>
