<svg width="40" height="40" viewBox="0 0 40 40" fill="none" xmlns="http://www.w3.org/2000/svg">
<path fill-rule="evenodd" clip-rule="evenodd" d="M30.4487 6.446C30.3043 6.446 30.1599 6.41 30.0335 6.338C26.5674 4.556 23.5707 3.8 19.9783 3.8C16.4039 3.8 13.01 4.646 9.92303 6.338C9.48977 6.572 8.94819 6.41 8.69546 5.978C8.46078 5.546 8.62325 4.988 9.05651 4.754C12.4143 2.936 16.097 2 19.9783 2C23.8234 2 27.1812 2.846 30.8639 4.736C31.3152 4.97 31.4777 5.51 31.243 5.942C31.0805 6.266 30.7736 6.446 30.4487 6.446ZM4.6156 15.896C4.43508 15.896 4.25455 15.842 4.09208 15.734C3.67687 15.446 3.58661 14.888 3.87545 14.474C5.66264 11.954 7.93726 9.974 10.6451 8.588C16.3136 5.672 23.5707 5.654 29.2572 8.57C31.9651 9.956 34.2397 11.918 36.0269 14.42C36.3157 14.816 36.2255 15.392 35.8103 15.68C35.3951 15.968 34.8354 15.878 34.5466 15.464C32.9219 13.196 30.8639 11.414 28.4268 10.172C23.2458 7.526 16.6205 7.526 11.4575 10.19C9.00235 11.45 6.94437 13.25 5.31965 15.518C5.17523 15.77 4.90444 15.896 4.6156 15.896ZM15.8984 37.622C15.6637 37.622 15.429 37.532 15.2666 37.352C13.696 35.786 12.8475 34.778 11.638 32.6C10.3924 30.386 9.7425 27.686 9.7425 24.788C9.7425 19.442 14.3278 15.086 19.9602 15.086C25.5926 15.086 30.1779 19.442 30.1779 24.788C30.1779 25.292 29.7808 25.688 29.2753 25.688C28.7698 25.688 28.3727 25.292 28.3727 24.788C28.3727 20.432 24.5997 16.886 19.9602 16.886C15.3207 16.886 11.5478 20.432 11.5478 24.788C11.5478 27.38 12.1254 29.774 13.2266 31.718C14.382 33.788 15.1763 34.67 16.5663 36.074C16.9093 36.434 16.9093 36.992 16.5663 37.352C16.3678 37.532 16.1331 37.622 15.8984 37.622ZM28.842 34.292C26.6938 34.292 24.7983 33.752 23.2458 32.69C20.5559 30.872 18.9493 27.92 18.9493 24.788C18.9493 24.284 19.3464 23.888 19.8519 23.888C20.3574 23.888 20.7545 24.284 20.7545 24.788C20.7545 27.326 22.0543 29.72 24.2567 31.196C25.5384 32.06 27.0368 32.474 28.842 32.474C29.2753 32.474 29.9974 32.42 30.7195 32.294C31.2069 32.204 31.6763 32.528 31.7665 33.032C31.8568 33.518 31.5318 33.986 31.0264 34.076C29.9974 34.274 29.0948 34.292 28.842 34.292ZM25.2135 38C25.1413 38 25.051 37.982 24.9788 37.964C22.1084 37.172 20.231 36.11 18.2633 34.184C15.7359 31.682 14.3459 28.352 14.3459 24.788C14.3459 21.872 16.8371 19.496 19.906 19.496C22.975 19.496 25.4662 21.872 25.4662 24.788C25.4662 26.714 27.1451 28.28 29.2211 28.28C31.2972 28.28 32.976 26.714 32.976 24.788C32.976 18.002 27.109 12.494 19.888 12.494C14.7611 12.494 10.0674 15.338 7.95531 19.748C7.25126 21.206 6.89021 22.916 6.89021 24.788C6.89021 26.192 7.01658 28.406 8.09973 31.286C8.28025 31.754 8.04557 32.276 7.57621 32.438C7.10684 32.618 6.58332 32.366 6.42085 31.916C5.53628 29.558 5.10302 27.218 5.10302 24.788C5.10302 22.628 5.51822 20.666 6.33059 18.956C8.73156 13.934 14.057 10.676 19.888 10.676C28.1019 10.676 34.7813 16.994 34.7813 24.77C34.7813 27.686 32.29 30.062 29.2211 30.062C26.1522 30.062 23.661 27.686 23.661 24.77C23.661 22.844 21.9821 21.278 19.906 21.278C17.83 21.278 16.1511 22.844 16.1511 24.77C16.1511 27.848 17.3426 30.728 19.5269 32.888C21.2419 34.58 22.8847 35.516 25.4301 36.218C25.9175 36.344 26.1883 36.848 26.0619 37.316C25.9717 37.73 25.5926 38 25.2135 38Z" fill="currentColor"/>
</svg>
