<svg width="20" height="20" viewBox="0 0 20 20" fill="none" xmlns="http://www.w3.org/2000/svg">
    <path fill-rule="evenodd" clip-rule="evenodd" d="M2.27273 3.63636C2.27273 3.13429 2.67974 2.72727 3.18182 2.72727H16.8182C17.3203 2.72727 17.7273 3.13429 17.7273 3.63636V19.0909C17.7273 19.593 17.3203 20 16.8182 20H3.18182C2.67974 20 2.27273 19.593 2.27273 19.0909V3.63636ZM4.09091 4.54545V18.1818H15.9091V4.54545H4.09091Z" fill="currentColor"/>
    <path fill-rule="evenodd" clip-rule="evenodd" d="M8.18182 7.27273C8.6839 7.27273 9.09091 7.67974 9.09091 8.18182V14.0909C9.09091 14.593 8.6839 15 8.18182 15C7.67974 15 7.27273 14.593 7.27273 14.0909V8.18182C7.27273 7.67974 7.67974 7.27273 8.18182 7.27273Z" fill="currentColor"/>
    <path fill-rule="evenodd" clip-rule="evenodd" d="M11.8182 7.27273C12.3203 7.27273 12.7273 7.67974 12.7273 8.18182V14.0909C12.7273 14.593 12.3203 15 11.8182 15C11.3161 15 10.9091 14.593 10.9091 14.0909V8.18182C10.9091 7.67974 11.3161 7.27273 11.8182 7.27273Z" fill="currentColor"/>
    <path fill-rule="evenodd" clip-rule="evenodd" d="M0 3.63636C0 3.13429 0.407014 2.72727 0.909091 2.72727H19.0909C19.593 2.72727 20 3.13429 20 3.63636C20 4.13844 19.593 4.54545 19.0909 4.54545H0.909091C0.407014 4.54545 0 4.13844 0 3.63636Z" fill="currentColor"/>
    <path fill-rule="evenodd" clip-rule="evenodd" d="M7.06146 0.472106C7.22105 0.18098 7.52664 0 7.85864 0H12.1714C12.5062 0 12.8139 0.183989 12.9723 0.478906L14.4372 3.20618C14.5886 3.48792 14.5807 3.82845 14.4166 4.10293C14.2525 4.37741 13.9562 4.54545 13.6364 4.54545H6.36364C6.04245 4.54545 5.74509 4.37597 5.58143 4.09961C5.41776 3.82324 5.41207 3.48103 5.56646 3.19938L7.06146 0.472106ZM8.39702 1.81818L7.89869 2.72727H12.1161L11.6278 1.81818H8.39702Z" fill="currentColor"/>
</svg>
