<svg width="59" height="54" viewBox="0 0 59 54" fill="none" xmlns="http://www.w3.org/2000/svg">
<path fill="currentColor" d="M44.2485 10.7312C44.9256 11.1553 44.9666 11.3532 44.9666 13.775C44.9666 16.1969 44.9256 16.3948 44.2485 16.8094C43.93 17.0167 43.8071 17.0261 42.0418 17.0261C40.2766 17.0261 40.1532 17.0167 39.8352 16.8094C39.3118 16.489 39.1167 16.0555 39.1167 15.2639V14.5761H37.8338H36.5509V18.3454V22.1149H37.8338H39.1167V21.3798C39.1167 20.494 39.3629 19.9474 39.8558 19.6647C40.1634 19.4951 40.3687 19.4763 42.0313 19.4763C43.7247 19.4763 43.889 19.4951 44.2278 19.6836C44.8847 20.0511 44.9666 20.3715 44.9666 22.7274C44.9666 24.5744 44.9358 24.8477 44.7613 25.1963C44.4124 25.9125 44.1767 25.9785 42.0313 25.9785C40.2766 25.9785 40.1532 25.9691 39.8352 25.7617C39.5272 25.5639 39.3016 25.2811 39.1783 24.9136C39.1268 24.7723 38.932 24.7534 36.9615 24.7534C34.6317 24.7534 34.488 24.7252 33.9851 24.2352C33.7285 23.9807 33.7285 23.9807 33.6977 21.7756L33.6669 19.5705H30.9472H28.2377V20.4092C28.2377 21.116 28.2069 21.2856 28.0119 21.5494C27.5501 22.162 27.2832 22.2185 25.21 22.1902C23.4653 22.162 23.3421 22.1525 23.024 21.9452C22.5211 21.606 22.3877 21.295 22.3877 20.3715V19.5705H21.1048H19.8218V27.1564V34.7424H21.0945H22.3671L22.4082 33.8472C22.439 32.9613 22.439 32.9519 22.829 32.6032L23.2087 32.2451H25.3127H27.4166L27.7964 32.6032L28.1864 32.9519L28.2172 33.8942L28.2582 34.8366H30.9677H33.6772V32.8482C33.6772 29.795 33.6259 29.8421 36.869 29.8421H39.0858L39.2091 29.4746C39.3528 29.0317 39.907 28.5511 40.3792 28.4757C40.5638 28.438 41.4361 28.4286 42.3189 28.4475C44.074 28.4757 44.2071 28.5228 44.7 29.1259C44.9053 29.371 44.9155 29.5123 44.9155 31.7268C44.9155 33.9414 44.9053 34.0827 44.7 34.3278C44.197 34.9592 44.1045 34.9778 42.0418 34.9778C40.2969 34.9778 40.1329 34.9592 39.8761 34.78C39.3016 34.3937 39.1682 34.1299 39.1268 33.2723L39.0963 32.4807H37.8236H36.5509V36.25V40.0195H37.8338H39.1167V39.2845C39.1167 38.3986 39.3629 37.8521 39.8558 37.5694C40.1634 37.3999 40.3687 37.3809 42.0313 37.3809C43.7247 37.3809 43.889 37.3999 44.2278 37.5884C44.8847 37.9557 44.9666 38.2761 44.9666 40.6322C44.9666 42.6017 44.9565 42.7336 44.741 43.1292C44.3511 43.8079 44.0943 43.8832 42.0008 43.8832C39.9276 43.8832 39.6607 43.7983 39.3016 43.0633L39.1065 42.658H36.9307C34.4983 42.658 34.3032 42.611 33.8825 41.9796C33.6977 41.6969 33.6772 41.4991 33.6772 39.5672V37.4752H30.9575H28.2377V38.2951C28.2377 39.2375 28.0735 39.6048 27.4987 39.9252C27.1908 40.095 26.9753 40.1137 25.3127 40.1137C23.65 40.1137 23.4345 40.095 23.1266 39.9252C22.5518 39.5955 22.3877 39.2375 22.3877 38.2574V37.3902L20.0682 37.3623L17.7589 37.334L17.3484 36.938L16.9481 36.5424V32.5278V28.5228H15.6242H14.3002L14.2591 29.4652L14.2284 30.4075L13.8384 30.7562L13.4586 31.1143H11.3547H9.25071L8.87097 30.7562L8.48096 30.4075V27.2036V23.9995L8.87097 23.6509L9.25071 23.2928H11.3547H13.4586L13.8384 23.6509L14.2284 23.9995L14.2591 24.9419L14.3002 25.8843H15.6242H16.9481V21.8698C16.9481 17.4879 16.9379 17.5916 17.5434 17.1675C17.8 16.9979 18.0052 16.979 20.1092 16.9508L22.3877 16.9225V16.065C22.3877 15.3582 22.4287 15.1509 22.6134 14.8776C22.9932 14.3122 23.4242 14.1991 25.3127 14.1991C26.7084 14.1991 27.0164 14.2274 27.3858 14.3876C28.0632 14.6608 28.2377 15.0095 28.2377 16.0555V16.9319H30.9575H33.6772V14.9435C33.6772 12.7196 33.7388 12.4746 34.3443 12.1259C34.6522 11.9563 34.8472 11.9374 36.8792 11.9374H39.0963L39.1475 11.6547C39.24 11.2684 39.5066 10.9103 39.8863 10.703C40.1532 10.5428 40.4202 10.5239 42.052 10.5239C43.8071 10.5239 43.93 10.5334 44.2485 10.7312Z" />
</svg>
