<svg width="12" height="15" viewBox="0 0 12 15" fill="none" xmlns="http://www.w3.org/2000/svg">
    <path fill-rule="evenodd" clip-rule="evenodd" d="M2.66675 7.50033C2.29856 7.50033 2.00008 7.7988 2.00008 8.16699V12.167C2.00008 12.5352 2.29856 12.8337 2.66675 12.8337H9.33341C9.7016 12.8337 10.0001 12.5352 10.0001 12.167V8.16699C10.0001 7.7988 9.7016 7.50033 9.33341 7.50033H2.66675ZM0.666748 8.16699C0.666748 7.06242 1.56218 6.16699 2.66675 6.16699H9.33341C10.438 6.16699 11.3334 7.06242 11.3334 8.16699V12.167C11.3334 13.2716 10.438 14.167 9.33341 14.167H2.66675C1.56218 14.167 0.666748 13.2716 0.666748 12.167V8.16699Z" fill="currentColor"/>
    <path fill-rule="evenodd" clip-rule="evenodd" d="M4.66675 10.167C4.66675 9.43061 5.2637 8.83366 6.00008 8.83366C6.73646 8.83366 7.33341 9.43061 7.33341 10.167C7.33341 10.9034 6.73646 11.5003 6.00008 11.5003C5.2637 11.5003 4.66675 10.9034 4.66675 10.167Z" fill="currentColor"/>
    <path fill-rule="evenodd" clip-rule="evenodd" d="M6.00008 1.50033C5.46965 1.50033 4.96094 1.71104 4.58587 2.08611C4.2108 2.46118 4.00008 2.96989 4.00008 3.50033V6.83366C4.00008 7.20185 3.7016 7.50033 3.33341 7.50033C2.96522 7.50033 2.66675 7.20185 2.66675 6.83366V3.50033C2.66675 2.61627 3.01794 1.76842 3.64306 1.1433C4.26818 0.518182 5.11603 0.166992 6.00008 0.166992C6.88414 0.166992 7.73198 0.518182 8.3571 1.1433C8.98222 1.76842 9.33341 2.61627 9.33341 3.50033C9.33341 3.86852 9.03494 4.16699 8.66675 4.16699C8.29856 4.16699 8.00008 3.86852 8.00008 3.50033C8.00008 2.96989 7.78937 2.46118 7.4143 2.08611C7.03922 1.71104 6.53051 1.50033 6.00008 1.50033Z" fill="currentColor"/>
</svg>
