<svg width="20" height="20" viewBox="0 0 20 20" fill="none" xmlns="http://www.w3.org/2000/svg">
    <path fill-rule="evenodd" clip-rule="evenodd" d="M0.833496 9.9987C0.833496 4.93609 4.93755 0.832031 10.0002 0.832031C15.0628 0.832031 19.1668 4.93609 19.1668 9.9987C19.1668 15.0613 15.0628 19.1654 10.0002 19.1654C4.93755 19.1654 0.833496 15.0613 0.833496 9.9987ZM10.0002 2.4987C5.85802 2.4987 2.50016 5.85656 2.50016 9.9987C2.50016 14.1408 5.85802 17.4987 10.0002 17.4987C14.1423 17.4987 17.5002 14.1408 17.5002 9.9987C17.5002 5.85656 14.1423 2.4987 10.0002 2.4987Z" fill="currentColor"/>
    <path fill-rule="evenodd" clip-rule="evenodd" d="M7.91683 6.66536C8.37707 6.66536 8.75016 7.03846 8.75016 7.4987V12.4987C8.75016 12.9589 8.37707 13.332 7.91683 13.332C7.45659 13.332 7.0835 12.9589 7.0835 12.4987V7.4987C7.0835 7.03846 7.45659 6.66536 7.91683 6.66536Z" fill="currentColor"/>
    <path fill-rule="evenodd" clip-rule="evenodd" d="M12.0835 6.66536C12.5437 6.66536 12.9168 7.03846 12.9168 7.4987V12.4987C12.9168 12.9589 12.5437 13.332 12.0835 13.332C11.6233 13.332 11.2502 12.9589 11.2502 12.4987V7.4987C11.2502 7.03846 11.6233 6.66536 12.0835 6.66536Z" fill="currentColor"/>
</svg>
