<svg width="20" height="20" viewBox="0 0 20 20" fill="none" xmlns="http://www.w3.org/2000/svg">
<path fill-rule="evenodd" clip-rule="evenodd" d="M17.7601 8.50705C13.6409 4.60333 7.2982 4.39773 2.94553 7.8912C2.70406 8.08502 2.46862 8.29028 2.23989 8.50704C1.90583 8.82363 1.37839 8.80946 1.0618 8.4754C0.745221 8.14135 0.759387 7.6139 1.09344 7.29732C1.35538 7.04908 1.62527 6.81378 1.90228 6.59143C6.89935 2.58076 14.1775 2.81572 18.9065 7.29731C19.2406 7.6139 19.2548 8.14134 18.9382 8.4754C18.6216 8.80946 18.0942 8.82363 17.7601 8.50705Z" fill="currentColor"/>
<path fill-rule="evenodd" clip-rule="evenodd" d="M3.57741 10.1603C7.12451 6.6132 12.8755 6.6132 16.4226 10.1603C16.748 10.4857 16.748 11.0134 16.4226 11.3388C16.0971 11.6642 15.5695 11.6642 15.2441 11.3388C12.3478 8.44258 7.65215 8.44258 4.75592 11.3388C4.43048 11.6642 3.90284 11.6642 3.57741 11.3388C3.25197 11.0134 3.25197 10.4857 3.57741 10.1603Z" fill="currentColor"/>
<path fill-rule="evenodd" clip-rule="evenodd" d="M6.07741 12.8748C8.2438 10.7084 11.7562 10.7084 13.9226 12.8748C14.248 13.2002 14.248 13.7278 13.9226 14.0533C13.5971 14.3787 13.0695 14.3787 12.7441 14.0533C11.2286 12.5378 8.77144 12.5378 7.25592 14.0533C6.93048 14.3787 6.40284 14.3787 6.07741 14.0533C5.75197 13.7278 5.75197 13.2002 6.07741 12.8748Z" fill="currentColor"/>
<path fill-rule="evenodd" clip-rule="evenodd" d="M10 16.6666C10.5753 16.6666 11.0417 16.2003 11.0417 15.625C11.0417 15.0497 10.5753 14.5833 10 14.5833C9.42471 14.5833 8.95833 15.0497 8.95833 15.625C8.95833 16.2003 9.42471 16.6666 10 16.6666Z" fill="currentColor"/>
</svg>
