<svg width="200" height="200" viewBox="0 0 200 200" fill="none" xmlns="http://www.w3.org/2000/svg">
<path d="M55.2851 60.3325L21.226 71.9466C21.0234 72.0135 20.8056 72.0176 20.6007 71.9585C20.3957 71.8993 20.2132 71.7796 20.0768 71.6149C19.9403 71.4502 19.8562 71.2481 19.8354 71.0348C19.8146 70.8214 19.858 70.6067 19.96 70.4185L28.4239 55.1169C28.5436 54.9019 28.7334 54.7351 28.9613 54.6446C29.1892 54.5542 29.4412 54.5455 29.6747 54.6202L34.9484 56.3272L38.1005 51.7427C38.2408 51.5408 38.4461 51.3937 38.6818 51.3263C38.9174 51.2589 39.1689 51.2754 39.3939 51.3729L55.3672 58.3413C55.5618 58.4286 55.7258 58.5726 55.8381 58.7547C55.9503 58.9368 56.0056 59.1486 55.9967 59.3627C55.9879 59.5767 55.9153 59.7832 55.7885 59.9553C55.6616 60.1274 55.4863 60.2572 55.2851 60.328V60.3325ZM23.1486 69.0431L52.0023 59.2048L39.3483 53.6789L36.2433 58.1885C36.1135 58.3761 35.9273 58.5169 35.712 58.5903C35.4968 58.6637 35.2638 58.6659 35.0472 58.5965L29.854 56.9156L23.1486 69.0431Z" fill="url(#paint0_radial_6811_13360)"/>
<path d="M21.226 71.9436C20.9597 72.033 20.6691 72.013 20.4174 71.8879C20.1658 71.7628 19.9735 71.5428 19.8825 71.2757L13.054 51.026C12.9924 50.8391 12.9833 50.6388 13.0277 50.447C13.0721 50.2553 13.1683 50.0796 13.3056 49.9393C13.443 49.799 13.6162 49.6995 13.8061 49.6518C13.9961 49.6041 14.1955 49.6101 14.3823 49.669L29.6747 54.6202C29.8234 54.6686 29.9597 54.7492 30.0738 54.8565C30.188 54.9637 30.2773 55.095 30.3354 55.2409C30.3934 55.3867 30.4188 55.5437 30.4096 55.7005C30.4005 55.8574 30.3571 56.0103 30.2826 56.1484L21.8127 71.4515C21.6844 71.6829 21.4754 71.8582 21.226 71.9436ZM15.7379 52.3463L21.1227 68.3157L27.7962 56.2508L15.7379 52.3463Z" fill="url(#paint1_radial_6811_13360)"/>
<path d="M55.2851 60.3325C55.0366 60.4164 54.7659 60.4049 54.5252 60.3005L38.5519 53.332C38.408 53.2694 38.2797 53.1755 38.1761 53.0572C38.0725 52.9389 37.9963 52.7991 37.9527 52.6476C37.9091 52.4962 37.8994 52.337 37.9242 52.1813C37.9489 52.0257 38.0076 51.8775 38.096 51.7473L47.2407 38.466C47.3533 38.3049 47.5079 38.1782 47.6876 38.0998C47.8672 38.0214 48.0649 37.9944 48.2588 38.0217C48.4527 38.0491 48.6354 38.1297 48.7867 38.2547C48.9379 38.3797 49.052 38.5443 49.1162 38.7303L55.9447 58.9801C56.0341 59.248 56.0145 59.5407 55.89 59.7941C55.7656 60.0475 55.5465 60.241 55.2805 60.3325L55.2851 60.3325ZM40.5824 51.894L53.1786 57.3878L47.7939 41.4199L40.5824 51.894Z" fill="url(#paint2_radial_6811_13360)"/>
<path d="M35.719 58.5935C35.5033 58.6647 35.2705 58.6647 35.0548 58.5935L13.7333 51.6923C13.5232 51.6215 13.3403 51.4864 13.2102 51.306C13.08 51.1257 13.0092 50.9089 13.0075 50.6861C13.0059 50.4633 13.0734 50.2455 13.2008 50.0631C13.3282 49.8808 13.509 49.743 13.7181 49.669L47.7757 38.0549C47.9869 37.9841 48.2148 37.9817 48.4274 38.048C48.6399 38.1143 48.8265 38.246 48.9607 38.4245C49.095 38.6031 49.1702 38.8194 49.1757 39.0431C49.1812 39.2669 49.1168 39.4867 48.9916 39.6717L36.2464 58.1824C36.119 58.3728 35.9341 58.5169 35.719 58.5935ZM17.4356 50.6577L34.9484 56.3272L45.42 41.1173L17.4356 50.6577Z" fill="url(#paint3_radial_6811_13360)"/>
<path d="M61.194 18.5412L85.9617 32.5452C86.1091 32.6284 86.2785 32.6654 86.4475 32.6515C86.6164 32.6375 86.7772 32.5732 86.9085 32.467C87.0398 32.3608 87.1356 32.2176 87.1833 32.0564C87.231 31.8951 87.2283 31.7233 87.1756 31.5634L82.8752 18.5672C82.8146 18.384 82.6918 18.2272 82.5277 18.1236C82.3636 18.0201 82.1684 17.976 81.9754 17.9991L77.6175 18.5189L75.8481 14.5345C75.7699 14.3582 75.6323 14.2142 75.459 14.127C75.2857 14.0399 75.0873 14.015 74.8977 14.0566L61.4272 17.0092C61.2616 17.0454 61.1109 17.1304 60.9952 17.2532C60.8794 17.3759 60.8039 17.5306 60.7786 17.6969C60.7534 17.8631 60.7795 18.0331 60.8537 18.1844C60.9278 18.3357 61.0464 18.4612 61.1939 18.5444L61.194 18.5412ZM84.9008 30.0292L63.9173 18.1649L74.5893 15.8253L76.332 19.7493C76.4046 19.9129 76.5283 20.0491 76.6849 20.1378C76.8414 20.2265 77.0226 20.2629 77.2016 20.2418L81.4941 19.7299L84.9008 30.0292Z" fill="url(#paint4_radial_6811_13360)"/>
<path d="M85.9617 32.5452C86.064 32.6024 86.1771 32.6381 86.2939 32.6501C86.4557 32.6664 86.6188 32.6358 86.7633 32.562C86.9077 32.4882 87.0274 32.3744 87.1078 32.2343L95.4471 17.7263C95.5238 17.5923 95.5615 17.4399 95.556 17.2859C95.5505 17.1319 95.5019 16.9823 95.4158 16.8539C95.3297 16.7256 95.2094 16.6233 95.0682 16.5586C94.9271 16.4939 94.7706 16.4693 94.6162 16.4874L81.9757 17.9949C81.8524 18.0096 81.734 18.0513 81.629 18.1169C81.524 18.1825 81.4349 18.2703 81.3683 18.3741C81.3017 18.4779 81.2591 18.5951 81.2436 18.7172C81.2281 18.8393 81.2401 18.9633 81.2788 19.0803L85.58 32.0809C85.6447 32.2773 85.7807 32.4427 85.9617 32.5452ZM93.1566 18.3375L86.5805 29.7781L83.1895 19.5268L93.1566 18.3375Z" fill="url(#paint5_radial_6811_13360)"/>
<path d="M61.1928 18.5414C61.3742 18.6434 61.587 18.6755 61.7906 18.6315L75.2623 15.678C75.3831 15.6513 75.4964 15.5985 75.5941 15.5232C75.6919 15.448 75.7716 15.3523 75.8276 15.243C75.8835 15.1336 75.9144 15.0133 75.9179 14.8906C75.9215 14.768 75.8976 14.6461 75.8481 14.5336L70.7168 2.97919C70.654 2.83803 70.553 2.71687 70.4249 2.6292C70.2969 2.54152 70.1468 2.49077 69.9915 2.48259C69.8361 2.47441 69.6816 2.50912 69.545 2.58287C69.4085 2.65661 69.2953 2.76649 69.2181 2.90027L60.8786 17.4137C60.7689 17.6054 60.7403 17.8325 60.7991 18.0452C60.858 18.258 60.9994 18.4391 61.1924 18.5489L61.1928 18.5414ZM73.8986 14.2713L63.2758 16.5998L69.853 5.15924L73.8986 14.2713Z" fill="url(#paint6_radial_6811_13360)"/>
<path d="M76.6865 20.1382C76.8434 20.2265 77.0245 20.2629 77.2036 20.2419L94.82 18.141C94.9952 18.1199 95.1592 18.0445 95.2887 17.9257C95.4183 17.8069 95.5067 17.6506 95.5414 17.479C95.5762 17.3075 95.5556 17.1294 95.4825 16.97C95.4093 16.8106 95.2875 16.6781 95.1341 16.5912L70.3665 2.58722C70.213 2.50064 70.0359 2.46415 69.8604 2.48292C69.6849 2.50169 69.5199 2.57478 69.3888 2.6918C69.2576 2.80882 69.167 2.96382 69.1299 3.13484C69.0927 3.30585 69.1108 3.4842 69.1817 3.64454L76.334 19.7495C76.4065 19.9131 76.5301 20.0494 76.6865 20.1382ZM92.0948 16.7886L77.623 18.515L71.741 5.28724L92.0948 16.7886Z" fill="url(#paint7_radial_6811_13360)"/>
<path d="M168.678 66.0348L135.88 43.9097C135.685 43.7779 135.535 43.5923 135.449 43.3774C135.364 43.1624 135.347 42.9282 135.401 42.7056C135.455 42.4829 135.578 42.2823 135.753 42.13C135.928 41.9778 136.147 41.8811 136.381 41.8526L155.426 39.531C155.694 39.4986 155.967 39.5575 156.197 39.6978C156.428 39.838 156.603 40.0509 156.692 40.3002L158.695 45.9283L164.807 45.7695C165.078 45.7621 165.343 45.8463 165.559 46.0075C165.775 46.1688 165.927 46.3971 165.99 46.6534L170.477 64.849C170.533 65.0728 170.517 65.3067 170.432 65.5199C170.348 65.7331 170.198 65.9156 170.004 66.0435C169.809 66.1714 169.578 66.2386 169.342 66.2363C169.106 66.2339 168.875 66.1622 168.679 66.0305L168.678 66.0348ZM139.705 43.7398L167.492 62.485L163.938 48.0692L157.918 48.2255C157.667 48.232 157.42 48.1601 157.212 48.0204C157.005 47.8807 156.849 47.6805 156.767 47.4495L154.796 41.901L139.705 43.7398Z" fill="url(#paint8_radial_6811_13360)"/>
<path d="M135.88 43.9097C135.625 43.7354 135.451 43.4711 135.395 43.1748C135.338 42.8784 135.405 42.574 135.58 42.3281L148.819 23.6694C148.942 23.4976 149.112 23.3627 149.31 23.2797C149.507 23.1967 149.726 23.1689 149.941 23.1993C150.155 23.2297 150.358 23.3172 150.526 23.452C150.694 23.5868 150.821 23.7636 150.892 23.9629L156.698 40.3014C156.754 40.4607 156.774 40.6297 156.755 40.7964C156.737 40.963 156.68 41.123 156.589 41.265C156.499 41.4069 156.377 41.5273 156.232 41.6172C156.087 41.7072 155.923 41.7647 155.752 41.7854L136.707 44.1071C136.417 44.1435 136.122 44.0731 135.88 43.9097ZM149.435 26.8209L138.996 41.5339L154.017 39.7035L149.435 26.8209Z" fill="url(#paint9_radial_6811_13360)"/>
<path d="M168.678 66.0348C168.438 65.8733 168.266 65.6313 168.198 65.356L163.717 47.1601C163.676 46.9964 163.674 46.8265 163.709 46.6626C163.745 46.4988 163.818 46.345 163.922 46.2125C164.027 46.08 164.16 45.972 164.314 45.8962C164.467 45.8204 164.636 45.7788 164.809 45.7743L182.535 45.3113C182.752 45.3057 182.967 45.3587 183.155 45.4643C183.344 45.5699 183.5 45.7239 183.605 45.9092C183.71 46.0946 183.76 46.3039 183.75 46.5139C183.74 46.7239 183.67 46.9264 183.548 47.0987L170.307 65.7571C170.18 65.9366 170.002 66.0759 169.794 66.1582C169.586 66.2404 169.357 66.2621 169.135 66.2205C168.971 66.1903 168.816 66.127 168.678 66.0348ZM166.323 48.0059L169.863 62.3546L180.302 47.6402L166.323 48.0059Z" fill="url(#paint10_radial_6811_13360)"/>
<path d="M157.22 48.0212C157.012 47.8819 156.856 47.6819 156.774 47.451L148.681 24.6808C148.6 24.4541 148.594 24.2091 148.665 23.9808C148.735 23.7525 148.879 23.5527 149.075 23.4098C149.27 23.267 149.509 23.1884 149.755 23.1853C150.001 23.1823 150.243 23.2549 150.447 23.3928L183.245 45.5179C183.449 45.6547 183.603 45.8499 183.687 46.0757C183.771 46.3014 183.779 46.5461 183.711 46.7749C183.643 47.0038 183.502 47.205 183.308 47.35C183.115 47.495 182.878 47.5762 182.632 47.5822L157.925 48.227C157.674 48.234 157.427 48.1618 157.22 48.0212ZM152.044 27.2223L158.694 45.9311L178.994 45.4023L152.044 27.2223Z" fill="url(#paint11_radial_6811_13360)"/>
<path d="M170.433 98.9262L166.978 120.357L166.315 124.471C166.315 127.656 159.512 169.609 155.988 169.609L100.253 131.103L38.4061 174.023C34.8835 174.023 31.1773 128.875 31.1773 125.689L30.9318 120.363L29.9458 98.9958L39.887 90.4041L96.2784 41.6744C97.4425 40.8564 98.8306 40.4175 100.253 40.4175C101.676 40.4175 103.064 40.8564 104.228 41.6744L160.573 90.406L170.433 98.9262Z" fill="url(#paint12_linear_6811_13360)"/>
<g filter="url(#filter0_d_6811_13360)">
<path d="M143.68 98.797V164.337H56.3765V79.8735H124.565L143.68 98.797Z" fill="white"/>
<path d="M143.68 98.797V164.337H56.3765V79.8735H124.565L143.68 98.797Z" fill="url(#paint13_radial_6811_13360)"/>
</g>
<path d="M143.68 98.7971V101.007H122.355V79.7905L124.565 79.8737L143.68 98.7971Z" fill="#C4F0EC"/>
<path d="M143.68 98.797H124.565V79.8735L143.68 98.797Z" fill="white"/>
<path fill-rule="evenodd" clip-rule="evenodd" d="M110.463 107.143C111.179 107.859 111.179 109.02 110.463 109.736L98.2411 121.958C97.5251 122.673 96.3644 122.673 95.6484 121.958L89.5374 115.847C88.8215 115.131 88.8215 113.97 89.5374 113.254C90.2534 112.538 91.4142 112.538 92.1301 113.254L96.9448 118.069L107.87 107.143C108.586 106.427 109.747 106.427 110.463 107.143Z" fill="white"/>
<path fill-rule="evenodd" clip-rule="evenodd" d="M110.463 107.143C111.179 107.859 111.179 109.02 110.463 109.736L98.2411 121.958C97.5251 122.673 96.3644 122.673 95.6484 121.958L89.5374 115.847C88.8215 115.131 88.8215 113.97 89.5374 113.254C90.2534 112.538 91.4142 112.538 92.1301 113.254L96.9448 118.069L107.87 107.143C108.586 106.427 109.747 106.427 110.463 107.143Z" fill="#50CB93"/>
<path d="M101.607 143.608L133.568 111.004C141.961 102.441 153.942 97.5479 166.516 97.5479C169.468 97.5479 171.864 99.4947 171.864 101.894V189.035C171.864 191.434 167.872 195.079 164.917 195.079H146.758L101.607 149.021C101.248 148.667 100.963 148.246 100.769 147.781C100.574 147.317 100.474 146.818 100.474 146.314C100.474 145.811 100.574 145.312 100.769 144.847C100.963 144.383 101.248 143.961 101.607 143.608Z" fill="url(#paint14_linear_6811_13360)"/>
<path d="M98.8998 143.548L66.938 110.944C58.5454 102.381 46.5645 97.4897 33.9902 97.4897C31.038 97.4897 28.6426 99.4347 28.6426 101.834V189.499C28.6426 191.898 32.0704 195.079 35.0226 195.079L53.7469 195.019L98.8998 148.961C99.2585 148.607 99.5433 148.186 99.7377 147.721C99.9321 147.257 100.032 146.758 100.032 146.254C100.032 145.75 99.9321 145.252 99.7377 144.787C99.5433 144.323 99.2585 143.901 98.8998 143.548Z" fill="url(#paint15_linear_6811_13360)"/>
<path d="M171.868 171.2V189.992C171.868 192.801 169.01 195.079 165.488 195.079H35.0187C31.4961 195.079 28.6387 192.801 28.6387 189.992V171.2L96.2783 128.255C97.4074 127.558 98.7024 127.177 100.029 127.149C101.507 127.096 102.968 127.481 104.228 128.255L171.868 171.2Z" fill="url(#paint16_linear_6811_13360)"/>
<defs>
<filter id="filter0_d_6811_13360" x="48.3765" y="71.8735" width="103.304" height="100.463" filterUnits="userSpaceOnUse" color-interpolation-filters="sRGB">
<feFlood flood-opacity="0" result="BackgroundImageFix"/>
<feColorMatrix in="SourceAlpha" type="matrix" values="0 0 0 0 0 0 0 0 0 0 0 0 0 0 0 0 0 0 127 0" result="hardAlpha"/>
<feOffset/>
<feGaussianBlur stdDeviation="4"/>
<feComposite in2="hardAlpha" operator="out"/>
<feColorMatrix type="matrix" values="0 0 0 0 0.103576 0 0 0 0 0.654167 0 0 0 0 0.608556 0 0 0 0.2 0"/>
<feBlend mode="normal" in2="BackgroundImageFix" result="effect1_dropShadow_6811_13360"/>
<feBlend mode="normal" in="SourceGraphic" in2="effect1_dropShadow_6811_13360" result="shape"/>
</filter>
<radialGradient id="paint0_radial_6811_13360" cx="0" cy="0" r="1" gradientUnits="userSpaceOnUse" gradientTransform="translate(34.6257 55.0994) rotate(90) scale(16.9006 26.0681)">
<stop stop-color="#8DE0DB"/>
<stop offset="1" stop-color="#D9F1EF"/>
</radialGradient>
<radialGradient id="paint1_radial_6811_13360" cx="0" cy="0" r="1" gradientUnits="userSpaceOnUse" gradientTransform="translate(34.6257 55.0994) rotate(90) scale(16.9006 26.0681)">
<stop stop-color="#8DE0DB"/>
<stop offset="1" stop-color="#D9F1EF"/>
</radialGradient>
<radialGradient id="paint2_radial_6811_13360" cx="0" cy="0" r="1" gradientUnits="userSpaceOnUse" gradientTransform="translate(34.6257 55.0994) rotate(90) scale(16.9006 26.0681)">
<stop stop-color="#8DE0DB"/>
<stop offset="1" stop-color="#D9F1EF"/>
</radialGradient>
<radialGradient id="paint3_radial_6811_13360" cx="0" cy="0" r="1" gradientUnits="userSpaceOnUse" gradientTransform="translate(34.6257 55.0994) rotate(90) scale(16.9006 26.0681)">
<stop stop-color="#8DE0DB"/>
<stop offset="1" stop-color="#D9F1EF"/>
</radialGradient>
<radialGradient id="paint4_radial_6811_13360" cx="0" cy="0" r="1" gradientUnits="userSpaceOnUse" gradientTransform="translate(78.0575 17.6455) rotate(93.3) scale(14.5064 21.0391)">
<stop stop-color="#8DE0DB"/>
<stop offset="1" stop-color="#D9F1EF"/>
</radialGradient>
<radialGradient id="paint5_radial_6811_13360" cx="0" cy="0" r="1" gradientUnits="userSpaceOnUse" gradientTransform="translate(78.0575 17.6455) rotate(93.3) scale(14.5064 21.0391)">
<stop stop-color="#8DE0DB"/>
<stop offset="1" stop-color="#D9F1EF"/>
</radialGradient>
<radialGradient id="paint6_radial_6811_13360" cx="0" cy="0" r="1" gradientUnits="userSpaceOnUse" gradientTransform="translate(78.0575 17.6455) rotate(93.3) scale(14.5064 21.0391)">
<stop stop-color="#8DE0DB"/>
<stop offset="1" stop-color="#D9F1EF"/>
</radialGradient>
<radialGradient id="paint7_radial_6811_13360" cx="0" cy="0" r="1" gradientUnits="userSpaceOnUse" gradientTransform="translate(78.0575 17.6455) rotate(93.3) scale(14.5064 21.0391)">
<stop stop-color="#8DE0DB"/>
<stop offset="1" stop-color="#D9F1EF"/>
</radialGradient>
<radialGradient id="paint8_radial_6811_13360" cx="0" cy="0" r="1" gradientUnits="userSpaceOnUse" gradientTransform="translate(159.679 44.851) rotate(101.349) scale(19.091 29.2034)">
<stop stop-color="#8DE0DB"/>
<stop offset="1" stop-color="#D9F1EF"/>
</radialGradient>
<radialGradient id="paint9_radial_6811_13360" cx="0" cy="0" r="1" gradientUnits="userSpaceOnUse" gradientTransform="translate(159.679 44.851) rotate(101.349) scale(19.091 29.2034)">
<stop stop-color="#8DE0DB"/>
<stop offset="1" stop-color="#D9F1EF"/>
</radialGradient>
<radialGradient id="paint10_radial_6811_13360" cx="0" cy="0" r="1" gradientUnits="userSpaceOnUse" gradientTransform="translate(159.679 44.851) rotate(101.349) scale(19.091 29.2034)">
<stop stop-color="#8DE0DB"/>
<stop offset="1" stop-color="#D9F1EF"/>
</radialGradient>
<radialGradient id="paint11_radial_6811_13360" cx="0" cy="0" r="1" gradientUnits="userSpaceOnUse" gradientTransform="translate(159.679 44.851) rotate(101.349) scale(19.091 29.2034)">
<stop stop-color="#8DE0DB"/>
<stop offset="1" stop-color="#D9F1EF"/>
</radialGradient>
<linearGradient id="paint12_linear_6811_13360" x1="99.7927" y1="40.4175" x2="99.7279" y2="174.41" gradientUnits="userSpaceOnUse">
<stop stop-color="#B1EAE5"/>
<stop offset="0.717572" stop-color="#E7FAF8"/>
<stop offset="1" stop-color="white"/>
</linearGradient>
<radialGradient id="paint13_radial_6811_13360" cx="0" cy="0" r="1" gradientUnits="userSpaceOnUse" gradientTransform="translate(100 167) rotate(-89.8133) scale(87.0005 109.674)">
<stop stop-color="#C4FFE4"/>
<stop offset="1" stop-color="white"/>
</radialGradient>
<linearGradient id="paint14_linear_6811_13360" x1="136.169" y1="92.3127" x2="136.361" y2="201.5" gradientUnits="userSpaceOnUse">
<stop offset="0.181128" stop-color="#8EE6DF"/>
<stop offset="0.937993" stop-color="#F6FBFA"/>
</linearGradient>
<linearGradient id="paint15_linear_6811_13360" x1="45.5" y1="97" x2="45.6452" y2="179.5" gradientUnits="userSpaceOnUse">
<stop offset="0.181128" stop-color="#8EE6DF"/>
<stop offset="1" stop-color="#F4F4F4"/>
</linearGradient>
<linearGradient id="paint16_linear_6811_13360" x1="100.253" y1="127.145" x2="100.253" y2="195.079" gradientUnits="userSpaceOnUse">
<stop stop-color="#07C0B0"/>
<stop offset="1" stop-color="#B9FAF4"/>
</linearGradient>
</defs>
</svg>
