<svg width="200" height="200" viewBox="0 0 200 200" fill="none" xmlns="http://www.w3.org/2000/svg">
  <ellipse cx="101.588" cy="84.911" rx="63.349" ry="62.911" fill="url(#a)"/>
  <path d="M133.632 128.257c1.375-1.159 3.305-1.818 5.092-1.231 1.028.337 3.453 2.548 2.728 1.75-.317-.349 1.676 1.765 2.757 2.898 2.25 2.358 4.483 4.732 6.729 7.094 6.765 7.116 13.646 14.146 20.279 21.383 1.045 1.14-5.883-3.692-2.119-1.598 5.892 3.279 6.529 11.735 1.194 15.848-4.728 3.645-11.858 2.011-14.5-3.322-2.224-4.49.378.689.37.677-5.414-8.176-10.566-16.539-15.83-24.812-1.747-2.747-3.509-5.483-5.252-8.233-.837-1.321-2.404-3.763-2.142-3.371.07.105-.145-.209-.212-.317-1.3-2.097-1.051-5.117.906-6.766Zm29.721 29.137c5.27-.577 10.014 3.197 10.595 8.431.581 5.234-3.22 9.944-8.49 10.522-12.307 1.348-14.411-17.605-2.105-18.953Z" fill="#07C0B0"/>
  <path d="M159.552 84.911c0 31.736-25.916 57.527-57.964 57.527s-57.965-25.791-57.965-57.527 25.917-57.526 57.965-57.526 57.964 25.79 57.964 57.526Z" stroke="#07C0B0" stroke-width="10.769"/>
  <path opacity=".2" d="M137.255 85.2a35.64 35.64 0 0 1-2.749 13.722 35.871 35.871 0 0 1-7.832 11.638 36.175 36.175 0 0 1-11.727 7.779 36.39 36.39 0 0 1-27.675 0 36.175 36.175 0 0 1-11.727-7.779 35.863 35.863 0 0 1-7.832-11.638 35.637 35.637 0 0 1 0-27.444 35.855 35.855 0 0 1 7.832-11.637 36.164 36.164 0 0 1 11.727-7.78 36.384 36.384 0 0 1 27.675 0 36.163 36.163 0 0 1 11.727 7.78 35.864 35.864 0 0 1 7.832 11.637 35.638 35.638 0 0 1 2.749 13.722h0Z" stroke="url(#b)" stroke-width="4.597" stroke-linecap="round"/>
  <circle cx="101.448" cy="85.209" r="32.179" fill="#C4C4C4"/>
  <circle cx="101.448" cy="85.209" r="32.179" fill="url(#c)"/>
  <path d="M116.333 100.21c-1.606 1.451-4.207 1.451-5.809 0l-9.075-9.375-9.075 9.372c-1.605 1.451-4.207 1.451-5.809 0-1.605-1.451-1.605-3.803 0-5.25l9.441-9.747-9.444-9.752c-1.606-1.451-1.606-3.8 0-5.25 1.605-1.452 4.203-1.452 5.809 0l9.078 9.377 9.075-9.377c1.605-1.452 4.203-1.452 5.809 0 1.605 1.45 1.605 3.802 0 5.25l-9.441 9.752 9.441 9.746c1.605 1.451 1.605 3.803 0 5.254Z" fill="#D7F6F3"/>
  <path d="M116.333 100.21c-1.606 1.451-4.207 1.451-5.809 0l-9.075-9.375-9.075 9.372c-1.605 1.451-4.207 1.451-5.809 0-1.605-1.451-1.605-3.803 0-5.25l9.441-9.747-9.444-9.752c-1.606-1.451-1.606-3.8 0-5.25 1.605-1.452 4.203-1.452 5.809 0l9.078 9.377 9.075-9.377c1.605-1.452 4.203-1.452 5.809 0 1.605 1.45 1.605 3.802 0 5.25l-9.441 9.752 9.441 9.746c1.605 1.451 1.605 3.803 0 5.254Z" fill="url(#d)"/>
  <path d="M29.62 49.56c-4.754 0-8.62-3.866-8.62-8.62 0-4.073 7.786-18.073 8.117-18.668.203-.363.801-.363 1.003 0 .333.595 8.119 14.595 8.119 18.669 0 4.752-3.866 8.62-8.62 8.62Z" fill="url(#e)"/>
  <path d="M29.62 49.56c-4.754 0-8.62-3.866-8.62-8.62 0-4.073 7.786-18.073 8.117-18.668.203-.363.801-.363 1.003 0 .333.595 8.119 14.595 8.119 18.669 0 4.752-3.866 8.62-8.62 8.62Z" fill="url(#f)"/>
  <defs>
    <radialGradient id="a" cx="0" cy="0" r="1" gradientUnits="userSpaceOnUse" gradientTransform="rotate(50.423 -14.662 103.126) scale(103.25 103.163)">
      <stop stop-color="#E3FFFD"/>
      <stop offset=".868" stop-color="#fff" stop-opacity="0"/>
    </radialGradient>
    <radialGradient id="c" cx="0" cy="0" r="1" gradientUnits="userSpaceOnUse" gradientTransform="matrix(0 31.991 -39.0163 0 101.636 85.397)">
      <stop stop-color="#55C0B9"/>
      <stop offset="1" stop-color="#D9F1EF"/>
    </radialGradient>
    <radialGradient id="d" cx="0" cy="0" r="1" gradientUnits="userSpaceOnUse" gradientTransform="rotate(71.309 -6.807 102.927) scale(26.2947 36.5671)">
      <stop offset=".191" stop-color="#fff"/>
      <stop offset=".944" stop-color="#fff" stop-opacity="0"/>
    </radialGradient>
    <linearGradient id="b" x1="79.038" y1="47.284" x2="129.652" y2="121.197" gradientUnits="userSpaceOnUse">
      <stop offset=".204" stop-color="#07C0B0"/>
      <stop offset=".904" stop-color="#07C0B0" stop-opacity=".04"/>
    </linearGradient>
    <linearGradient id="e" x1="30.194" y1="19.701" x2="31.765" y2="49.447" gradientUnits="userSpaceOnUse">
      <stop stop-color="#F3FFFE" stop-opacity=".7"/>
      <stop offset="1" stop-color="#ABE0DC"/>
    </linearGradient>
    <linearGradient id="f" x1="23.25" y1="21.887" x2="31.573" y2="48.96" gradientUnits="userSpaceOnUse">
      <stop stop-color="#B2F9F3"/>
      <stop offset="1" stop-color="#ABE0DC"/>
    </linearGradient>
  </defs>
</svg>