<svg width="200" height="200" viewBox="0 0 200 200" fill="none" xmlns="http://www.w3.org/2000/svg">
  <ellipse cx="101.588" cy="84.911" rx="63.349" ry="62.911" fill="url(#a)"/>
  <path d="M133.633 128.257c1.375-1.159 3.305-1.818 5.092-1.231 1.028.337 3.453 2.548 2.728 1.75-.318-.349 1.676 1.765 2.757 2.898 2.25 2.358 4.483 4.732 6.728 7.094 6.765 7.116 13.646 14.146 20.279 21.383 1.045 1.14-5.883-3.692-2.118-1.598 5.892 3.279 6.529 11.735 1.194 15.848-4.729 3.645-11.858 2.011-14.501-3.322-2.224-4.49.378.689.37.677-5.414-8.176-10.565-16.539-15.829-24.812-1.748-2.747-3.51-5.483-5.252-8.233-.837-1.321-2.405-3.763-2.143-3.371.071.105-.144-.209-.211-.317-1.301-2.097-1.052-5.117.906-6.766Zm29.721 29.137c5.27-.577 10.013 3.197 10.595 8.431.581 5.234-3.22 9.944-8.49 10.522-12.307 1.348-14.412-17.605-2.105-18.953Z" fill="#60B3AE"/>
  <path d="M159.553 84.911c0 31.736-25.917 57.527-57.965 57.527s-57.964-25.791-57.964-57.527 25.916-57.526 57.964-57.526 57.965 25.79 57.965 57.526Z" stroke="url(#b)" stroke-width="10.769"/>
  <circle cx="101.448" cy="85.209" r="32.179" fill="url(#c)"/>
  <path d="M116.333 100.21c-1.606 1.451-4.208 1.451-5.81 0l-9.074-9.375-9.075 9.372c-1.605 1.451-4.207 1.451-5.81 0-1.604-1.451-1.604-3.803 0-5.25l9.442-9.747-9.445-9.752c-1.605-1.451-1.605-3.8 0-5.25 1.606-1.452 4.204-1.452 5.81 0l9.078 9.377 9.074-9.377c1.606-1.452 4.204-1.452 5.81 0 1.605 1.45 1.605 3.802 0 5.25l-9.441 9.752 9.441 9.746c1.605 1.451 1.605 3.803 0 5.254Z" fill="#D7F6F3"/>
  <path d="M116.333 100.21c-1.606 1.451-4.208 1.451-5.81 0l-9.074-9.375-9.075 9.372c-1.605 1.451-4.207 1.451-5.81 0-1.604-1.451-1.604-3.803 0-5.25l9.442-9.747-9.445-9.752c-1.605-1.451-1.605-3.8 0-5.25 1.606-1.452 4.204-1.452 5.81 0l9.078 9.377 9.074-9.377c1.606-1.452 4.204-1.452 5.81 0 1.605 1.45 1.605 3.802 0 5.25l-9.441 9.752 9.441 9.746c1.605 1.451 1.605 3.803 0 5.254Z" fill="url(#d)"/>
  <path d="M29.62 49.56c-4.754 0-8.62-3.866-8.62-8.62 0-4.073 7.786-18.073 8.117-18.668.203-.363.801-.363 1.003 0 .333.595 8.119 14.595 8.119 18.669 0 4.752-3.866 8.62-8.62 8.62Z" fill="url(#e)"/>
  <path d="M29.62 49.56c-4.754 0-8.62-3.866-8.62-8.62 0-4.073 7.786-18.073 8.117-18.668.203-.363.801-.363 1.003 0 .333.595 8.119 14.595 8.119 18.669 0 4.752-3.866 8.62-8.62 8.62Z" fill="#B1EDEA"/>
  <defs>
    <radialGradient id="a" cx="0" cy="0" r="1" gradientUnits="userSpaceOnUse" gradientTransform="matrix(76.44823 94.30604 -94.2268 76.384 63.5 34)">
      <stop offset=".074" stop-color="#517874"/>
      <stop offset=".868" stop-opacity="0"/>
    </radialGradient>
    <radialGradient id="c" cx="0" cy="0" r="1" gradientUnits="userSpaceOnUse" gradientTransform="rotate(90.757 8.68 92.85) scale(48.1068)">
      <stop stop-color="#80CBC4"/>
      <stop offset=".671" stop-color="#2B2E3A" stop-opacity="0"/>
    </radialGradient>
    <radialGradient id="d" cx="0" cy="0" r="1" gradientUnits="userSpaceOnUse" gradientTransform="rotate(71.309 -6.807 102.927) scale(26.2947 36.5671)">
      <stop offset=".191" stop-color="#fff"/>
      <stop offset=".944" stop-color="#fff" stop-opacity="0"/>
    </radialGradient>
    <linearGradient id="b" x1="78" y1="22" x2="134.441" y2="138.029" gradientUnits="userSpaceOnUse">
      <stop stop-color="#B8F2EF"/>
      <stop offset="1" stop-color="#5AAEA9"/>
    </linearGradient>
    <linearGradient id="e" x1="30.194" y1="19.701" x2="31.765" y2="49.447" gradientUnits="userSpaceOnUse">
      <stop stop-color="#F3FFFE" stop-opacity=".7"/>
      <stop offset="1" stop-color="#ABE0DC"/>
    </linearGradient>
  </defs>
</svg>