<svg width="200" height="200" viewBox="0 0 200 200" fill="none" xmlns="http://www.w3.org/2000/svg">
<circle opacity="0.1" cx="100" cy="100" r="100" fill="url(#paint0_linear_7364_21265)"/>
<circle opacity="0.2" cx="100" cy="100" r="71" fill="url(#paint1_linear_7364_21265)"/>
<circle cx="100" cy="100" r="44" fill="url(#paint2_radial_7364_21265)"/>
<mask id="mask0_7364_21265" style="mask-type:alpha" maskUnits="userSpaceOnUse" x="64" y="64" width="72" height="72">
<circle cx="100" cy="100" r="36" fill="#07C0B0"/>
</mask>
<g mask="url(#mask0_7364_21265)">
<circle cx="100" cy="100" r="36" fill="url(#paint3_radial_7364_21265)"/>
<path fill-rule="evenodd" clip-rule="evenodd" d="M113.5 80H91.5V83H121.5V95C121.5 95.8284 122.172 96.5 123 96.5H139.5V93.5H124.5V81.5C124.5 80.6716 123.828 80 123 80H116.5V64H113.5V80Z" fill="url(#paint4_radial_7364_21265)"/>
<path d="M109 108C109 112.418 105.418 116 101 116C96.5817 116 93 112.418 93 108C93 103.582 96.5817 100 101 100C105.418 100 109 103.582 109 108Z" fill="url(#paint5_radial_7364_21265)"/>
<path fill-rule="evenodd" clip-rule="evenodd" d="M72 69.5H91.5C92.3284 69.5 93 70.1716 93 71V86.7088L101.847 92.762C102.256 93.0416 102.5 93.5049 102.5 94V109H99.5V94.7912L90.653 88.738C90.2443 88.4584 90 87.9951 90 87.5V72.5H72V69.5Z" fill="url(#paint6_radial_7364_21265)"/>
<path fill-rule="evenodd" clip-rule="evenodd" d="M111.941 99.951C112.659 99.5367 113.576 99.7826 113.99 100.5C115.307 102.78 116 105.367 116 108C116 110.633 115.307 113.22 113.99 115.5C112.674 117.78 110.78 119.674 108.5 120.99C106.22 122.307 103.633 123 101 123C98.367 123 95.7803 122.307 93.5 120.99C91.2197 119.674 89.3261 117.78 88.0096 115.5C86.6931 113.22 86 110.633 86 108C86 105.367 86.6931 102.78 88.0096 100.5C88.4238 99.7826 89.3412 99.5368 90.0587 99.951C90.7761 100.365 91.0219 101.283 90.6077 102C89.5545 103.824 89 105.894 89 108C89 110.106 89.5545 112.176 90.6077 114C91.6609 115.824 93.1758 117.339 95 118.392C96.8242 119.446 98.8936 120 101 120C103.106 120 105.176 119.446 107 118.392C108.824 117.339 110.339 115.824 111.392 114C112.446 112.176 113 110.106 113 108C113 105.894 112.446 103.824 111.392 102C110.978 101.283 111.224 100.365 111.941 99.951Z" fill="url(#paint7_radial_7364_21265)"/>
</g>
<defs>
<linearGradient id="paint0_linear_7364_21265" x1="17.5" y1="19" x2="163.5" y2="195.5" gradientUnits="userSpaceOnUse">
<stop offset="0.420252" stop-color="#48EDDF"/>
<stop offset="1" stop-color="#07C0B0" stop-opacity="0"/>
</linearGradient>
<linearGradient id="paint1_linear_7364_21265" x1="46.5" y1="36.5" x2="144.5" y2="162" gradientUnits="userSpaceOnUse">
<stop stop-color="#07C0B0" stop-opacity="0"/>
<stop offset="0.708947" stop-color="#3CD7C9"/>
</linearGradient>
<radialGradient id="paint2_radial_7364_21265" cx="0" cy="0" r="1" gradientUnits="userSpaceOnUse" gradientTransform="translate(99.7514 100.128) rotate(90) scale(44.1275 43.143)">
<stop stop-color="#065C56"/>
<stop offset="1" stop-color="#042D2A" stop-opacity="0"/>
</radialGradient>
<radialGradient id="paint3_radial_7364_21265" cx="0" cy="0" r="1" gradientUnits="userSpaceOnUse" gradientTransform="translate(100.211 100.211) rotate(90) scale(35.7895 43.6489)">
<stop stop-color="#31B0A4"/>
<stop offset="1" stop-color="#34363F"/>
</radialGradient>
<radialGradient id="paint4_radial_7364_21265" cx="0" cy="0" r="1" gradientUnits="userSpaceOnUse" gradientTransform="translate(82.2763 81.5889) rotate(67.3377) scale(65.4655 77.4485)">
<stop offset="0.498362" stop-color="#80D0CD"/>
<stop offset="0.83757" stop-color="#70B1AF" stop-opacity="0"/>
</radialGradient>
<radialGradient id="paint5_radial_7364_21265" cx="0" cy="0" r="1" gradientUnits="userSpaceOnUse" gradientTransform="translate(82.2763 81.5889) rotate(67.3377) scale(65.4655 77.4485)">
<stop offset="0.498362" stop-color="#80D0CD"/>
<stop offset="0.83757" stop-color="#70B1AF" stop-opacity="0"/>
</radialGradient>
<radialGradient id="paint6_radial_7364_21265" cx="0" cy="0" r="1" gradientUnits="userSpaceOnUse" gradientTransform="translate(82.2763 81.5889) rotate(67.3377) scale(65.4655 77.4485)">
<stop offset="0.498362" stop-color="#80D0CD"/>
<stop offset="0.83757" stop-color="#70B1AF" stop-opacity="0"/>
</radialGradient>
<radialGradient id="paint7_radial_7364_21265" cx="0" cy="0" r="1" gradientUnits="userSpaceOnUse" gradientTransform="translate(82.2763 81.5889) rotate(67.3377) scale(65.4655 77.4485)">
<stop offset="0.498362" stop-color="#80D0CD"/>
<stop offset="0.83757" stop-color="#70B1AF" stop-opacity="0"/>
</radialGradient>
</defs>
</svg>
