<svg width="24" height="24" viewBox="0 0 24 24" fill="none" xmlns="http://www.w3.org/2000/svg">
<circle cx="12" cy="12" r="12" fill="#04C0B2"/>
<path d="M17.5312 11.3812H12.6188V6.46875C12.6188 6.12702 12.3417 5.85 12 5.85C11.6583 5.85 11.3812 6.12702 11.3812 6.46875V11.3812H6.46875C6.12702 11.3812 5.85 11.6583 5.85 12C5.85 12.3417 6.12702 12.6188 6.46875 12.6188H11.3812V17.5312C11.3812 17.873 11.6583 18.15 12 18.15C12.3417 18.15 12.6188 17.873 12.6188 17.5312V12.6188H17.5312C17.873 12.6188 18.15 12.3417 18.15 12C18.15 11.6583 17.873 11.3812 17.5312 11.3812Z" fill="white" stroke="white" stroke-width="0.3"/>
</svg>
