<svg width="19" height="19" viewBox="0 0 19 19" fill="none" xmlns="http://www.w3.org/2000/svg">
<path d="M1.0029 19C1.0839 19 1.1649 18.99 1.2449 18.97L5.2449 17.97C5.4209 17.926 5.5819 17.835 5.7099 17.707L18.0029 5.414C18.3809 5.036 18.5889 4.534 18.5889 4C18.5889 3.466 18.3809 2.964 18.0029 2.586L16.4169 0.999999C15.6609 0.243999 14.3449 0.243999 13.5889 0.999999L1.2959 13.293C1.16797 13.4211 1.07709 13.5814 1.0329 13.757L0.0329034 17.757C-0.00403403 17.9044 -0.00687104 18.0584 0.0246078 18.2071C0.0560867 18.3558 0.121053 18.4954 0.214569 18.6152C0.308085 18.735 0.427689 18.832 0.564291 18.8987C0.700893 18.9653 0.850897 19 1.0029 19V19ZM15.0029 2.414L16.5889 4L15.0029 5.586L13.4169 4L15.0029 2.414V2.414ZM2.9059 14.511L12.0029 5.414L13.5889 7L4.4909 16.097L2.3769 16.625L2.9059 14.511V14.511Z"/>
</svg>
