<svg width="27" height="26" viewBox="0 0 27 26" fill="none" xmlns="http://www.w3.org/2000/svg">
<path d="M23.8286 13.5741V12.8832V12.1833L25.6212 10.6561C25.9516 10.3725 26.1684 9.98436 26.2334 9.56019C26.2983 9.13601 26.2071 8.70314 25.9759 8.33809L23.7726 4.70198C23.6088 4.42588 23.3734 4.19654 23.0899 4.03699C22.8064 3.87744 22.4848 3.79328 22.1574 3.79295C21.9544 3.79144 21.7526 3.82214 21.5598 3.88386L19.2911 4.62926C18.8994 4.37583 18.4908 4.14807 18.068 3.94749L17.5919 1.65674C17.5065 1.23823 17.2726 0.862286 16.9313 0.594725C16.5899 0.327163 16.1627 0.18503 15.7246 0.193205H11.3552C10.917 0.18503 10.4899 0.327163 10.1485 0.594725C9.8071 0.862286 9.57326 1.23823 9.48789 1.65674L9.01173 3.94749C8.58593 4.14802 8.17423 4.37577 7.77933 4.62926L5.55727 3.8475C5.36241 3.79807 5.16063 3.77965 4.95974 3.79295C4.63229 3.79328 4.31068 3.87744 4.02719 4.03699C3.74369 4.19654 3.50827 4.42588 3.34454 4.70198L1.14116 8.33809C0.923233 8.7026 0.842254 9.12954 0.912088 9.54579C0.981922 9.96204 1.19822 10.3417 1.52395 10.6197L3.28853 12.1924V13.5832L1.52395 15.1103C1.18902 15.3903 0.966805 15.7768 0.896729 16.2011C0.826653 16.6255 0.913252 17.0603 1.14116 17.4284L3.34454 21.0645C3.50827 21.3406 3.74369 21.5699 4.02719 21.7295C4.31068 21.889 4.63229 21.9732 4.95974 21.9735C5.16266 21.975 5.36449 21.9443 5.55727 21.8826L7.82601 21.1372C8.21771 21.3906 8.6263 21.6184 9.04908 21.819L9.52523 24.1097C9.61061 24.5282 9.84445 24.9042 10.1858 25.1717C10.5272 25.4393 10.9543 25.5814 11.3925 25.5732H15.7993C16.2374 25.5814 16.6646 25.4393 17.006 25.1717C17.3473 24.9042 17.5812 24.5282 17.6666 24.1097L18.1427 21.819C18.5685 21.6184 18.9802 21.3907 19.3751 21.1372L21.6345 21.8826C21.8273 21.9443 22.0291 21.975 22.232 21.9735C22.5595 21.9732 22.8811 21.889 23.1646 21.7295C23.4481 21.5699 23.6835 21.3406 23.8472 21.0645L25.9759 17.4284C26.1939 17.0639 26.2748 16.6369 26.205 16.2207C26.1352 15.8044 25.9189 15.4248 25.5931 15.1467L23.8286 13.5741ZM22.1574 20.1554L18.955 19.101C18.2053 19.7192 17.3486 20.2025 16.4248 20.5281L15.7619 23.7916H11.3552L10.6923 20.5645C9.77584 20.2296 8.9237 19.7472 8.17145 19.1373L4.95974 20.1554L2.75635 16.5193L5.29585 14.3377C5.12322 13.3967 5.12322 12.4334 5.29585 11.4924L2.75635 9.24712L4.95974 5.61101L8.16212 6.66548C8.91177 6.04724 9.76854 5.56397 10.6923 5.23831L11.3552 1.9749H15.7619L16.4248 5.20195C17.3413 5.53685 18.1934 6.01929 18.9456 6.62912L22.1574 5.61101L24.3607 9.24712L21.8212 11.4288C21.9939 12.3698 21.9939 13.3331 21.8212 14.274L24.3607 16.5193L22.1574 20.1554Z" fill="#B6B6B6"/>
<path d="M13.5587 18.3374C12.4508 18.3374 11.3677 18.0175 10.4465 17.4182C9.52532 16.8189 8.80731 15.9671 8.38333 14.9705C7.95934 13.9738 7.8484 12.8772 8.06455 11.8192C8.2807 10.7612 8.81422 9.78935 9.59765 9.02657C10.3811 8.26379 11.3792 7.74433 12.4659 7.53388C13.5525 7.32343 14.6789 7.43144 15.7025 7.84425C16.7261 8.25707 17.601 8.95614 18.2165 9.85307C18.832 10.75 19.1606 11.8045 19.1606 12.8832C19.1681 13.6015 19.0283 14.314 18.7494 14.9791C18.4706 15.6441 18.0582 16.2482 17.5365 16.7562C17.0149 17.2641 16.3943 17.6656 15.7113 17.9371C15.0283 18.2086 14.2965 18.3447 13.5587 18.3374ZM13.5587 9.24713C13.0652 9.23594 12.5744 9.32234 12.1161 9.50111C11.6578 9.67988 11.2415 9.9473 10.8924 10.2872C10.5433 10.6271 10.2686 11.0324 10.085 11.4786C9.90143 11.9248 9.81269 12.4027 9.82419 12.8832C9.81269 13.3638 9.90143 13.8416 10.085 14.2879C10.2686 14.7341 10.5433 15.1394 10.8924 15.4793C11.2415 15.8192 11.6578 16.0866 12.1161 16.2654C12.5744 16.4441 13.0652 16.5305 13.5587 16.5194C14.0523 16.5305 14.5431 16.4441 15.0014 16.2654C15.4597 16.0866 15.876 15.8192 16.2251 15.4793C16.5742 15.1394 16.8488 14.7341 17.0324 14.2879C17.2161 13.8416 17.3048 13.3638 17.2933 12.8832C17.3048 12.4027 17.2161 11.9248 17.0324 11.4786C16.8488 11.0324 16.5742 10.6271 16.2251 10.2872C15.876 9.9473 15.4597 9.67988 15.0014 9.50111C14.5431 9.32234 14.0523 9.23594 13.5587 9.24713Z" fill="#B6B6B6"/>
</svg>
